<svg width="29" height="29" viewBox="0 0 29 29" fill="none" xmlns="http://www.w3.org/2000/svg">
<path d="M22.7124 0H5.85947C2.62856 0 0 2.62856 0 5.85947V22.7124C0 25.9433 2.62856 28.5719 5.85947 28.5719H22.7124C25.9433 28.5719 28.5719 25.9433 28.5719 22.7124V5.85947C28.5719 2.62856 25.9433 0 22.7124 0ZM26.8977 22.7124C26.8977 25.0202 25.0202 26.8977 22.7124 26.8977H5.85947C3.55167 26.8977 1.67413 25.0202 1.67413 22.7124V5.85947C1.67413 3.55167 3.55167 1.67413 5.85947 1.67413H22.7124C25.0202 1.67413 26.8977 3.55167 26.8977 5.85947V22.7124Z" fill="white"/>
<path d="M17.0565 6.89361C16.96 6.53368 16.7292 6.23278 16.4065 6.0465C15.7404 5.6619 14.8855 5.89086 14.5008 6.55717L14.286 6.92905L14.0713 6.55711C13.6866 5.89098 12.8318 5.6619 12.1656 6.04645H12.1655C11.4993 6.43111 11.2703 7.28598 11.6549 7.95223L12.6751 9.71922L8.91082 16.2391H6.16647C5.39721 16.2391 4.77136 16.865 4.77136 17.6342C4.77136 18.4035 5.39721 19.0294 6.16647 19.0294H16.7615L15.1505 16.2391H12.1327L16.9171 7.95228C17.1034 7.62956 17.153 7.25355 17.0565 6.89361Z" fill="white"/>
<path d="M22.4054 16.2392H19.6611L16.5412 10.8354L14.9303 13.6257L19.7743 22.0158C19.9607 22.3385 20.2615 22.5694 20.6215 22.6659C20.7417 22.6981 20.8636 22.714 20.9849 22.714C21.2266 22.714 21.4652 22.6506 21.6802 22.5265C22.3464 22.1418 22.5754 21.2869 22.1908 20.6208L21.272 19.0294H22.4054C23.1747 19.0294 23.8005 18.4036 23.8005 17.6343C23.8005 16.8651 23.1747 16.2392 22.4054 16.2392Z" fill="white"/>
<path d="M6.65546 20.1455L6.38107 20.6207C5.99647 21.2869 6.22555 22.1419 6.89174 22.5265C7.11088 22.653 7.3504 22.7131 7.58695 22.7131C8.06944 22.7131 8.53937 22.4628 8.79752 22.0158L9.87733 20.1455H6.65546Z" fill="white"/>
</svg>
