<svg xmlns="http://www.w3.org/2000/svg" viewBox="-1030 1309.003 118.996 118.996">
  <defs>
    <style>
      .cls-1 {
        fill: #565ceb;
      }

      .cls-2 {
        fill: #6369f2;
      }

      .cls-3 {
        fill: #4247d8;
      }

      .cls-4 {
        fill: #ffd50a;
        stroke: #fff;
        stroke-width: 3px;
      }

      .cls-5 {
        stroke: none;
      }

      .cls-6 {
        fill: none;
      }
    </style>
  </defs>
  <g id="main-icon-1" transform="translate(-1266 539)">
    <g id="Group_433" data-name="Group 433" transform="translate(44 -4)">
      <circle id="Ellipse_5" data-name="Ellipse 5" class="cls-1" cx="59.498" cy="59.498" r="59.498" transform="translate(192 774.003)"/>
      <path id="Intersection_1" data-name="Intersection 1" class="cls-2" d="M0,52.794A59.494,59.494,0,0,1,32.031,0,59.467,59.467,0,0,1,34.8,17.993,59.493,59.493,0,0,1,2.769,70.786,59.444,59.444,0,0,1,0,52.794Z" transform="translate(192.001 780.708)"/>
      <path id="Intersection_2" data-name="Intersection 2" class="cls-3" d="M0,44.884A59.521,59.521,0,0,1,57.69,0q.782,0,1.56.02A59.522,59.522,0,0,1,1.56,44.9Q.777,44.9,0,44.884Z" transform="translate(249.939 848.096)"/>
      <g id="Ellipse_24" data-name="Ellipse 24" class="cls-4" transform="translate(286.299 862.69)">
        <circle class="cls-5" cx="10.103" cy="10.103" r="10.103"/>
        <circle class="cls-6" cx="10.103" cy="10.103" r="11.603"/>
      </g>
    </g>
  </g>
</svg>
