<svg xmlns="http://www.w3.org/2000/svg" viewBox="-809.999 2428 50.224 50.225">
  <defs>
    <style>
      .cls-1 {
        fill: #dbdfff;
      }
    </style>
  </defs>
  <g id="Group_427" data-name="Group 427" transform="translate(-1422 1598)">
    <path id="Subtraction_6" data-name="Subtraction 6" class="cls-1" d="M43.983,36.857H39.267a1.525,1.525,0,0,1-1.524-1.523V33.713H10.911v1.622a1.525,1.525,0,0,1-1.524,1.523H4.669a1.525,1.525,0,0,1-1.523-1.523v-2.36a.111.111,0,0,1,0-.013v-.013A3.9,3.9,0,0,1,1.573,29.83V20.617A3.864,3.864,0,0,1,2.3,18.36l2.51-3.518H.738A.739.739,0,0,1,0,14.1V10.959a.738.738,0,0,1,.738-.737H4.669a.737.737,0,0,1,.716.558L5.9,12.852,9.524,2.59A3.886,3.886,0,0,1,13.185,0H35.469A3.889,3.889,0,0,1,39.13,2.59l3.622,10.262.518-2.072a.734.734,0,0,1,.715-.558h3.93a.738.738,0,0,1,.738.737V14.1a.738.738,0,0,1-.738.738H43.843l2.513,3.518a3.855,3.855,0,0,1,.724,2.257V29.83a3.9,3.9,0,0,1-1.573,3.119.108.108,0,0,0,0,.013v2.372a1.525,1.525,0,0,1-1.524,1.523Zm-40.82-6.29a2.4,2.4,0,0,0,2.293,1.671H43.2a2.4,2.4,0,0,0,2.291-1.671H3.163Zm14.824-3.144v1.67h12.68v-1.67ZM38.479,21.23c-2.618,0-4.668,1.36-4.668,3.1s2.051,3.1,4.668,3.1,4.668-1.36,4.668-3.1S41.1,21.23,38.479,21.23Zm-28.307,0c-2.618,0-4.668,1.36-4.668,3.1s2.051,3.1,4.668,3.1,4.668-1.36,4.668-3.1-2.049-3.1-4.667-3.1Zm7.814,3.047v1.671H30.667V24.277Zm2.407-3.144A2.4,2.4,0,0,0,18.1,22.8H30.551a2.4,2.4,0,0,0-2.292-1.67ZM36.12,18.872a.737.737,0,1,0,0,1.473h4.718a.737.737,0,1,0,0-1.473Zm-28.308,0a.737.737,0,1,0,0,1.473H12.53a.737.737,0,1,0,0-1.473ZM13.185,2.358a1.527,1.527,0,0,0-1.437,1.017L8.881,11.5a.725.725,0,0,0,.1.668.736.736,0,0,0,.6.315h29.5a.738.738,0,0,0,.7-.983L36.9,3.375a1.525,1.525,0,0,0-1.437-1.017ZM38.48,25.948c-1.828,0-3.194-.856-3.194-1.622S36.651,22.7,38.479,22.7s3.194.856,3.194,1.622-1.365,1.626-3.194,1.626Zm-28.307,0c-1.828,0-3.194-.856-3.194-1.622S8.345,22.7,10.173,22.7s3.194.856,3.194,1.622S12,25.948,10.173,25.948Z" transform="translate(612.688 843.367)"/>
    <path id="Path_47" data-name="Path 47" class="cls-1" d="M439.872,107.348a2.411,2.411,0,0,1-2.408-2.408.737.737,0,1,0-1.474,0,2.411,2.411,0,0,1-2.408,2.408.737.737,0,0,0,0,1.474,2.411,2.411,0,0,1,2.408,2.408.737.737,0,0,0,1.474,0,2.411,2.411,0,0,1,2.408-2.408.737.737,0,1,0,0-1.474Z" transform="translate(221.616 736.019)"/>
    <path id="Path_48" data-name="Path 48" class="cls-1" d="M7.027,107.348a2.411,2.411,0,0,1-2.408-2.408.737.737,0,0,0-1.474,0,2.411,2.411,0,0,1-2.408,2.408.737.737,0,1,0,0,1.474,2.411,2.411,0,0,1,2.408,2.408.737.737,0,1,0,1.474,0,2.411,2.411,0,0,1,2.408-2.408.737.737,0,1,0,0-1.474Z" transform="translate(612.001 736.019)"/>
    <path id="Path_49" data-name="Path 49" class="cls-1" d="M217.006,3.931A3.2,3.2,0,0,1,213.812.737a.737.737,0,1,0-1.474,0,3.2,3.2,0,0,1-3.194,3.194.737.737,0,0,0,0,1.474,3.2,3.2,0,0,1,3.194,3.2.737.737,0,1,0,1.474,0,3.2,3.2,0,0,1,3.194-3.194.737.737,0,0,0,0-1.474Z" transform="translate(424.038 830)"/>
  </g>
</svg>
