<svg xmlns="http://www.w3.org/2000/svg" viewBox="1618.977 3302 19.528 19.509">
  <defs>
    <style>
      .cls-1 {
        fill: #f4f5ff;
      }
    </style>
  </defs>
  <g id="linkedin" transform="translate(1619 3302)">
    <path id="Path_444" data-name="Path 444" class="cls-1" d="M21.093,20.926h0V13.771c0-3.5-.754-6.2-4.846-6.2a4.248,4.248,0,0,0-3.826,2.1h-.057V7.9H8.489V20.926h4.04v-6.45c0-1.7.322-3.34,2.425-3.34,2.072,0,2.1,1.938,2.1,3.449v6.341Z" transform="translate(-1.588 -1.417)"/>
    <path id="Path_445" data-name="Path 445" class="cls-1" d="M.4,7.977H4.441V21H.4Z" transform="translate(-0.074 -1.493)"/>
    <path id="Path_446" data-name="Path 446" class="cls-1" d="M2.343,0A2.354,2.354,0,1,0,4.685,2.343,2.354,2.354,0,0,0,2.343,0Z"/>
  </g>
</svg>
