<svg xmlns="http://www.w3.org/2000/svg" viewBox="1758 3299 25.45 25.454">
  <defs>
    <style>
      .cls-1 {
        fill: #f4f5ff;
      }
    </style>
  </defs>
  <g id="instagram" transform="translate(1757.551 3299)">
    <path id="Path_441" data-name="Path 441" class="cls-1" d="M25.833,7.483A9.3,9.3,0,0,0,25.241,4.4,6.52,6.52,0,0,0,21.517.671,9.325,9.325,0,0,0,18.429.08C17.067.015,16.634,0,13.178,0S9.29.015,7.933.075A9.3,9.3,0,0,0,4.845.666,6.21,6.21,0,0,0,2.587,2.138,6.267,6.267,0,0,0,1.12,4.391,9.326,9.326,0,0,0,.529,7.478c-.065,1.363-.08,1.8-.08,5.251s.015,3.888.075,5.246a9.3,9.3,0,0,0,.592,3.088A6.519,6.519,0,0,0,4.84,24.787a9.326,9.326,0,0,0,3.088.592c1.357.06,1.79.075,5.246.075s3.888-.015,5.246-.075a9.3,9.3,0,0,0,3.088-.592,6.51,6.51,0,0,0,3.724-3.724,9.332,9.332,0,0,0,.592-3.088c.06-1.357.075-1.79.075-5.246S25.892,8.841,25.833,7.483ZM23.541,17.875a6.977,6.977,0,0,1-.438,2.362,4.222,4.222,0,0,1-2.417,2.417,7,7,0,0,1-2.362.437c-1.343.06-1.745.075-5.141.075s-3.8-.015-5.141-.075a6.973,6.973,0,0,1-2.362-.437,3.917,3.917,0,0,1-1.462-.95,3.957,3.957,0,0,1-.95-1.462,7,7,0,0,1-.437-2.362c-.06-1.343-.075-1.745-.075-5.141s.015-3.8.075-5.141a6.973,6.973,0,0,1,.437-2.362,3.869,3.869,0,0,1,.955-1.462,3.951,3.951,0,0,1,1.462-.95,7.006,7.006,0,0,1,2.362-.438c1.343-.06,1.745-.075,5.141-.075s3.8.015,5.141.075a6.977,6.977,0,0,1,2.362.438,3.914,3.914,0,0,1,1.462.95,3.956,3.956,0,0,1,.95,1.462A7,7,0,0,1,23.541,7.6c.06,1.343.075,1.745.075,5.141S23.6,16.533,23.541,17.875Zm0,0"/>
    <path id="Path_442" data-name="Path 442" class="cls-1" d="M131.488,124.5a6.539,6.539,0,1,0,6.539,6.539,6.539,6.539,0,0,0-6.539-6.539Zm0,10.78a4.241,4.241,0,1,1,4.241-4.241,4.241,4.241,0,0,1-4.241,4.241Zm0,0" transform="translate(-118.31 -118.31)"/>
    <path id="Path_443" data-name="Path 443" class="cls-1" d="M365.5,90.128a1.527,1.527,0,1,1-1.527-1.526,1.527,1.527,0,0,1,1.527,1.526Zm0,0" transform="translate(-344 -84.196)"/>
  </g>
</svg>
