<svg xmlns="http://www.w3.org/2000/svg" viewBox="-463 2399 50.436 42.166">
  <defs>
    <style>
      .cls-1 {
        fill: #dbdfff;
      }
    </style>
  </defs>
  <g id="Group_431" data-name="Group 431" transform="translate(-1468 1278)">
    <path id="Subtraction_3" data-name="Subtraction 3" class="cls-1" d="M13.939,31.234H0V13.473a.946.946,0,0,0,.2.022H15.908a.94.94,0,0,0,0-1.88H2.254l2.466-1.9a.947.947,0,0,0,.181.018H15.908a.94.94,0,0,0,0-1.88H7.14l2.443-1.88h6.325a.94.94,0,1,0,0-1.879H12.026L17.347,0,32.441,11.615H28.4a.94.94,0,1,0,0,1.88h6.293V31.232H21.344v-13.1h-7.4V31.233Z" transform="translate(1012.87 1131.932)"/>
    <rect id="Rectangle_89" data-name="Rectangle 89" class="cls-1" width="4.457" height="7.132" rx="2.228" transform="translate(1038.431 1150.185)"/>
    <rect id="Rectangle_90" data-name="Rectangle 90" class="cls-1" width="4.457" height="7.132" rx="2.228" transform="translate(1017.926 1150.185)"/>
    <circle id="Ellipse_12" data-name="Ellipse 12" class="cls-1" cx="1.337" cy="1.337" r="1.337" transform="translate(1028.178 1155.088)"/>
    <path id="Path_15" data-name="Path 15" class="cls-1" d="M43.292,55.886v-5.62H35.987L25.218,41.982,0,61.382l3.481,4.525L25.218,49.181,46.955,65.907l3.481-4.525Z" transform="translate(1005 1079.018)"/>
    <rect id="Rectangle_91" data-name="Rectangle 91" class="cls-1" width="8.915" height="2.674" rx="1.337" transform="translate(1040.214 1123.44)"/>
  </g>
</svg>
