<svg xmlns="http://www.w3.org/2000/svg" xmlns:xlink="http://www.w3.org/1999/xlink" viewBox="2115 -1295 156.442 31">
  <defs>
    <style>
      .cls-1 {
        fill: none;
      }

      .cls-2 {
        fill: #fff;
        font-size: 23px;
        font-family: AvenirNext-DemiBold, Avenir Next;
        font-weight: 300;
      }

      .cls-3 {
        clip-path: url(#clip-path);
      }

      .cls-4 {
        fill: #d0dfff;
      }

      .cls-4, .cls-5 {
        fill-rule: evenodd;
      }

      .cls-5 {
        fill: #f9fbff;
      }
    </style>
    <clipPath id="clip-path">
      <path id="Path_459" data-name="Path 459" class="cls-1" d="M0-325.9H26.924v26.494H0Z" transform="translate(0 325.901)"/>
    </clipPath>
  </defs>
  <g id="logo" transform="translate(2075 -1352)">
    <text id="TAMMWEL" class="cls-2" transform="translate(76.442 80)"><tspan x="0" y="0">TAMMWEL</tspan></text>
    <g id="Group_459" data-name="Group 459" transform="translate(40 58)">
      <g id="Group_463" data-name="Group 463" class="cls-3">
        <g id="Group_459-2" data-name="Group 459" transform="translate(11.986 23.471)">
          <path id="Path_455" data-name="Path 455" class="cls-4" d="M-137.765,0h-12.19a.989.989,0,0,0,.214.407c.758.81,1.539,1.6,2.33,2.379a.835.835,0,0,0,.526.225q4.56.02,9.12,0Z" transform="translate(149.955)"/>
        </g>
        <g id="Group_460" data-name="Group 460" transform="translate(0 0.007)">
          <path id="Path_456" data-name="Path 456" class="cls-5" d="M-30.913-32.057v-2.837h-.207a.8.8,0,0,0-.5.191c-.614.573-1.216,1.16-1.8,1.767a.9.9,0,0,0-.225.568q-.017,10.282,0,20.563a1.017,1.017,0,0,0,.251.6c.378.441.789.855,1.2,1.269s.8.787,1.3,1.275v-23.4Z" transform="translate(33.648 34.894)"/>
        </g>
        <g id="Group_461" data-name="Group 461" transform="translate(6.293 0.007)">
          <path id="Path_457" data-name="Path 457" class="cls-5" d="M-233.116-25.376a.566.566,0,0,0-.106-.369c-.575-.573-1.158-1.138-1.759-1.684a.812.812,0,0,0-.5-.192h-.378v2.5h.016V-4.162h-9.181V-18.069c.14-.007.248-.016.355-.016,1.558,0,3.116-.01,4.673.007a.492.492,0,0,0,.549-.394,4.107,4.107,0,0,0,.048-2.274.791.791,0,0,0-.855-.7q-6.2,0-12.4.011a.938.938,0,0,0-.586.262,2.149,2.149,0,0,0-.421,2.093c.189,1,.223.994,1.236.994h4.327v.579q0,6.563.011,13.126a.9.9,0,0,0,.033.225h12.19V-1.14h.349a.675.675,0,0,0,.425-.172q.908-.872,1.781-1.781a.73.73,0,0,0,.185-.459q.013-10.911,0-21.823" transform="translate(253.744 27.621)"/>
        </g>
        <g id="Group_462" data-name="Group 462" transform="translate(2.735)">
          <path id="Path_458" data-name="Path 458" class="cls-4" d="M0-.075V2.762H.023v-.34H21.441v-2.5Q10.721-.088,0-.075" transform="translate(0 0.082)"/>
        </g>
      </g>
    </g>
  </g>
</svg>
