<svg xmlns="http://www.w3.org/2000/svg" viewBox="868 -1182.997 118.996 118.996">
  <defs>
    <style>
      .cls-1 {
        fill: #565ceb;
      }

      .cls-2 {
        fill: #6369f2;
      }

      .cls-3 {
        fill: #4247d8;
      }

      .cls-4 {
        fill: #ffd50a;
        stroke: #fff;
        stroke-width: 3px;
      }

      .cls-5 {
        fill: #dbdfff;
      }

      .cls-6 {
        stroke: none;
      }

      .cls-7 {
        fill: none;
      }
    </style>
  </defs>
  <g id="main-icon-1" transform="translate(632 -1953)">
    <g id="Group_433" data-name="Group 433" transform="translate(44 -4)">
      <circle id="Ellipse_5" data-name="Ellipse 5" class="cls-1" cx="59.498" cy="59.498" r="59.498" transform="translate(192 774.003)"/>
      <path id="Intersection_1" data-name="Intersection 1" class="cls-2" d="M0,52.794A59.494,59.494,0,0,1,32.031,0,59.467,59.467,0,0,1,34.8,17.993,59.493,59.493,0,0,1,2.769,70.786,59.444,59.444,0,0,1,0,52.794Z" transform="translate(192.001 780.708)"/>
      <path id="Intersection_2" data-name="Intersection 2" class="cls-3" d="M0,44.884A59.521,59.521,0,0,1,57.69,0q.782,0,1.56.02A59.522,59.522,0,0,1,1.56,44.9Q.777,44.9,0,44.884Z" transform="translate(249.939 848.096)"/>
      <g id="Ellipse_24" data-name="Ellipse 24" class="cls-4" transform="translate(286.299 862.69)">
        <circle class="cls-6" cx="10.103" cy="10.103" r="10.103"/>
        <circle class="cls-7" cx="10.103" cy="10.103" r="11.603"/>
      </g>
    </g>
    <g id="Group_432" data-name="Group 432" transform="translate(51 -13)">
      <path id="Subtraction_4" data-name="Subtraction 4" class="cls-5" d="M-5115.956,22.558h0a9.752,9.752,0,0,1-3.958-1.48,23.884,23.884,0,0,1-4.706-3.66,12.049,12.049,0,0,1-2.8-4.553,11.155,11.155,0,0,1-.577-2.35.812.812,0,0,1,.225-.559l6.312-6.54a.811.811,0,0,1,.57-.241.821.821,0,0,1,.575.236l.749.749,2.1-2.105A4.017,4.017,0,0,1-5115.025.9c.159-.013.282-.021.4-.021h6.181a4.01,4.01,0,0,1,2.827,1.175l.2.2a.821.821,0,0,0,.568.236h6.553a3.252,3.252,0,0,1,2.141.8,3.19,3.19,0,0,1,.48.538c-.421,2.471-4.368,2.5-4.536,2.5h-.006l-.02.008H-5108a1,1,0,0,0-1,1,1,1,0,0,0,1,1h6.454c.306.031.679.046,1.108.046.2,0,.408,0,.611-.009s.434-.019.647-.037h.179a1,1,0,0,0,.346-.062,5.113,5.113,0,0,0,4.572-3.812l6.992-4.033a3.217,3.217,0,0,1,1.6-.427,3.222,3.222,0,0,1,1.45.346A3.132,3.132,0,0,1-5082.7,1.6a3.22,3.22,0,0,1,.431,1.606,3.187,3.187,0,0,1-1.606,2.784l-12.461,7.194a3.978,3.978,0,0,1-2,.541h-10.526a.808.808,0,0,0-.567.236l-.011.011-6.649-6.648a.992.992,0,0,0-.707-.293.992.992,0,0,0-.707.293,1,1,0,0,0-.292.707,1,1,0,0,0,.292.707l7.777,7.778a1,1,0,0,0,.08.071l-5.735,5.735a.808.808,0,0,1-.574.236Z" transform="translate(5348 843.666)"/>
      <path id="Subtraction_5" data-name="Subtraction 5" class="cls-5" d="M-5091.869,22.482H-5127.2a.8.8,0,0,1-.8-.8V.8a.8.8,0,0,1,.8-.8h35.328a.8.8,0,0,1,.8.8V21.679a.8.8,0,0,1-.8.8Zm-29.772-19.27a.806.806,0,0,0-.7.407,5.4,5.4,0,0,1-2.041,2.041.807.807,0,0,0-.407.7v9.764a.807.807,0,0,0,.407.7,5.4,5.4,0,0,1,2.042,2.04.8.8,0,0,0,.7.408h24.217a.807.807,0,0,0,.7-.4,5.508,5.508,0,0,1,2.049-2.049.809.809,0,0,0,.4-.7V6.359a.8.8,0,0,0-.409-.7,5.4,5.4,0,0,1-2.04-2.041.8.8,0,0,0-.7-.407Zm23.769,14.453h-6.863a8.035,8.035,0,0,0,3.232-6.424,8.036,8.036,0,0,0-3.232-6.423h6.862a6.948,6.948,0,0,0,1.992,1.992v8.866a7.067,7.067,0,0,0-1.989,1.989Zm-2.026-7.226a.8.8,0,0,0-.8.8.8.8,0,0,0,.8.8h1.606a.8.8,0,0,0,.8-.8.8.8,0,0,0-.8-.8Zm-9.635,7.226a6.441,6.441,0,0,1-6.423-6.424,6.43,6.43,0,0,1,6.423-6.423,6.431,6.431,0,0,1,6.424,6.423,6.432,6.432,0,0,1-6.425,6.424Zm-.8-2.559a.8.8,0,0,0,.8.768.8.8,0,0,0,.8-.766,2.4,2.4,0,0,0,1.57-2.674,2.4,2.4,0,0,0-2.369-1.995h0a.8.8,0,0,1-.8-.8.8.8,0,0,1,.8-.8.8.8,0,0,1,.8.8.8.8,0,0,0,.8.8.8.8,0,0,0,.8-.8,2.412,2.412,0,0,0-1.6-2.261V7.5a.8.8,0,0,0-.235-.566.8.8,0,0,0-.569-.237.808.808,0,0,0-.8.777v-.1a2.4,2.4,0,0,0-1.569,2.674,2.4,2.4,0,0,0,2.367,2h0a.8.8,0,0,1,.8.8.8.8,0,0,1-.8.8.8.8,0,0,1-.8-.8.8.8,0,0,0-.8-.8.8.8,0,0,0-.8.8,2.414,2.414,0,0,0,1.606,2.261Zm-4,2.559h-6.862a6.977,6.977,0,0,0-1.991-1.992V6.809a6.963,6.963,0,0,0,1.991-1.992h6.862a8.031,8.031,0,0,0-3.233,6.423,8.034,8.034,0,0,0,3.23,6.423Zm-6.445-7.226a.8.8,0,0,0-.8.8.8.8,0,0,0,.8.8h1.606a.8.8,0,0,0,.8-.8.8.8,0,0,0-.8-.8Z" transform="translate(5359.241 819.655)"/>
    </g>
  </g>
</svg>
