<svg xmlns="http://www.w3.org/2000/svg" xmlns:xlink="http://www.w3.org/1999/xlink" viewBox="-2801 -9 1511 809">
  <defs>
    <style>
      .cls-1 {
        fill: #fff;
        stroke: #707070;
      }

      .cls-2 {
        clip-path: url(#clip-path);
      }

      .cls-3 {
        fill: #ffd50a;
      }

      .cls-4 {
        fill: #2151b6;
      }

      .cls-5 {
        fill: #285cc9;
      }

      .cls-6 {
        fill: #2958bc;
      }

      .cls-7 {
        fill: #7378ec;
      }
    </style>
    <clipPath id="clip-path">
      <rect id="Rectangle_8" data-name="Rectangle 8" class="cls-1" width="1511" height="809" transform="translate(-2801 -9)"/>
    </clipPath>
  </defs>
  <g id="Mask_Group_5" data-name="Mask Group 5" class="cls-2">
    <g id="hero-section" transform="translate(-3427 -9)">
      <g id="hero-image">
        <g id="hero-image-bg">
          <g id="Group_465" data-name="Group 465">
            <g id="Group_464" data-name="Group 464">
              <path id="Path_451" data-name="Path 451" class="cls-3" d="M48.384,0h220.3c26.722,0,48.384,23.231,48.384,51.889V303.605c0,28.657-21.662,51.889-48.384,51.889H48.384C21.662,355.494,0,332.263,0,303.605V51.889C0,23.231,21.662,0,48.384,0Z" transform="translate(1047.009 314.09) rotate(30)"/>
              <rect id="Rectangle_162" data-name="Rectangle 162" class="cls-4" width="644" height="644" rx="47" transform="translate(1005.14 -233.86) rotate(30)"/>
            </g>
            <path id="Intersection_3" data-name="Intersection 3" class="cls-5" d="M-4610.983,856.22l-130.194-75.167a143.091,143.091,0,0,1,104.538-45.193A143.3,143.3,0,0,1-4521,794.371l-25.776,44.646a46.985,46.985,0,0,1-40.747,23.508,46.784,46.784,0,0,1-23.465-6.308Z" transform="translate(5811.14 -233.86)"/>
            <rect id="Rectangle_163" data-name="Rectangle 163" class="cls-6" width="644" height="644" rx="47" transform="translate(1523.14 -365.86) rotate(30)"/>
            <g id="Group_435" data-name="Group 435" transform="translate(-3275 -45)">
              <circle id="Ellipse_28" data-name="Ellipse 28" class="cls-7" cx="7" cy="7" r="7" transform="translate(4317 189)"/>
              <circle id="Ellipse_34" data-name="Ellipse 34" class="cls-7" cx="7" cy="7" r="7" transform="translate(4317 229)"/>
              <circle id="Ellipse_35" data-name="Ellipse 35" class="cls-7" cx="7" cy="7" r="7" transform="translate(4317 269)"/>
              <circle id="Ellipse_36" data-name="Ellipse 36" class="cls-7" cx="7" cy="7" r="7" transform="translate(4317 309)"/>
              <circle id="Ellipse_37" data-name="Ellipse 37" class="cls-7" cx="7" cy="7" r="7" transform="translate(4317 349)"/>
              <circle id="Ellipse_38" data-name="Ellipse 38" class="cls-7" cx="7" cy="7" r="7" transform="translate(4317 389)"/>
              <circle id="Ellipse_33" data-name="Ellipse 33" class="cls-7" cx="7" cy="7" r="7" transform="translate(4439 189)"/>
              <circle id="Ellipse_48" data-name="Ellipse 48" class="cls-7" cx="7" cy="7" r="7" transform="translate(4439 269)"/>
              <circle id="Ellipse_58" data-name="Ellipse 58" class="cls-7" cx="7" cy="7" r="7" transform="translate(4439 349)"/>
              <circle id="Ellipse_41" data-name="Ellipse 41" class="cls-7" cx="7" cy="7" r="7" transform="translate(4439 229)"/>
              <circle id="Ellipse_46" data-name="Ellipse 46" class="cls-7" cx="7" cy="7" r="7" transform="translate(4439 309)"/>
              <circle id="Ellipse_56" data-name="Ellipse 56" class="cls-7" cx="7" cy="7" r="7" transform="translate(4439 389)"/>
              <circle id="Ellipse_29" data-name="Ellipse 29" class="cls-7" cx="7" cy="7" r="7" transform="translate(4358 189)"/>
              <circle id="Ellipse_52" data-name="Ellipse 52" class="cls-7" cx="7" cy="7" r="7" transform="translate(4358 269)"/>
              <circle id="Ellipse_62" data-name="Ellipse 62" class="cls-7" cx="7" cy="7" r="7" transform="translate(4358 349)"/>
              <circle id="Ellipse_39" data-name="Ellipse 39" class="cls-7" cx="7" cy="7" r="7" transform="translate(4358 229)"/>
              <circle id="Ellipse_53" data-name="Ellipse 53" class="cls-7" cx="7" cy="7" r="7" transform="translate(4358 309)"/>
              <circle id="Ellipse_63" data-name="Ellipse 63" class="cls-7" cx="7" cy="7" r="7" transform="translate(4358 389)"/>
              <circle id="Ellipse_32" data-name="Ellipse 32" class="cls-7" cx="7" cy="7" r="7" transform="translate(4479 189)"/>
              <circle id="Ellipse_49" data-name="Ellipse 49" class="cls-7" cx="7" cy="7" r="7" transform="translate(4479 269)"/>
              <circle id="Ellipse_59" data-name="Ellipse 59" class="cls-7" cx="7" cy="7" r="7" transform="translate(4479 349)"/>
              <circle id="Ellipse_42" data-name="Ellipse 42" class="cls-7" cx="7" cy="7" r="7" transform="translate(4479 229)"/>
              <circle id="Ellipse_44" data-name="Ellipse 44" class="cls-7" cx="7" cy="7" r="7" transform="translate(4479 309)"/>
              <circle id="Ellipse_54" data-name="Ellipse 54" class="cls-7" cx="7" cy="7" r="7" transform="translate(4479 389)"/>
              <circle id="Ellipse_30" data-name="Ellipse 30" class="cls-7" cx="7" cy="7" r="7" transform="translate(4398 189)"/>
              <circle id="Ellipse_50" data-name="Ellipse 50" class="cls-7" cx="7" cy="7" r="7" transform="translate(4398 269)"/>
              <circle id="Ellipse_60" data-name="Ellipse 60" class="cls-7" cx="7" cy="7" r="7" transform="translate(4398 349)"/>
              <circle id="Ellipse_40" data-name="Ellipse 40" class="cls-7" cx="7" cy="7" r="7" transform="translate(4398 229)"/>
              <circle id="Ellipse_47" data-name="Ellipse 47" class="cls-7" cx="7" cy="7" r="7" transform="translate(4398 309)"/>
              <circle id="Ellipse_57" data-name="Ellipse 57" class="cls-7" cx="7" cy="7" r="7" transform="translate(4398 389)"/>
              <circle id="Ellipse_31" data-name="Ellipse 31" class="cls-7" cx="7" cy="7" r="7" transform="translate(4520 189)"/>
              <circle id="Ellipse_51" data-name="Ellipse 51" class="cls-7" cx="7" cy="7" r="7" transform="translate(4520 269)"/>
              <circle id="Ellipse_61" data-name="Ellipse 61" class="cls-7" cx="7" cy="7" r="7" transform="translate(4520 349)"/>
              <circle id="Ellipse_43" data-name="Ellipse 43" class="cls-7" cx="7" cy="7" r="7" transform="translate(4520 229)"/>
              <circle id="Ellipse_45" data-name="Ellipse 45" class="cls-7" cx="7" cy="7" r="7" transform="translate(4520 309)"/>
              <circle id="Ellipse_55" data-name="Ellipse 55" class="cls-7" cx="7" cy="7" r="7" transform="translate(4520 389)"/>
            </g>
            <path id="Intersection_11" data-name="Intersection 11" class="cls-5" d="M-4610.983,856.22l-130.194-75.167a143.091,143.091,0,0,1,104.538-45.193A143.3,143.3,0,0,1-4521,794.371l-25.776,44.646a46.985,46.985,0,0,1-40.747,23.508,46.784,46.784,0,0,1-23.465-6.308Z" transform="matrix(-0.174, 0.985, -0.985, -0.174, 759.92, 4957.844)"/>
          </g>
        </g>
      </g>
    </g>
  </g>
</svg>
