<svg width="435" height="413" viewBox="0 0 435 413" fill="none" xmlns="http://www.w3.org/2000/svg">
<rect x="5" y="52" width="358" height="358" rx="179" fill="#FFF6F9"/>
<rect x="22.5" y="40.5" width="368" height="368" rx="184" stroke="url(#paint0_linear)" stroke-width="3"/>
<path d="M212.486 206.986C209.761 204.989 207.699 202.327 206.454 199.291C205.076 202.647 202.701 205.56 199.545 207.606C199.317 207.754 199.061 207.825 198.807 207.825C198.362 207.825 197.926 207.606 197.666 207.206C197.257 206.577 197.437 205.735 198.067 205.326C202.47 202.472 205.099 197.638 205.099 192.397C205.099 191.9 205.124 191.409 205.164 190.922C205.059 190.759 204.989 190.575 204.963 190.376C203.963 182.75 197.403 177 189.703 177C181.213 177 174.305 183.907 174.305 192.396C174.305 196.409 175.843 200.21 178.638 203.097C178.766 203.229 178.864 203.384 178.928 203.551L197.424 222.047L212.486 206.986Z" fill="#FD98B3"/>
<path d="M233.984 203.552C234.047 203.385 234.083 203.23 234.211 203.097C234.909 202.376 235.47 201.597 236 200.772C236 200.772 236 200.772 236 200.771C236 200.577 236.315 200.379 236.431 200.179C236.441 200.165 236.486 200.149 236.495 200.134C236.603 199.95 236.719 199.764 236.818 199.577C236.835 199.544 236.861 199.512 236.877 199.48C236.966 199.309 237.053 199.137 237.134 198.962C237.158 198.913 237.186 198.863 237.209 198.813C237.281 198.655 237.35 198.496 237.417 198.337C237.445 198.269 237.475 198.203 237.503 198.134C237.559 197.991 237.613 197.845 237.667 197.699C237.699 197.614 237.731 197.531 237.761 197.445C237.808 197.314 237.848 197.18 237.89 197.047C237.922 196.947 237.956 196.848 237.986 196.747C238.021 196.624 238.053 196.5 238.086 196.376C238.115 196.265 238.147 196.153 238.175 196.041C238.204 195.922 238.228 195.803 238.253 195.683C238.279 195.565 238.307 195.446 238.33 195.326C238.352 195.21 238.37 195.091 238.39 194.973C238.41 194.85 238.434 194.727 238.451 194.604C238.468 194.482 238.481 194.359 238.495 194.236C238.509 194.116 238.527 193.996 238.538 193.875C238.552 193.726 238.561 193.577 238.571 193.426C238.577 193.331 238.587 193.236 238.591 193.14C238.603 192.894 238.609 192.646 238.609 192.398C238.609 183.908 231.701 177.002 223.212 177.002C222.959 177.002 222.71 177.008 222.46 177.02C222.356 177.025 222.251 177.036 222.147 177.042C222.005 177.053 221.865 177.061 221.725 177.075C221.589 177.088 221.454 177.105 221.319 177.122C221.215 177.135 221.11 177.147 221.007 177.162C220.852 177.184 220.697 177.211 220.543 177.238C220.466 177.251 220.388 177.265 220.311 177.28C220.138 177.313 219.966 177.35 219.794 177.388C219.74 177.401 219.688 177.413 219.635 177.426C219.445 177.471 219.257 177.519 219.071 177.571C219.042 177.58 219.014 177.588 218.984 177.596C216.562 178.292 214.368 179.569 212.58 181.277C212.571 181.285 212.564 181.292 212.556 181.3C212.406 181.443 212.258 181.591 212.114 181.742C212.094 181.763 212.074 181.785 212.054 181.805C211.919 181.947 211.788 182.09 211.659 182.236C211.63 182.269 211.602 182.302 211.573 182.336C211.453 182.475 211.334 182.615 211.219 182.758C211.185 182.801 211.152 182.843 211.119 182.886C211.009 183.024 210.901 183.164 210.796 183.306C210.762 183.355 210.728 183.403 210.693 183.452C210.593 183.592 210.492 183.734 210.395 183.878C210.363 183.926 210.333 183.975 210.301 184.023C210.205 184.172 210.108 184.321 210.017 184.473C210.012 184.479 210.01 184.484 210.006 184.491C209.682 185.03 209.392 185.591 209.135 186.171C209.111 186.224 209.085 186.276 209.063 186.328C208.994 186.487 208.93 186.649 208.868 186.811C208.845 186.869 208.82 186.928 208.797 186.988C208.736 187.153 208.677 187.32 208.621 187.489C208.602 187.545 208.582 187.601 208.564 187.657C208.508 187.834 208.454 188.011 208.403 188.19C208.39 188.238 208.375 188.286 208.363 188.333C208.31 188.523 208.263 188.714 208.219 188.906C208.209 188.943 208.201 188.979 208.193 189.016C208.147 189.221 208.105 189.426 208.068 189.634C208.064 189.656 208.06 189.679 208.057 189.701C208.017 189.922 207.982 190.145 207.953 190.37C207.865 191.034 207.815 191.71 207.815 192.398C207.815 197.506 210.269 202.163 214.427 205.045L225.015 194.457C225.053 194.409 225.09 194.361 225.135 194.318C226.711 192.82 227.652 190.537 227.592 188.358C227.572 187.608 228.162 186.984 228.912 186.963C229.649 186.952 230.286 187.533 230.307 188.284C230.389 191.191 229.204 194.119 227.136 196.158C227.105 196.197 227.079 196.237 227.042 196.274L199.345 223.968L206.458 231.081L233.984 203.552Z" fill="#FF6B9B"/>
<path d="M161.213 270.765C160.552 270.955 159.818 271.048 159.075 271.048C155.464 271.048 153.36 269.199 153.36 265.56V259.277H152.09C152.09 259.277 151 259.219 151 257.527C151 256.004 151.899 255.865 151.899 255.865H153.36V253.994C153.36 253.994 153.464 252.141 155.58 252.141C157.71 252.141 157.796 253.994 157.796 253.994V255.865H160.446C160.446 255.865 161.605 256.004 161.605 257.547C161.605 259.049 160.445 259.277 160.445 259.277H157.796V265.503C157.796 266.811 158.506 267.522 159.701 267.522C160.028 267.522 160.354 267.473 160.66 267.378C160.967 267.282 161.779 267.47 162.111 268.575C162.49 269.842 161.768 270.607 161.213 270.765Z" fill="#FD98B3"/>
<path d="M174.826 257.189C175.004 258.746 174.172 259.335 173.831 259.335C171.386 259.335 169.766 260.672 169.766 263.6V269.245C169.766 269.245 169.543 270.822 167.555 270.822C165.46 270.822 165.331 269.245 165.331 269.245V257.781C165.331 257.781 165.271 255.526 167.555 255.526C169.713 255.526 169.567 257.545 169.567 257.545C170.377 256.436 171.603 255.727 173.162 255.442C173.68 255.345 174.662 255.751 174.826 257.189Z" fill="#FD98B3"/>
<path d="M191.952 264.114C191.418 264.462 190.598 264.424 190.598 264.424H180.797C181.224 266.329 182.844 267.494 185.175 267.494C186.216 267.494 187.07 267.294 187.826 266.887C188.247 266.661 189.328 266.427 190.163 267.261C190.936 268.035 190.661 269.297 190.246 269.593C188.909 270.551 187.167 271.047 185.062 271.047C179.774 271.047 176.333 267.72 176.333 263.171C176.333 258.594 179.83 255.296 184.493 255.296C188.985 255.296 192.454 258.309 192.454 263.228C192.454 263.571 192.319 263.874 191.952 264.114ZM180.74 261.836H188.274C187.962 259.903 186.511 258.652 184.522 258.652C182.503 258.652 181.052 259.875 180.74 261.836Z" fill="#FD98B3"/>
<path d="M195.145 267.822C195.675 266.598 196.799 266.731 197.328 266.939C198.515 267.408 199.909 267.694 201.207 267.694C203.254 267.694 204.022 267.154 204.022 266.301C204.022 263.799 194.781 266.357 194.781 260.245C194.781 257.345 197.398 255.299 201.861 255.299C203.268 255.299 204.777 255.515 206.055 255.913C206.688 256.109 207.491 256.979 207.005 258.217C206.579 259.299 205.3 259.302 204.82 259.135C203.805 258.784 202.807 258.653 201.861 258.653C199.871 258.653 199.018 259.279 199.018 260.075C199.018 262.691 208.259 260.16 208.259 266.189C208.259 269.031 205.615 271.05 201.037 271.05C199.26 271.05 197.47 270.714 196.062 270.2C195.421 269.965 194.547 269.205 195.145 267.822Z" fill="#FD98B3"/>
<path d="M219.379 255.493C218.867 255.493 218.314 255.493 217.802 255.493C214.19 255.493 210.531 258.078 210.531 262.741V269.183C210.531 269.183 210.739 270.685 213.003 270.685C215.075 270.685 215.306 269.268 215.306 269.268V263.258C215.306 260.571 215.672 259.147 218.634 259.147C221.553 259.147 221.99 260.571 221.99 263.258L222.002 269.393C222.002 269.393 221.894 270.687 224.031 270.687C225.935 270.687 225.918 269.396 225.918 269.396V262.741C225.919 258.078 222.99 255.493 219.379 255.493Z" fill="#FD98B3"/>
<path d="M254.918 255.493C254.406 255.493 253.852 255.493 253.34 255.493C249.73 255.493 246.082 258.078 246.082 262.741V269.183C246.082 269.183 246.025 270.685 248.288 270.685C250.361 270.685 250.326 269.268 250.326 269.268V263.258C250.326 260.571 250.953 259.147 253.914 259.147C256.834 259.147 257.4 260.571 257.4 263.258L257.477 269.393C257.477 269.393 257.674 270.687 259.81 270.687C261.714 270.687 262 269.396 262 269.396V262.741C262.001 258.078 258.529 255.493 254.918 255.493Z" fill="#FD98B3"/>
<path d="M243.437 262.093V268.91C243.437 268.91 243.414 270.822 241.383 270.822C239.31 270.822 239.286 268.917 239.286 268.917C238.461 270.31 236.869 271.05 234.623 271.05C231.041 271.05 228.908 269.059 228.908 266.416C228.908 263.715 230.813 261.838 235.476 261.838H239.002C239.002 259.934 237.864 258.824 235.476 258.824C234.53 258.824 233.565 259.009 232.705 259.337C232.116 259.562 230.889 259.75 230.294 258.737C229.62 257.593 230.631 256.438 231.302 256.171C232.732 255.602 234.409 255.299 236.072 255.299C240.736 255.298 243.437 257.457 243.437 262.093ZM239.001 265.988V264.424H235.959C233.884 264.424 233.228 265.192 233.228 266.216C233.228 267.325 234.168 268.064 235.731 268.064C237.21 268.064 238.49 267.381 239.001 265.988Z" fill="#FD98B3"/>
<rect x="1.5" y="283.5" width="128" height="128" rx="64" fill="#FFB6EC" stroke="#FCFCFC" stroke-width="3"/>
<rect x="41.5" y="259.5" width="13" height="13" rx="6.5" fill="#FFB6EC" stroke="white" stroke-width="3"/>
<path d="M76.4378 362.035L92.0112 356.845C93.6823 356.26 95.6616 356.812 96.5056 358.326C97.6519 360.381 96.6485 362.648 94.7021 363.404L70.8844 373.572C68.9365 374.43 66.8217 374.875 64.6826 374.875C61.9679 374.875 59.3034 374.16 56.9761 372.805L50.3092 368.927C48.7706 368.032 46.2605 367.53 44.4724 367.467C44.4724 367.465 44.4724 350.157 44.4724 350.157H54.5641C55.8786 350.157 57.1698 350.484 58.3145 351.11L65.0501 354.783C65.4325 354.992 65.8617 355.101 66.3004 355.101H74.5551C76.6674 355.101 78.3793 356.76 78.3793 358.808C78.3793 360.193 77.598 361.399 76.4378 362.035Z" fill="#FFCEBF"/>
<path d="M79.0819 320.236C83.9791 320.236 87.3546 324.222 87.3546 328.943C87.3546 335.19 81.2793 339.372 70.9606 348.043C61.1478 339.798 54.2609 335.473 54.2609 328.943C54.2609 324.222 57.6364 320.236 62.535 320.236C68.822 320.236 70.8077 327.187 70.8077 327.187C70.8077 327.187 72.7935 320.236 79.0819 320.236Z" fill="#FF80AC"/>
<path d="M44.4725 350.157V367.467C44.4685 368.829 43.3292 369.931 41.9231 369.931H34.2748V347.685H41.9231C43.3317 347.685 44.4725 348.791 44.4725 350.157Z" fill="#FAECD8"/>
<path d="M39.3736 351.393C38.67 351.393 38.0989 351.947 38.0989 352.629C38.0989 353.311 38.67 353.865 39.3736 353.865C40.0772 353.865 40.6483 353.311 40.6483 352.629C40.6483 351.947 40.0772 351.393 39.3736 351.393Z" fill="#99337E"/>
<path d="M91.588 355.679L79.5709 359.684C79.6241 359.397 79.654 359.105 79.654 358.808C79.654 356.082 77.367 353.864 74.5552 353.864H66.3004C66.0813 353.864 65.8652 353.81 65.6745 353.705L58.9399 350.033C57.6084 349.305 56.0952 348.921 54.5641 348.921H45.5275C45.0017 347.482 43.5846 346.449 41.923 346.449H34.2747C33.5706 346.449 33 347.002 33 347.685V369.931C33 370.614 33.5706 371.167 34.2747 371.167H41.923C43.5468 371.167 44.939 370.178 45.4917 368.789C46.9347 368.962 48.6043 369.376 49.6534 369.986L56.3198 373.865C58.8453 375.334 61.7368 376.111 64.6826 376.111C67.0169 376.111 69.2785 375.636 71.4052 374.699L95.197 364.542C97.8321 363.505 99.1332 360.44 97.627 357.739C96.5191 355.751 93.9243 354.866 91.588 355.679ZM43.1977 367.465C43.1947 368.144 42.6236 368.695 41.923 368.695H35.5494V348.921H41.923C42.6256 348.921 43.1977 349.475 43.1977 350.157V367.465ZM94.2286 362.256C94.2151 362.261 94.2017 362.267 94.1882 362.272C94.1882 362.272 70.361 372.444 70.3566 372.446C68.5615 373.238 66.6524 373.639 64.6826 373.639C62.1989 373.639 59.761 372.984 57.6318 371.745L50.965 367.867C49.5379 367.037 47.4944 366.531 45.7471 366.328V351.393H54.5641C55.6575 351.393 56.738 351.667 57.6896 352.187L64.4242 355.86C64.9948 356.171 65.6441 356.337 66.3004 356.337H74.5552C75.9608 356.337 77.1046 357.445 77.1046 358.808C77.1046 360.167 75.9603 361.28 74.5552 361.28H61.5969C60.8928 361.28 60.3222 361.834 60.3222 362.516C60.3222 363.198 60.8928 363.752 61.5969 363.752H74.5552C75.3912 363.752 76.2143 363.55 76.9447 363.173C76.9447 363.173 92.438 358.009 92.444 358.007C93.5862 357.607 94.8779 358.005 95.3843 358.914C96.1436 360.276 95.5157 361.756 94.2286 362.256Z" fill="#99337E"/>
<path d="M70.1256 348.978C70.3656 349.179 70.6628 349.279 70.9606 349.279C71.2584 349.279 71.5561 349.179 71.7956 348.978C82.196 340.238 88.6293 335.816 88.6293 328.943C88.6293 323.506 84.6593 319 79.0819 319C75.4191 319 72.6142 321.047 70.8077 324.119C69.0052 321.054 66.2033 319 62.535 319C58.2652 319 54.6956 321.683 53.4408 325.834C53.2426 326.489 53.63 327.176 54.3057 327.368C54.9814 327.56 55.6894 327.185 55.8871 326.529C56.8158 323.457 59.4249 321.472 62.535 321.472C66.1715 321.472 68.7224 324.603 69.5793 327.518C69.7322 328.053 70.2351 328.424 70.8077 328.424C71.3808 328.424 71.8833 328.053 72.0361 327.518C72.0536 327.457 73.8242 321.472 79.0819 321.472C83.0714 321.472 86.0799 324.683 86.0799 328.943C86.0799 334.441 80.5369 338.404 70.9596 346.411C65.1243 341.552 60.489 338.132 57.8545 334.786C57.4272 334.244 56.6275 334.139 56.0679 334.554C55.5082 334.968 55.4011 335.743 55.8279 336.286C58.7975 340.057 63.8107 343.67 70.1256 348.978Z" fill="#99337E"/>
<path d="M54.5427 329.888C53.8391 329.888 53.2679 330.442 53.2679 331.124C53.2679 331.806 53.8391 332.36 54.5427 332.36C55.2462 332.36 55.8174 331.806 55.8174 331.124C55.8174 330.442 55.2462 329.888 54.5427 329.888Z" fill="#99337E"/>
<rect x="305.5" y="225.5" width="128" height="128" rx="64" fill="#FFB6CE" stroke="#FCFCFC" stroke-width="3"/>
<rect x="302.5" y="338.5" width="18" height="18" rx="9" fill="#FFB6CE" stroke="white" stroke-width="3"/>
<path fill-rule="evenodd" clip-rule="evenodd" d="M360.706 314.439L348.61 303.502L347.366 302.376C346.144 301.271 344.229 301.335 343.089 302.52C341.949 303.706 342.016 305.562 343.238 306.667L357.294 319.378C358.516 320.483 360.431 320.419 361.571 319.233C362.711 318.048 362.644 316.192 361.422 315.087L360.706 314.439Z" fill="#FFC144"/>
<path fill-rule="evenodd" clip-rule="evenodd" d="M354.938 299.493L348.61 303.501L360.706 314.439C373.844 307.307 367.433 294.924 367.99 288.849C368.109 287.552 368.999 279.688 369.118 278.39C369.242 277.037 368.206 275.83 366.815 275.709C366.428 275.675 366.084 275.737 365.778 275.871L368.887 262.912C369.76 258.957 365.055 257.93 363.904 261.135C363.139 263.338 358.935 273.25 356.393 280.073C354.565 284.982 354.321 286.466 354.566 291.635L354.938 299.493Z" fill="#F5C6AF"/>
<path fill-rule="evenodd" clip-rule="evenodd" d="M370.52 288.849C371.077 294.924 364.666 307.307 377.804 314.439L389.9 303.501L383.572 299.493L383.944 291.635C384.189 286.466 383.945 284.982 382.117 280.074C379.575 273.25 375.371 263.338 374.606 261.135C373.455 257.93 368.75 258.958 369.623 262.912L372.732 275.871C372.426 275.737 372.082 275.675 371.695 275.709C370.304 275.83 369.268 277.037 369.392 278.39C369.511 279.687 370.401 287.552 370.52 288.849Z" fill="#F5C6AF"/>
<path fill-rule="evenodd" clip-rule="evenodd" d="M389.9 303.501L377.804 314.439L377.088 315.087C375.866 316.192 375.799 318.048 376.939 319.233C378.079 320.418 379.994 320.483 381.216 319.378L395.272 306.667C396.494 305.562 396.561 303.705 395.421 302.52C394.281 301.335 392.366 301.271 391.144 302.376L389.9 303.501Z" fill="#FFC144"/>
<path d="M396.355 301.676C394.737 299.993 392.008 299.901 390.273 301.47L389.76 301.934L384.881 298.843L385.22 291.692C385.47 286.405 385.204 284.717 383.318 279.653C381.858 275.734 379.867 270.837 378.267 266.902C377.122 264.086 376.133 261.654 375.816 260.74C375.815 260.736 375.813 260.732 375.812 260.728C374.978 258.404 372.786 257.664 371.052 258.135C370.393 258.314 369.756 258.685 369.255 259.231C368.754 258.685 368.117 258.314 367.458 258.135C365.724 257.664 363.532 258.404 362.698 260.728C362.697 260.732 362.695 260.736 362.694 260.74C362.44 261.471 361.746 263.198 361.034 264.954C360.776 265.591 361.099 266.31 361.755 266.56C362.412 266.81 363.153 266.497 363.411 265.86C364.246 263.802 364.854 262.278 365.112 261.537C365.446 260.614 366.184 260.361 366.769 260.52C367.378 260.685 367.926 261.33 367.64 262.642L364.656 275.08C364.017 275.531 363.396 276.278 362.882 277.473C361.403 280.912 360.159 284.581 359.469 287.537C359.314 288.204 359.746 288.867 360.434 289.018C361.122 289.169 361.805 288.75 361.961 288.083C362.62 285.26 363.815 281.74 365.24 278.426C365.908 276.873 366.484 276.924 366.701 276.943C367.394 277.003 367.907 277.603 367.845 278.281C367.787 278.919 367.531 281.242 367.284 283.49C367.024 285.85 366.778 288.08 366.718 288.74C366.569 290.36 366.863 292.327 367.174 294.409C368.075 300.445 369.19 307.913 360.879 312.903L350.673 303.674L355.636 300.53C356.015 300.29 356.234 299.874 356.214 299.436L355.841 291.579C355.606 286.608 355.819 285.261 357.594 280.494C358.055 279.257 358.591 277.862 359.233 276.231C359.484 275.592 359.154 274.876 358.495 274.632C357.836 274.388 357.098 274.709 356.846 275.348C356.199 276.993 355.658 278.402 355.192 279.653C353.306 284.717 353.039 286.405 353.29 291.692L353.628 298.843L348.749 301.934L348.237 301.471C346.501 299.901 343.773 299.993 342.154 301.676C340.536 303.358 340.631 306.004 342.366 307.573L356.422 320.283C357.25 321.032 358.304 321.403 359.356 321.403C360.508 321.403 361.658 320.958 362.504 320.078C363.288 319.263 363.698 318.201 363.658 317.087C363.626 316.2 363.311 315.365 362.76 314.678C365.932 312.66 368.076 310.167 369.255 307.123C370.433 310.167 372.577 312.66 375.749 314.678C375.198 315.365 374.883 316.2 374.851 317.087C374.811 318.201 375.221 319.263 376.005 320.078C376.851 320.958 378.001 321.403 379.153 321.403C380.205 321.403 381.259 321.032 382.087 320.283L396.143 307.573V307.573C397.879 306.003 397.974 303.358 396.355 301.676ZM360.637 318.388C359.979 319.072 358.87 319.11 358.165 318.472L344.109 305.761C343.404 305.124 343.365 304.049 344.023 303.365C344.367 303.007 344.834 302.827 345.302 302.827C345.73 302.827 346.158 302.977 346.495 303.281L360.551 315.992C360.892 316.301 361.089 316.72 361.106 317.173C361.122 317.626 360.955 318.057 360.637 318.388ZM367.407 274.547L369.255 266.843L371.103 274.547C370.388 274.699 369.754 275.045 369.255 275.52C368.756 275.045 368.122 274.699 367.407 274.547ZM369.255 289.062C369.286 289.475 369.284 289.926 369.255 290.412C369.226 289.926 369.223 289.475 369.255 289.062ZM371.336 294.409C371.647 292.327 371.941 290.36 371.792 288.739C371.731 288.08 371.486 285.85 371.226 283.489C370.979 281.242 370.723 278.918 370.665 278.281C370.602 277.603 371.116 277.003 371.809 276.942C372.026 276.924 372.602 276.873 373.27 278.426C374.695 281.74 375.89 285.26 376.549 288.083C376.704 288.75 377.388 289.168 378.076 289.018C378.764 288.867 379.196 288.204 379.04 287.537C378.351 284.58 377.107 280.912 375.628 277.473C375.114 276.278 374.492 275.531 373.853 275.08L370.87 262.642C370.584 261.33 371.132 260.685 371.741 260.52C372.326 260.361 373.064 260.615 373.397 261.537C373.737 262.514 374.688 264.852 375.891 267.81C377.485 271.73 379.468 276.609 380.915 280.494C382.691 285.261 382.904 286.608 382.668 291.578L382.296 299.436C382.275 299.874 382.495 300.29 382.873 300.53L387.836 303.674L377.63 312.902C369.32 307.913 370.435 300.445 371.336 294.409ZM394.401 305.761L380.345 318.472C379.64 319.11 378.531 319.072 377.873 318.389C377.555 318.057 377.388 317.626 377.404 317.173C377.421 316.72 377.618 316.301 377.959 315.992L392.015 303.281C392.352 302.977 392.78 302.827 393.207 302.827C393.676 302.827 394.143 303.008 394.487 303.365C395.145 304.049 395.106 305.124 394.401 305.761Z" fill="#99337E"/>
<path d="M359.614 271.731C359.778 271.8 359.948 271.832 360.116 271.832C360.612 271.832 361.083 271.551 361.291 271.081L361.291 271.08C361.569 270.452 361.268 269.724 360.62 269.455C359.972 269.185 359.22 269.477 358.943 270.105C358.665 270.734 358.965 271.462 359.614 271.731Z" fill="#99337E"/>
<rect x="75.5" y="1.5" width="128" height="128" rx="64" fill="#DAC0FF" stroke="#FCFCFC" stroke-width="3"/>
<rect x="210.5" y="50.5" width="20" height="20" rx="10" fill="#DAC0FF" stroke="white" stroke-width="3"/>
<path d="M138.853 44.8936C140.546 44.8936 141.918 43.563 141.918 41.9216C141.918 40.2802 140.546 38.9496 138.853 38.9496C137.16 38.9496 135.788 40.2802 135.788 41.9216C135.788 43.563 137.16 44.8936 138.853 44.8936Z" fill="#44C5BD"/>
<path d="M167.207 47.8696C168.9 47.8696 170.272 46.539 170.272 44.8976C170.272 43.2562 168.9 41.9255 167.207 41.9255C165.514 41.9255 164.142 43.2562 164.142 44.8976C164.142 46.539 165.514 47.8696 167.207 47.8696Z" fill="#44C5BD"/>
<path d="M163.379 68.6735C165.072 68.6735 166.444 67.3429 166.444 65.7015C166.444 64.0601 165.072 62.7295 163.379 62.7295C161.686 62.7295 160.314 64.0601 160.314 65.7015C160.314 67.3429 161.686 68.6735 163.379 68.6735Z" fill="#44C5BD"/>
<path d="M160.31 96.1644C162.003 96.1644 163.375 94.8338 163.375 93.1925C163.375 91.5511 162.003 90.2206 160.31 90.2206C158.617 90.2206 157.245 91.5511 157.245 93.1925C157.245 94.8338 158.617 96.1644 160.31 96.1644Z" fill="#44C5BD"/>
<path d="M138.853 92.4532C140.546 92.4532 141.918 91.1226 141.918 89.4812C141.918 87.8398 140.546 86.5092 138.853 86.5092C137.16 86.5092 135.788 87.8398 135.788 89.4812C135.788 91.1226 137.16 92.4532 138.853 92.4532Z" fill="#44C5BD"/>
<path d="M110.499 89.4774C112.192 89.4774 113.564 88.1468 113.564 86.5054C113.564 84.864 112.192 83.5334 110.499 83.5334C108.806 83.5334 107.434 84.864 107.434 86.5054C107.434 88.1468 108.806 89.4774 110.499 89.4774Z" fill="#44C5BD"/>
<path d="M114.327 68.6735C116.019 68.6735 117.392 67.3429 117.392 65.7015C117.392 64.0601 116.019 62.7295 114.327 62.7295C112.634 62.7295 111.261 64.0601 111.261 65.7015C111.261 67.3429 112.634 68.6735 114.327 68.6735Z" fill="#44C5BD"/>
<path d="M117.396 41.1826C119.089 41.1826 120.461 39.8519 120.461 38.2105C120.461 36.5691 119.089 35.2385 117.396 35.2385C115.703 35.2385 114.33 36.5691 114.33 38.2105C114.33 39.8519 115.703 41.1826 117.396 41.1826Z" fill="#44C5BD"/>
<path d="M150.092 54.8041H127.613V76.5987H150.092V54.8041Z" fill="#FFB954"/>
<path d="M143.451 61.2435H134.255V70.1592H143.451V61.2435Z" fill="white"/>
<path d="M134.255 71.3977H143.451C144.156 71.3977 144.728 70.8432 144.728 70.1594V61.2433C144.728 60.5595 144.156 60.005 143.451 60.005H134.255C133.549 60.005 132.978 60.5595 132.978 61.2433V70.1594C132.978 70.8432 133.549 71.3977 134.255 71.3977ZM135.532 62.4817H142.174V68.921H135.532V62.4817Z" fill="#A81A48"/>
<path d="M167.207 40.6871C164.812 40.6871 162.864 42.5759 162.864 44.8975C162.864 47.2192 164.812 49.1079 167.207 49.1079C169.601 49.1079 171.549 47.2192 171.549 44.8975C171.549 42.5759 169.601 40.6871 167.207 40.6871ZM167.207 46.6312C166.221 46.6312 165.419 45.8535 165.419 44.8975C165.419 43.9415 166.221 43.1638 167.207 43.1638C168.193 43.1638 168.995 43.9415 168.995 44.8975C168.995 45.8535 168.193 46.6312 167.207 46.6312Z" fill="#99337E"/>
<path d="M159.738 46.1321C160.074 46.1321 160.403 45.9996 160.641 45.7693C160.878 45.539 161.015 45.2195 161.015 44.8938C161.015 44.5682 160.878 44.2487 160.641 44.0183C160.403 43.7881 160.074 43.6555 159.738 43.6555C159.4 43.6555 159.071 43.788 158.833 44.0183C158.596 44.2487 158.46 44.5682 158.46 44.8938C158.46 45.2195 158.596 45.539 158.833 45.7693C159.072 45.9995 159.4 46.1321 159.738 46.1321Z" fill="#99337E"/>
<path d="M163.379 61.491C161.429 61.491 159.775 62.7438 159.228 64.463H151.369V54.804C151.369 54.1202 150.798 53.5657 150.092 53.5657H148.049V46.132H155.204C155.909 46.132 156.481 45.5774 156.481 44.8936C156.481 44.2098 155.909 43.6553 155.204 43.6553H146.771C146.066 43.6553 145.494 44.2098 145.494 44.8936V53.5657H140.13V45.9458C141.903 45.4157 143.195 43.8124 143.195 41.9216C143.195 39.6 141.247 37.7113 138.853 37.7113C136.458 37.7113 134.51 39.6 134.51 41.9216C134.51 43.8124 135.802 45.4158 137.575 45.9458V53.5657H127.613C126.908 53.5657 126.336 54.1202 126.336 54.804V56.7853H118.669V42.2357C120.444 41.7068 121.738 40.1025 121.738 38.2103C121.738 35.8887 119.79 34 117.396 34C115.001 34 113.053 35.8887 113.053 38.2103C113.053 40.0998 114.344 41.7022 116.114 42.2334V58.0237C116.114 58.7075 116.686 59.262 117.392 59.262H126.336V64.463H118.477C117.93 62.7438 116.276 61.491 114.326 61.491C111.932 61.491 109.984 63.3797 109.984 65.7013C109.984 68.023 111.932 69.9117 114.326 69.9117C116.277 69.9117 117.93 68.6588 118.477 66.9397H126.336V76.5987C126.336 77.2825 126.908 77.837 127.613 77.837H129.657V85.2707H122.502C121.796 85.2707 121.224 85.8252 121.224 86.509C121.224 87.1929 121.796 87.7474 122.502 87.7474H130.934C131.639 87.7474 132.211 87.1929 132.211 86.509V77.837H137.575V85.4568C135.802 85.987 134.51 87.5902 134.51 89.481C134.51 91.8027 136.458 93.6914 138.853 93.6914C141.247 93.6914 143.195 91.8027 143.195 89.481C143.195 87.5902 141.903 85.9868 140.13 85.4568V77.837H150.092C150.798 77.837 151.369 77.2825 151.369 76.5987V74.6173H159.036V89.167C157.261 89.6959 155.967 91.3002 155.967 93.1923C155.967 95.514 157.915 97.4027 160.31 97.4027C162.704 97.4027 164.652 95.514 164.652 93.1923C164.652 91.3029 163.362 89.7005 161.591 89.1692V73.379C161.591 72.6952 161.019 72.1407 160.314 72.1407H151.369V66.9397H159.228C159.775 68.6588 161.429 69.9117 163.379 69.9117C165.774 69.9117 167.721 68.023 167.721 65.7013C167.721 63.3797 165.773 61.491 163.379 61.491ZM138.853 40.188C139.839 40.188 140.641 40.9656 140.641 41.9216C140.641 42.8776 139.839 43.6553 138.853 43.6553C137.867 43.6553 137.065 42.8776 137.065 41.9216C137.065 40.9656 137.867 40.188 138.853 40.188ZM117.396 36.4767C118.382 36.4767 119.184 37.2543 119.184 38.2103C119.184 39.1663 118.382 39.944 117.396 39.944C116.41 39.944 115.608 39.1663 115.608 38.2103C115.608 37.2543 116.41 36.4767 117.396 36.4767ZM114.326 67.435C113.34 67.435 112.538 66.6573 112.538 65.7013C112.538 64.7453 113.34 63.9677 114.326 63.9677C115.312 63.9677 116.114 64.7453 116.114 65.7013C116.114 66.6573 115.312 67.435 114.326 67.435ZM138.853 91.2147C137.867 91.2147 137.065 90.437 137.065 89.481C137.065 88.5251 137.867 87.7474 138.853 87.7474C139.839 87.7474 140.641 88.5251 140.641 89.481C140.641 90.437 139.839 91.2147 138.853 91.2147ZM160.31 94.926C159.324 94.926 158.522 94.1483 158.522 93.1923C158.522 92.2363 159.324 91.4587 160.31 91.4587C161.296 91.4587 162.098 92.2363 162.098 93.1923C162.098 94.1483 161.296 94.926 160.31 94.926ZM148.815 75.3603H128.89V56.0423H148.815V75.3603ZM163.379 67.435C162.393 67.435 161.591 66.6573 161.591 65.7013C161.591 64.7453 162.393 63.9677 163.379 63.9677C164.365 63.9677 165.167 64.7453 165.167 65.7013C165.167 66.6573 164.365 67.435 163.379 67.435Z" fill="#99337E"/>
<path d="M110.499 82.295C108.104 82.295 106.156 84.1837 106.156 86.5054C106.156 88.827 108.104 90.7157 110.499 90.7157C112.893 90.7157 114.841 88.827 114.841 86.5054C114.841 84.1837 112.893 82.295 110.499 82.295ZM110.499 88.239C109.513 88.239 108.711 87.4614 108.711 86.5054C108.711 85.5494 109.513 84.7717 110.499 84.7717C111.485 84.7717 112.287 85.5494 112.287 86.5054C112.287 87.4614 111.485 88.239 110.499 88.239Z" fill="#99337E"/>
<path d="M117.97 85.2706C117.635 85.2706 117.305 85.403 117.067 85.6335C116.83 85.8637 116.693 86.1832 116.693 86.509C116.693 86.8348 116.83 87.1543 117.067 87.3845C117.305 87.6148 117.635 87.7475 117.97 87.7475C118.306 87.7475 118.636 87.615 118.873 87.3845C119.111 87.1543 119.248 86.8348 119.248 86.509C119.248 86.1832 119.111 85.8637 118.873 85.6335C118.636 85.4031 118.306 85.2706 117.97 85.2706Z" fill="#99337E"/>
<defs>
<linearGradient id="paint0_linear" x1="381.5" y1="225" x2="31" y2="182" gradientUnits="userSpaceOnUse">
<stop stop-color="#FFC1D5"/>
<stop offset="1" stop-color="#DAC0FF"/>
</linearGradient>
</defs>
</svg>
