<?xml version="1.0" encoding="utf-8"?>
<!-- Generator: Adobe Illustrator 16.0.0, SVG Export Plug-In . SVG Version: 6.00 Build 0)  -->
<!DOCTYPE svg PUBLIC "-//W3C//DTD SVG 1.1//EN" "http://www.w3.org/Graphics/SVG/1.1/DTD/svg11.dtd">
<svg version="1.1" id="Layer_1" xmlns="http://www.w3.org/2000/svg" xmlns:xlink="http://www.w3.org/1999/xlink" x="0px" y="0px"
	 width="731.504px" height="758.423px" viewBox="0 0 731.504 758.423" enable-background="new 0 0 731.504 758.423"
	 xml:space="preserve">
<g>
	<path fill="#FFF0F6" d="M196.075,62.318c0,0,92.057-70.668,220.488-61.497c125.994,8.997,188.49,59.996,196.99,68.996
		c9.211,9.753,83.586,40.095,56.497,307.483c-17.832,176.016-137.992,278.987-281.985,287.987S19.083,570.793,28.083,315.806
		C28.083,315.806,65.582,134.314,196.075,62.318z"/>
	<path fill="#FFB5B5" d="M212.055,440.984l-36,118l47.334,24.667l42-76c0,0-12-103.334-20.667-114.667
		C244.722,392.984,227.388,401.65,212.055,440.984z"/>
	<path fill="#E79090" d="M223.389,583.651l40.68-73.611c-13.162-6.564-28.242-13.606-29.765-12.223c0,0-11.211,38.184-38.358,71.532
		L223.389,583.651z"/>
	<path fill="#FFF0F6" d="M101.579,627.79c-5.381-10.996-0.001-22.499,37.498-4.5s89.996,52.497,131.994,59.997
		s88.495,13.499,113.994,14.999s34.497,31.499,7.499,50.998S170.575,768.783,101.579,627.79z"/>
	<path fill="#FFF0F6" d="M443.062,706.285c0,0,19.999-25.497,44.997-16.499c21.543,7.754,25.179,25.237,10.5,43.498
		C478.061,758.784,417.563,757.282,443.062,706.285z"/>
	<path fill="#FFB5B5" d="M507.926,414.499l68.556,102.569l-38.191,37.29l-62.164-60.629c0,0-18.363-102.395-13.339-115.748
		C462.787,377.981,481.885,381.271,507.926,414.499z"/>
	<path fill="#6254B6" d="M500.054,403.442c-14.407-19.633-35.582-28.125-35.582-28.125l-82.918-31h-23.5v-1h-27.5l-79,31.5
		c0,0-21,9.5-29,32.5s-21.5,69.5-21.5,69.5l62.667,39.833c0,0,10.668,35.001,12.668,55.001c1.926,19.257-5.001,79.333-5.001,79.333
		s34.505,13.834,86,15.334c68.667,2,90.667-11.334,90.667-11.334s-7.344-64.057-5.418-83.313c2-20,6.015-42.222,11.668-54.981
		c3.275-7.393,16.749-26.356,16.749-26.356l11.5,9.516l57.833-38.802C540.387,461.047,516.138,425.359,500.054,403.442z"/>
	<circle fill="#FFB5B5" cx="552.137" cy="531.235" r="27.334"/>
	<circle fill="#FFB5B5" cx="552.58" cy="530.883" r="27.334"/>
	<path fill="#FFB5B5" d="M382.054,340.458v-39.141h-51v34.38c0,1.653-0.259,3.364-0.259,5.116
		c0.003,14.227,11.663,25.758,25.89,25.754c14.227-0.003,25.372-11.538,25.369-25.765
		C382.054,340.688,382.054,340.661,382.054,340.458z"/>
	<path fill="none" stroke="#1E1247" stroke-width="2" stroke-linecap="round" stroke-linejoin="round" stroke-miterlimit="10" d="
		M322.797,346.41c1.704,17.216,16.226,30.662,33.889,30.657c17.319-0.004,31.03-12.941,33.091-29.676"/>
	<path fill="#E79090" d="M331.054,318.399c9.721,8.801,22.604,14.172,36.747,14.168c4.933-0.001,9.707-0.668,14.253-1.892v-29.358
		h-51V318.399z"/>
	<path fill="#FFB5B5" d="M421.647,233.489c-3.672-0.879-7.594,0.307-11.594,2.965v-50.137h-109v48.449
		c-3-3.566-7.355-5.289-11.586-4.277c-8.049,1.926-11.918,13.013-9.107,24.762c2.812,11.749,11.801,19.713,19.85,17.787
		c0.599-0.143,1.262-0.352,1.816-0.593c1.373,29.022,25.383,52.129,54.743,52.122c28.237-0.006,51.493-21.39,54.438-48.844
		c0.325,0.113,0.659,0.233,0.998,0.314c8.049,1.926,16.48-6.038,19.293-17.787C434.31,246.502,429.696,235.415,421.647,233.489z"/>
	<path fill="#FFFFFF" d="M335.429,276.317c0.531,11,9.887,20.42,21.38,20.417c11.491-0.003,20.839-9.417,21.37-20.417H335.429z"/>
	<path fill="#1E1247" d="M409.971,236.609c0,0,19.833-22.792,19.333-37.042s-17-13.75-18.5-12.75s-1.514,22.982-1,31.5
		C410.304,226.609,409.971,236.609,409.971,236.609z"/>
	<path fill="#1E1247" d="M302.304,235.317c0,0-14.25-15.5-18-25.75c-3.488-9.534-4-27,12.5-30.75c0,0-5.25-37.25,28-55.25
		s61-7.25,65.5-5s20.5,12,28.75,7.5s11.25-12.5,4.75-15.75c0,0,6.349,0.513,9,1.75c3.75,1.75,20.25,10.25,19.5,36.75
		s-20.25,44.25-39.25,47.5s-40.868,0.083-45.5-1.25c-18.899-5.438-40.478-11.62-53.75-8c-5.5,1.5-9,6-10.5,25.5
		C302.84,218.597,302.304,235.317,302.304,235.317z"/>
	<path fill="none" stroke="#F86980" stroke-width="2" stroke-linecap="round" stroke-linejoin="round" stroke-miterlimit="10" d="
		M349.054,258.65c0,0,7-4.333,13.333,0.334"/>
	<path fill="none" stroke="#1E1247" stroke-width="2" stroke-linecap="round" stroke-linejoin="round" stroke-miterlimit="10" d="
		M412.721,258.65c0,0,3.666-21.999,12.333-10.666"/>
	<path fill="none" stroke="#1E1247" stroke-width="2" stroke-linecap="round" stroke-linejoin="round" stroke-miterlimit="10" d="
		M301.055,258.65c0,0-3.666-21.999-12.333-10.666"/>
	<path fill="#FFB5B5" d="M157.389,446.984l14,127.334l54.794-4.153l-32.794-141.181c0,0-4.668-9.334-18.668-7.334
		C165.823,422.922,154.673,427.388,157.389,446.984z"/>
	<circle fill="#FFB5B5" cx="198.819" cy="570.989" r="27.608"/>
	<path fill="#FFB5B5" d="M192.387,427.984c0,0-1.667-13.333-3-19s-4.667-34.666-10-36s-11.333,28.333-11.333,28.333
		s-48.647-38.928-52.375-35.834c-5.625,4.668,20.375,31.501,20.375,31.501s-44.015-13.742-46-9.667
		c-3.167,6.501,40.333,22.333,40.333,22.333s-45.333-6.832-46.333-1.667c-0.99,5.116,45,14.667,45,14.667s-44.5,1.168-41.333,4.667
		c4.273,4.722,38.74,10.345,52.334,13.334c6.896,1.517,16.333,5.333,24.666,12.999C180.713,468.362,194.054,436.318,192.387,427.984
		z"/>
	<path fill="#FD98B3" d="M240.054,266.984l-32.667-2c0,0-2.667,31.334-22,44.667S76.054,342.317,76.054,342.317s-34,8.001-50-30.666
		S0.72,166.317,0.72,166.317s-7.999-65.334,29.334-82s107.302-34.095,152.666-32c43.332,2.001,34.001,59.334,33.334,67.334
		s-4.667,111.333-4.667,111.333L240.054,266.984z"/>
	<path fill="#FD98B3" d="M480.719,300.984l40-48l-6-81.333c0,0-9.334-52.667,29.333-76s120.667-40.667,120.667-40.667
		s37.999-9.332,51.333,23.334s14,130,14,130s9.334,84.666-19.333,101.333s-96.667,52-96.667,52s-55.332,20.667-68.666-13.333
		s-20-54-20-54L480.719,300.984z"/>
	<path fill="#E79090" d="M716.054,272.817c0,0-14.5-58.5-29.5-64c0,0-12,4.5-5.5,18S704.054,266.817,716.054,272.817z"/>
	<path fill="#FFB5B5" d="M566.554,269.317c0,0-6-18.5-11-23s-9-3-11-6s5-3.5,5-3.5s-16.5-8-13.5-10.5s19-0.5,27,5s13,13,13,13
		S581.554,265.817,566.554,269.317z"/>
	<g>
		<path fill="#FFFFFF" d="M97.021,195.794c0.066,0.341-0.018,0.646-0.255,0.918c-0.239,0.272-0.527,0.442-0.867,0.51l-15.9,2.649
			l1.835,35.88c0,0.815-0.408,1.223-1.224,1.223c-0.884,0-1.325-0.407-1.325-1.223c-0.407-2.039-0.851-3.823-1.325-5.352
			c-0.476-1.529-1.156-3.195-2.038-4.995c-0.884-1.801-2.039-3.482-3.466-5.045c-5.029-5.504-12.333-9.241-21.915-11.213
			c-0.068,4.077-0.068,8.562,0,13.455c0.067,4.893,0.187,9.53,0.357,13.913c0.168,4.383,0.356,8.154,0.561,11.314
			c0.203,3.16,0.407,5.079,0.611,5.759c0.339,0.815,0.102,1.358-0.714,1.631h-0.407c-0.612,0-1.02-0.272-1.224-0.815
			c-0.204-0.611-0.407-1.852-0.611-3.72c-0.204-1.87-0.374-4.112-0.51-6.728c-0.137-2.617-0.255-5.488-0.356-8.613
			c-0.103-3.126-0.171-6.269-0.204-9.429c-0.035-3.159-0.068-6.235-0.102-9.225c-0.035-2.989-0.018-5.673,0.051-8.052
			c-2.039-0.34-4.163-0.595-6.371-0.765c-2.209-0.169-4.502-0.255-6.88-0.255c-0.137,0-0.306,0.018-0.51,0.051
			c-0.204,0.035-0.407,0.051-0.611,0.051c-0.815,0-1.292-0.407-1.427-1.223c0-0.747,0.339-1.188,1.019-1.325l14.984-2.549
			c0.135-2.649,0.255-5.453,0.356-8.409c0.102-2.955,0.22-6.064,0.356-9.326c0.271-5.163,0.595-10.158,0.969-14.983
			c0.372-4.824,0.695-9.088,0.968-12.792c0.271-3.703,0.51-6.677,0.714-8.919s0.306-3.397,0.306-3.466
			c0.136-0.882,0.611-1.257,1.427-1.121c0.883,0.137,1.257,0.646,1.122,1.529c-0.408,4.484-0.749,8.579-1.02,12.282
			c-0.272,3.704-0.596,7.968-0.969,12.792c-0.374,4.826-0.697,9.82-0.968,14.983c-0.138,3.262-0.272,6.286-0.408,9.072
			c-0.137,2.787-0.239,5.437-0.306,7.95l26.604-4.485l-2.141-54.43c0-0.883,0.441-1.325,1.325-1.325
			c0.815,0,1.224,0.442,1.224,1.325l2.14,54.022l15.494-2.65C96.206,194.538,96.749,194.912,97.021,195.794z M45.343,205.682
			c0.475,0.068,0.934,0.137,1.376,0.203c0.441,0.069,0.9,0.138,1.376,0.204c0-0.339,0.033-0.611,0.103-0.815L45.343,205.682z
			 M77.45,200.381l-26.807,4.485v1.631c3.465,0.748,6.59,1.666,9.377,2.752c5.912,2.242,10.703,5.436,14.372,9.581
			c0.408,0.475,0.831,1.086,1.274,1.835c0.441,0.747,0.866,1.494,1.274,2.242c0.407,0.747,0.78,1.479,1.121,2.191
			c0.339,0.714,0.645,1.274,0.917,1.682L77.45,200.381z"/>
		<path fill="#FFFFFF" d="M103.34,214.651h-0.204c-1.427-0.068-2.701-0.628-3.822-1.682c-1.121-1.053-2.022-2.531-2.701-4.435
			c-1.154-3.466-1.528-7.882-1.121-13.251c0.204-2.446,0.543-4.755,1.02-6.931c0.475-2.174,1.086-4.042,1.835-5.606
			c0.882-1.835,1.835-2.989,2.854-3.466c1.02-0.475,1.8-0.678,2.345-0.611c1.154,0.068,2.191,0.51,3.108,1.325
			c0.918,0.815,1.613,1.903,2.09,3.262c0.543,1.36,0.696,2.94,0.459,4.74c-0.239,1.801-1.139,3.414-2.701,4.841
			c-1.427,1.36-3.024,2.431-4.791,3.211c-1.768,0.782-3.024,1.31-3.771,1.58c-0.068,1.903-0.018,3.721,0.153,5.453
			c0.169,1.733,0.492,3.279,0.968,4.638c0.951,2.787,2.345,4.248,4.18,4.383c0.407,0,0.984-0.135,1.732-0.407
			c0.747-0.271,1.631-0.951,2.65-2.039c1.02-1.086,2.174-2.649,3.466-4.688c1.29-2.038,2.717-4.857,4.28-8.46
			c0.34-0.815,0.883-1.053,1.632-0.714c0.815,0.341,1.053,0.884,0.713,1.631c-2.583,6.049-5.132,10.466-7.645,13.251
			C107.825,213.326,105.582,214.651,103.34,214.651z M103.442,181.219c-1.02,0-1.938,0.884-2.753,2.649
			c-0.611,1.292-1.139,2.905-1.579,4.842c-0.443,1.937-0.765,3.993-0.969,6.167c0.883-0.339,1.952-0.831,3.211-1.479
			c1.257-0.645,2.396-1.442,3.414-2.395c1.155-1.087,1.8-2.259,1.938-3.517c0.135-1.257,0.033-2.36-0.307-3.313
			c-0.341-0.882-0.781-1.596-1.324-2.14C104.528,181.49,103.985,181.219,103.442,181.219z"/>
		<path fill="#FFFFFF" d="M124.743,233.712c-0.68,0-1.291-0.222-1.835-0.662c-0.544-0.443-1.003-0.969-1.376-1.58
			c-0.374-0.612-0.68-1.224-0.917-1.835c-0.239-0.611-0.392-1.088-0.459-1.427c-0.884-2.787-1.699-6.864-2.446-12.231
			c-0.544-4.756-0.985-10.193-1.325-16.309c-0.341-6.116-0.509-12.604-0.509-19.469c0-5.844,0.117-11.365,0.356-16.563
			c0.237-5.198,0.594-9.836,1.07-13.914c0.204-2.174,0.441-4.093,0.713-5.759c0.271-1.664,0.577-3.073,0.918-4.229
			c0.339-1.155,0.765-2.226,1.273-3.211c0.51-0.984,1.239-1.479,2.192-1.479c1.223,0,2.242,0.51,3.058,1.529
			c0.747,1.088,1.274,2.686,1.58,4.791c0.306,2.106,0.321,4.825,0.051,8.154c-0.137,2.515-0.426,5.335-0.866,8.46
			c-0.443,3.126-1.037,6.625-1.784,10.499c-0.611,3.194-1.258,6.304-1.937,9.326c-0.68,3.024-1.292,5.692-1.835,8.001
			c-0.545,2.312-1.189,4.893-1.937,7.747c0,0.068-0.035,0.102-0.102,0.102c0.271,7.477,0.747,14.135,1.427,19.979
			c0.679,5.844,1.494,10.295,2.446,13.353c0.543,1.767,1.02,2.888,1.427,3.364c0.408,0.475,0.679,0.746,0.815,0.815
			c0.136-0.069,0.543-0.426,1.224-1.07c0.678-0.646,1.596-2.158,2.752-4.536c1.562-3.126,3.328-7.543,5.3-13.251
			c0.815-2.378,1.596-4.603,2.345-6.676c0.747-2.072,1.392-3.874,1.937-5.402c0.543-1.529,1.121-3.211,1.733-5.046
			c0.271-0.747,0.815-1.02,1.631-0.815c0.339,0.068,0.594,0.255,0.764,0.561c0.169,0.306,0.187,0.629,0.052,0.969
			c-0.612,1.834-1.19,3.517-1.733,5.045c-0.545,1.529-1.189,3.348-1.937,5.453c-0.748,2.107-1.529,4.35-2.345,6.728
			c-1.563,4.485-2.939,8.068-4.128,10.754c-1.189,2.684-2.242,4.739-3.159,6.166c-0.918,1.428-1.733,2.378-2.446,2.854
			c-0.714,0.475-1.31,0.747-1.784,0.815H124.743z M122.501,137.593c-0.068,0.068-0.204,0.272-0.408,0.611
			c-0.203,0.341-0.425,0.952-0.662,1.835c-0.239,0.884-0.494,2.106-0.765,3.669c-0.272,1.564-0.545,3.603-0.815,6.116
			c-0.407,3.466-0.73,7.458-0.968,11.977c-0.239,4.52-0.357,9.326-0.357,14.423c-0.068,1.36-0.102,2.668-0.102,3.925
			c0,1.258,0,2.532,0,3.822c0.543-2.174,1.121-4.638,1.732-7.391c0.612-2.752,1.188-5.622,1.733-8.612
			c0.747-3.805,1.341-7.253,1.783-10.346c0.441-3.092,0.729-5.861,0.866-8.308c0.271-3.873,0.237-6.591-0.102-8.154
			c-0.341-1.562-0.68-2.548-1.02-2.956C123.077,137.797,122.771,137.593,122.501,137.593z"/>
		<path fill="#FFFFFF" d="M149.003,233.712c-0.68,0-1.291-0.222-1.835-0.662c-0.544-0.443-1.003-0.969-1.376-1.58
			c-0.374-0.612-0.68-1.224-0.917-1.835c-0.239-0.611-0.392-1.088-0.459-1.427c-0.884-2.787-1.699-6.864-2.446-12.231
			c-0.544-4.756-0.985-10.193-1.325-16.309c-0.341-6.116-0.509-12.604-0.509-19.469c0-5.844,0.117-11.365,0.356-16.563
			c0.237-5.198,0.594-9.836,1.07-13.914c0.204-2.174,0.441-4.093,0.713-5.759c0.271-1.664,0.577-3.073,0.918-4.229
			c0.339-1.155,0.765-2.226,1.273-3.211c0.51-0.984,1.239-1.479,2.192-1.479c1.223,0,2.242,0.51,3.058,1.529
			c0.747,1.088,1.274,2.686,1.58,4.791c0.306,2.106,0.321,4.825,0.051,8.154c-0.137,2.515-0.426,5.335-0.866,8.46
			c-0.443,3.126-1.037,6.625-1.784,10.499c-0.611,3.194-1.258,6.304-1.937,9.326c-0.68,3.024-1.292,5.692-1.835,8.001
			c-0.545,2.312-1.189,4.893-1.937,7.747c0,0.068-0.035,0.102-0.102,0.102c0.271,7.477,0.747,14.135,1.427,19.979
			c0.679,5.844,1.494,10.295,2.446,13.353c0.543,1.767,1.02,2.888,1.427,3.364c0.408,0.475,0.679,0.746,0.815,0.815
			c0.136-0.069,0.543-0.426,1.224-1.07c0.678-0.646,1.596-2.158,2.752-4.536c1.562-3.126,3.328-7.543,5.3-13.251
			c0.815-2.378,1.596-4.603,2.345-6.676c0.747-2.072,1.392-3.874,1.937-5.402c0.543-1.529,1.121-3.211,1.733-5.046
			c0.271-0.747,0.815-1.02,1.631-0.815c0.339,0.068,0.594,0.255,0.764,0.561c0.169,0.306,0.187,0.629,0.052,0.969
			c-0.612,1.834-1.19,3.517-1.733,5.045c-0.545,1.529-1.189,3.348-1.937,5.453c-0.748,2.107-1.529,4.35-2.345,6.728
			c-1.563,4.485-2.939,8.068-4.128,10.754c-1.189,2.684-2.242,4.739-3.159,6.166c-0.918,1.428-1.733,2.378-2.446,2.854
			c-0.714,0.475-1.31,0.747-1.784,0.815H149.003z M146.761,137.593c-0.068,0.068-0.204,0.272-0.408,0.611
			c-0.203,0.341-0.425,0.952-0.662,1.835c-0.239,0.884-0.494,2.106-0.765,3.669c-0.272,1.564-0.545,3.603-0.815,6.116
			c-0.407,3.466-0.73,7.458-0.968,11.977c-0.239,4.52-0.357,9.326-0.357,14.423c-0.068,1.36-0.102,2.668-0.102,3.925
			c0,1.258,0,2.532,0,3.822c0.543-2.174,1.121-4.638,1.732-7.391c0.612-2.752,1.188-5.622,1.733-8.612
			c0.747-3.805,1.341-7.253,1.783-10.346c0.441-3.092,0.729-5.861,0.866-8.308c0.271-3.873,0.237-6.591-0.102-8.154
			c-0.341-1.562-0.68-2.548-1.02-2.956C147.337,137.797,147.031,137.593,146.761,137.593z"/>
		<path fill="#FFFFFF" d="M174.383,214.243c-1.292,0-2.566-0.271-3.822-0.815c-1.259-0.543-2.446-1.223-3.567-2.038
			c-1.122-0.815-2.123-1.749-3.008-2.804c-0.882-1.053-1.528-2.089-1.937-3.108c-0.815-1.835-1.001-3.686-0.561-5.556
			c0.443-1.868,1.444-3.583,3.007-5.146c0.612-0.612,1.224-0.612,1.835,0c0.611,0.611,0.611,1.223,0,1.834
			c-2.446,2.446-3.091,5.063-1.937,7.849c0.341,0.815,0.866,1.648,1.58,2.497c0.713,0.851,1.545,1.631,2.497,2.345
			c0.951,0.714,1.97,1.292,3.058,1.732c1.087,0.443,2.141,0.663,3.16,0.663c0.951-0.067,1.937-0.34,2.956-0.815
			c1.02-0.475,1.901-1.155,2.65-2.039c0.611-0.678,1.172-1.613,1.682-2.803c0.51-1.188,0.729-2.701,0.662-4.536
			c-1.495,0.138-2.956,0.204-4.383,0.204s-2.752-0.102-3.976-0.306c-1.427-0.204-2.565-0.543-3.414-1.02
			c-0.851-0.475-1.479-1.002-1.886-1.58c-0.408-0.576-0.663-1.137-0.765-1.682c-0.102-0.543-0.152-0.984-0.152-1.325
			c0.066-0.882,0.339-1.732,0.815-2.548c0.475-0.815,1.104-1.545,1.885-2.191c0.781-0.646,1.631-1.173,2.549-1.58
			c0.917-0.408,1.886-0.611,2.905-0.611c0.543,0,1.223,0.086,2.038,0.255c0.815,0.17,1.646,0.596,2.497,1.273
			c0.85,0.681,1.647,1.666,2.396,2.956c0.747,1.292,1.325,3.059,1.732,5.301c0.883-0.136,1.749-0.424,2.6-0.866
			c0.849-0.441,1.631-0.918,2.345-1.428c0.713-0.51,1.325-1.001,1.834-1.478c0.51-0.475,0.9-0.849,1.173-1.121
			c0.611-0.612,1.223-0.612,1.835,0c0.543,0.611,0.543,1.189,0,1.732c-0.408,0.408-0.953,0.918-1.631,1.529
			c-0.681,0.611-1.428,1.189-2.243,1.732c-0.815,0.545-1.699,1.037-2.649,1.479c-0.953,0.442-1.938,0.764-2.956,0.968
			c0.135,2.312-0.138,4.214-0.815,5.708c-0.681,1.496-1.394,2.686-2.141,3.567c-0.953,1.156-2.107,2.057-3.466,2.701
			c-1.36,0.646-2.719,1.004-4.077,1.07H174.383z M176.421,191.411h-0.102c-1.427,0.068-2.701,0.611-3.822,1.631
			s-1.75,2.005-1.886,2.956c-0.068,0.952,0.407,1.648,1.427,2.09c1.02,0.442,1.901,0.697,2.65,0.765
			c1.154,0.203,2.396,0.306,3.721,0.306s2.632-0.067,3.924-0.204c-0.407-2.65-1.189-4.587-2.345-5.811
			C178.97,191.989,177.779,191.411,176.421,191.411z"/>
	</g>
	<path fill="none" stroke="#FFFFFF" stroke-width="3" stroke-linecap="round" stroke-linejoin="round" stroke-miterlimit="10" d="
		M98.721,284.316c0,0,33.333-20,63.333-20"/>
	<path fill="none" stroke="#FFFFFF" stroke-width="3" stroke-linecap="round" stroke-linejoin="round" stroke-miterlimit="10" d="
		M69.054,294.983c0,0,23.333-21.333,52-30.667"/>
	
		<line fill="none" stroke="#1E1247" stroke-width="2" stroke-linecap="round" stroke-linejoin="round" stroke-miterlimit="10" x1="203.054" y1="469.317" x2="220.054" y2="539.65"/>
	<path fill="none" stroke="#F86980" stroke-width="2" stroke-linecap="round" stroke-linejoin="round" stroke-miterlimit="10" d="
		M136.054,396.984c0,0-3.666,15.999-2.333,27.666"/>
	<path fill="none" stroke="#F86980" stroke-width="2" stroke-linecap="round" stroke-linejoin="round" stroke-miterlimit="10" d="
		M168.054,401.317c0,0-9.667,14,3.333,27"/>
	<path fill="#FFB5B5" d="M684.054,214.317c0,0,30.5,49,32,58.5c0.795,5.037-10,22.5-23.5,5.5s-22-25-22-25
		S669.054,219.317,684.054,214.317z"/>
	<path fill="#6254B6" d="M681.554,241.317c0,0-10.75,71.5-5.25,87.5l-58.5,31.25c0,0-9.75-13.75-10.25-47.75
		S636.054,228.817,681.554,241.317z"/>
	<path fill="#1E1247" d="M643.054,113.317c0,0,30,1,38,24.5s14,94.5-7.5,126.5s-78,81-99,51s1-72.5,8-80s15.5-19.5,12-52.5
		S583.054,118.317,643.054,113.317z"/>
	<path fill="none" stroke="#40337F" stroke-width="2" stroke-linecap="round" stroke-linejoin="round" stroke-miterlimit="10" d="
		M322.721,163.317c0,0,20-22.666,66.667-11.333s60-17.667,60-17.667"/>
	<path fill="none" stroke="#40337F" stroke-width="2" stroke-linecap="round" stroke-linejoin="round" stroke-miterlimit="10" d="
		M344.055,169.984c0,0,16-10.667,48.333,0c34.735,11.46,57-9.667,57-9.667"/>
	<path fill="none" stroke="#40337F" stroke-width="2" stroke-linecap="round" stroke-linejoin="round" stroke-miterlimit="10" d="
		M661.554,139.317c0,0,14.834,127.666-33.833,170.333"/>
	<path fill="none" stroke="#40337F" stroke-width="2" stroke-linecap="round" stroke-linejoin="round" stroke-miterlimit="10" d="
		M640.054,130.317c0,0,6.166,142-46.5,192"/>
	<path fill="none" stroke="#40337F" stroke-width="2" stroke-linecap="round" stroke-linejoin="round" stroke-miterlimit="10" d="
		M615.554,142.317c0,0,8.499,117.333-44.167,167.333"/>
	<path fill="#49459B" d="M234.304,497.817l30.25,19.75l-10.75-70.75C253.804,446.817,249.554,472.817,234.304,497.817z"/>
	
		<line fill="none" stroke="#1E1247" stroke-width="2" stroke-linecap="round" stroke-linejoin="round" stroke-miterlimit="10" x1="263.721" y1="516.65" x2="257.387" y2="472.984"/>
	<path fill="#49459B" d="M522.721,471.984c0,0-58.334-16.333-73.667-25.667c0,0-53,70-44.09,218.671
		c31.763-3.14,43.091-10.004,43.091-10.004s-7.344-64.057-5.418-83.313c2-20,6.015-42.222,11.668-54.981
		c3.275-7.393,16.749-26.356,16.749-26.356l11.5,9.516l40.45-27.14L522.721,471.984z"/>
	<path fill="#FFB5B5" d="M449.524,447.239l113.714,58.984l-23.636,49.608l-120.549-85.015c0,0-6.324-4.214,0.592-16.55
		C424.04,446.429,432.227,437.64,449.524,447.239z"/>
	<path fill="#FFB5B5" d="M460.055,454.317c0,0-10.395-6.221-12.333-14.333c-2.668-11.167-10.668-28.334-13.334-34.334
		s-8.182-7.622-9,3.667c-0.834,11.5-0.333,14.667-0.333,14.667s-12.667-3.333-25.667-13s-29.148-19.067-30-17
		c-2.333,5.666,19.334,29.333,19.334,29.333s-31.333-15.333-35-14.333s14.333,19,21.333,23.333s-25-6.334-21-0.667
		c1.663,2.356,5.517,6.556,10.289,11.043c1.265,1.189,2.134,4.725,6.377,7.957c4.995,3.806,13.495,7.341,15.667,8.334
		c11.667,5.333,32.499,15.167,42.166,18.833S461.055,466.317,460.055,454.317z"/>
	
		<line fill="none" stroke="#1E1247" stroke-width="2" stroke-linecap="round" stroke-linejoin="round" stroke-miterlimit="10" x1="512.721" y1="478.984" x2="551.387" y2="497.65"/>
	<path fill="none" stroke="#F86980" stroke-width="2" stroke-linecap="round" stroke-linejoin="round" stroke-miterlimit="10" d="
		M364.344,442.693c0,0,16.377,6.957,24.71,8.957"/>
	
		<line fill="none" stroke="#F86980" stroke-width="2" stroke-linecap="round" stroke-linejoin="round" stroke-miterlimit="10" x1="375.055" y1="432.317" x2="387.804" y2="438.067"/>
	<polygon fill="#E79090" points="523.004,472.709 545.554,494.817 514.554,479.317 	"/>
	<path fill="#49459B" d="M676.69,280.843c-37.207,23.876-38.366,55.769-37.312,67.699l36.926-19.725
		C673.636,321.055,674.792,300.229,676.69,280.843z"/>
</g>
</svg>
