<?xml version="1.0" encoding="utf-8"?>
<!-- Generator: Adobe Illustrator 16.0.0, SVG Export Plug-In . SVG Version: 6.00 Build 0)  -->
<!DOCTYPE svg PUBLIC "-//W3C//DTD SVG 1.1//EN" "http://www.w3.org/Graphics/SVG/1.1/DTD/svg11.dtd">
<svg version="1.1" id="Layer_1" xmlns="http://www.w3.org/2000/svg" xmlns:xlink="http://www.w3.org/1999/xlink" x="0px" y="0px"
	 width="676.979px" height="774.977px" viewBox="0 0 676.979 774.977" enable-background="new 0 0 676.979 774.977"
	 xml:space="preserve">
<g>
	<path fill="#FFF0F6" d="M6.844,463.415c0,0-44-194,91.123-346.32C236.586-39.166,396.944,4.075,419.388,9.686
		c22.443,5.612,121.032,34.466,105.803,173.134c-15.228,138.668-56.106,130.653,15.23,309.396
		c71.338,178.745-7.643,293.425-189.164,279.738C78.844,751.415,12.457,490.666,6.844,463.415z"/>
	<path fill="#FD98B3" d="M444.219,379.04c0,0,32.479,11.379,40.895,62.278c8.417,50.897,17.636,114.22,17.636,114.22
		s12.423,53.301-5.612,56.908c-18.034,3.607-42.481-35.668-56.908-157.902C440.229,454.544,431.397,391.063,444.219,379.04z"/>
	<path fill="#E885A8" d="M437.616,425.953c0.786,15.453,2.613,28.591,2.613,28.591c5.406,45.801,12.219,79.954,19.573,104.568
		c3.79,10.625,7.435,20.283,10.497,28.3c0.495,1.047,0.99,2.052,1.486,3.028c-2.306-16.229-2.668-41.684-0.607-78.357
		C474.172,458.792,443.829,431.052,437.616,425.953z"/>
	<path fill="#FFF0F6" d="M566.88,132.724c-15.205,20.104-20.841,71.339-11.222,100.194c9.618,28.855,75.344,70.534,100.192,36.069
		C680.7,234.52,605.113,82.171,566.88,132.724z"/>
	<path fill="#FFF0F6" d="M651.18,312.355c-20.654-8.193-65.119-7.045-81.102,41.995c-11.557,35.46-23.438,98.818,60.917,215.615
		c41.681,57.711,43.365-45.484,40.878-69.734c-3.205-31.26-6.659-49.41,0.803-96.186
		C680.137,357.272,680.682,324.059,651.18,312.355z"/>
	<path fill="#9F2E00" d="M391.17,174.462c0,0,34.584,18.408,47.518,53.9c12.514,34.345,5.848,55.088,3.219,67.252
		C439.277,307.775,388.371,266.879,391.17,174.462z"/>
	<path fill="#7F2100" d="M377.708,109.076c0,0-63.321-78.55-123.438-32.061s-80.956,145.078-76.146,167.522
		s21.716,60.103,20.84,79.354c-0.803,17.633-27.252,72.941-13.627,100.994c13.627,28.053,62.521,188.363,132.256,153.094
		c69.734-35.268,12.824-110.613,24.847-174.734C354.462,339.121,399.349,251.752,377.708,109.076z"/>
	<path fill="#FD98B3" d="M303.965,388.817c0,0-80.154-22.447-85.765-17.637c-5.612,4.812-15.231,49.699,15.229,149.893
		c30.458,100.193,39.566,174.425,30.749,235.343c0,0,72.667,32.666,169.637,11.326c0,0-26.451-75.94-7.213-144.874
		c19.236-68.932,40.078-94.582,40.878-109.811c0.802-15.229-16.832-46.49-16.832-46.49s12.825-71.342-0.401-83.764
		c-13.226-12.421-38.875,0.403-58.111,6.815C392.135,389.619,361.676,408.855,303.965,388.817z"/>
	<path fill="#FFB5B5" d="M311.18,316.678c0,0-4.811,62.52-11.223,71.337c0,0,2.768,19.34,24.849,37.672
		c14.001,11.625,35.436,22.975,41.279,14.83c3.021-4.211-3.827-14.195-6.011-30.861c-6.412-48.893,7.213-53.703,7.213-53.703
		S336.829,319.884,311.18,316.678z"/>
	<path fill="#E79090" d="M311.18,316.678c0,0,9.712,38.813,47.72,58.907c1.937-17.353,8.388-19.633,8.388-19.633
		S336.829,319.884,311.18,316.678z"/>
	<path fill="#FFB5B5" d="M446.641,181.217c-1.007,16.791-15.23,49.695-14.429,65.727c0.802,16.03,10.42,98.59-32.863,109.811
		c-43.282,11.222-88.169-31.261-105.804-61.719c-6.837-11.813-37.672-79.353-2.404-126.644
		C326.409,121.1,452.342,86.107,446.641,181.217z"/>
	<path fill="none" stroke="#F86980" stroke-width="2" stroke-linecap="round" stroke-linejoin="round" stroke-miterlimit="10" d="
		M391.095,275.773c0,0,8.189-8.312,14.906-5.562"/>
	<path fill="#FFFFFF" d="M364.883,309.463c0,0,21.239-16.831,45.286-14.427l-4.408,29.657c0,0-2.402,16.03-20.84,1.603
		C366.485,311.867,364.883,309.463,364.883,309.463z"/>
	<path fill="#9F2E00" d="M291.942,221.294c0,0,24.047,3.207,43.284-7.213c0,0,38.475,13.624,64.123-10.421
		c0,0,35.268,21.642,59.315-11.222c24.045-32.864-10.762-95.535-91.377-84.965c-114.621,15.03-117.825,92.178-102.598,115.423
		C264.69,222.896,275.91,238.126,291.942,221.294z"/>
	<path fill="#FFB5B5" d="M282.325,253.354c0,0-16.031,1.604-18.437,16.032c-2.387,14.318,16.518,43.018,39.274,41.679
		C316.79,310.265,282.325,253.354,282.325,253.354z"/>
	<path fill="#FD98B3" d="M144.057,495.821c0,0,27.253-7.615,38.074-30.059c0,0,50.496,120.232,66.526,159.108
		c16.056,38.935,16.835,55.307-4.407,67.731c-21.241,12.422-47.691-10.82-59.314-59.718
		C178.611,606.274,144.057,495.821,144.057,495.821z"/>
	<path fill="#FD98B3" d="M220.595,370.499c0,0-29.167-0.917-30.85,45.168c-1.316,36.047,15.629,221.629,15.629,221.629
		s1.604,58.512,30.46,57.711c28.855-0.804,30.457-40.078,32.061-105.805C269.499,523.474,267.886,409.376,220.595,370.499z"/>
	<path fill="#FD98B3" d="M502.75,426.89c0,0,23.646,12.424,37.672,9.218c0,0-9.218,166.32-36.87,176.739
		c-14.837,5.592-34.467-12.822-20.04-80.957C497.94,463.761,502.75,426.89,502.75,426.89z"/>
	<path fill="#FFB5B5" d="M503.15,428.094c0,0,0.8-29.657,0-34.468c-0.802-4.809-4.408-23.645,5.211-33.263
		c9.618-9.618,23.646-28.456,30.057-30.86c6.412-2.404,10.821,3.207,8.417,8.417s-9.618,16.431-9.618,16.431
		s69.332,13.227,80.955,13.627c11.622,0.4,6.011,10.02,1.604,11.622c0,0,18.034-2.403,15.229,2.806
		c-2.805,5.21-23.243,12.826-23.243,12.826s20.841,0.801,16.831,4.809c-4.008,4.008-38.945,9.711-72.94,8.816
		c-15.229-0.4-15.229,27.251-15.229,27.251S522.787,440.517,503.15,428.094z"/>
	<path fill="#FFB5B5" d="M182.131,465.763c0,0-6.814-24.043-7.215-28.05c-0.4-4.009-3.606-32.862-30.059-35.269
		c-26.45-2.404-36.068-9.217-36.068-9.217s-8.016,21.643,30.859,30.059c0,0-77.75,0.399-102.196,18.834
		c0,0-8.016,9.217,35.669,2.406c0,0-44.487,21.641-30.459,23.644c14.026,2.006,43.282-6.411,43.282-6.411
		s-30.457,11.622-24.446,14.428c6.012,2.805,16.832,0.401,21.643,0c0,0-8.017,8.016,15.629,2.805
		c23.646-5.208,39.676-5.615,45.287,16.83C144.057,495.821,171.31,488.204,182.131,465.763z"/>
	<path fill="none" stroke="#96234C" stroke-width="2" stroke-linecap="round" stroke-linejoin="round" stroke-miterlimit="10" d="
		M433.815,419.276c0,0,12.023,36.871,21.643,55.307"/>
	<path fill="none" stroke="#96234C" stroke-width="2" stroke-linecap="round" stroke-linejoin="round" stroke-miterlimit="10" d="
		M307.17,437.71c0,0,55.307,53.706,74.544,11.223"/>
	<path fill="none" stroke="#96234C" stroke-width="2" stroke-linecap="round" stroke-linejoin="round" stroke-miterlimit="10" d="
		M193.344,491.665c0,0,43.291,103.947,55.313,133.206"/>
	<path fill="none" stroke="#96234C" stroke-width="2" stroke-linecap="round" stroke-linejoin="round" stroke-miterlimit="10" d="
		M493.128,482.599c0,0-14.427,65.727-14.427,80.154"/>
	
		<line fill="none" stroke="#96234C" stroke-width="2" stroke-linecap="round" stroke-linejoin="round" stroke-miterlimit="10" x1="455.458" y1="432.101" x2="450.845" y2="464.749"/>
	<path fill="none" stroke="#F86980" stroke-width="2" stroke-linecap="round" stroke-linejoin="round" stroke-miterlimit="10" d="
		M100.774,430.499c0,0,4.407,24.445,15.63,34.866"/>
	<path fill="none" stroke="#F86980" stroke-width="2" stroke-linecap="round" stroke-linejoin="round" stroke-miterlimit="10" d="
		M139.649,423.286c0,0,3.605,8.412,14.026,12.422"/>
	<path fill="none" stroke="#F86980" stroke-width="2" stroke-linecap="round" stroke-linejoin="round" stroke-miterlimit="10" d="
		M537.216,354.351c0,0-0.803,8.016-10.421,15.229"/>
	<path fill="none" stroke="#F86980" stroke-width="2" stroke-linecap="round" stroke-linejoin="round" stroke-miterlimit="10" d="
		M565.669,363.971c0,0,18.838,17.633,19.237,34.466"/>
	<path fill="none" stroke="#F86980" stroke-width="2" stroke-linecap="round" stroke-linejoin="round" stroke-miterlimit="10" d="
		M128.827,458.552c0,0,14.428-9.619,26.451-1.803"/>
	<path fill="none" stroke="#F86980" stroke-width="2" stroke-linecap="round" stroke-linejoin="round" stroke-miterlimit="10" d="
		M527.396,393.626c0,0,16.231-22.242,37.271-10.821"/>
	<path fill="#9F2E00" d="M275.11,204.461c0,0,33.664,20.04,44.885,56.11c10.86,34.904,3.209,55.305,0.002,67.327
		S267.895,296.64,275.11,204.461z"/>
	<path fill="none" stroke="#96234C" stroke-width="2" stroke-linecap="round" stroke-linejoin="round" stroke-miterlimit="10" d="
		M454.844,544.665c0,0,20-27.25,8.629-50.844"/>
	<path fill="#E885A8" d="M193.264,489.876l49.58,118.539c-7.613-26.938-44.092-145.615-52.852-174.083
		C190.542,448.833,191.751,468.483,193.264,489.876z"/>
	<path fill="#E885A8" d="M295.314,766.388c11.089-55.541,9.59-170.117-32.47-302.973l6,107c0,0-0.546,51.76-4.451,90.13
		c4.112,35.761,3.923,67.282-0.215,95.871C264.178,756.416,275.561,761.528,295.314,766.388z"/>
	<path fill="none" stroke="#96234C" stroke-width="2" stroke-linecap="round" stroke-linejoin="round" stroke-miterlimit="10" d="
		M264.689,509.049c0,0,8.817,83.36,0,146.683"/>
	<path fill="#7F2100" d="M335.226,214.081c0,0,18.619-22.666,6.118-42.166C341.344,171.915,368.108,189.247,335.226,214.081z"/>
	<path fill="#7F2100" d="M399.226,204.081c0,0,22.119-27.833,9.618-47.333C408.844,156.748,436.177,176.082,399.226,204.081z"/>
</g>
</svg>
