<svg width="40" height="33" viewBox="0 0 40 33" fill="none" xmlns="http://www.w3.org/2000/svg">
<path d="M23.3434 18.186C21.6774 16.9752 20.4167 15.3603 19.6554 13.5189C18.8128 15.5548 17.3603 17.3214 15.4308 18.5623C15.2914 18.6518 15.1346 18.6948 14.98 18.6948C14.7079 18.6948 14.4412 18.5623 14.2821 18.319C14.0324 17.9374 14.1423 17.4273 14.5274 17.1796C17.2196 15.448 18.8271 12.5164 18.8271 9.33787C18.8271 9.03651 18.8427 8.73869 18.8668 8.44308C18.8025 8.34425 18.7596 8.23213 18.7435 8.11247C18.1328 3.48697 14.1213 0 9.41376 0C4.22326 0 0 4.18853 0 9.33743C0 11.7714 0.940437 14.0759 2.64886 15.8278C2.72705 15.9085 2.78691 16.002 2.82623 16.1031L14.1343 27.3209L23.3434 18.186Z" fill="#FD98B3"/>
<path d="M36.4868 16.1031C36.5261 16.0016 36.6065 15.9085 36.6852 15.8278C37.1123 15.39 37.2843 14.9176 37.8383 14.4172C37.8383 14.4168 37.8383 14.4168 37.8383 14.4168C37.8383 14.2984 37.9714 14.1792 38.0429 14.0578C38.0483 14.0485 38.0474 14.0392 38.0527 14.0299C38.118 13.9186 38.1747 13.8056 38.235 13.6921C38.2457 13.6726 38.2538 13.6531 38.264 13.6336C38.3185 13.5304 38.3677 13.4249 38.4182 13.3194C38.4325 13.2897 38.4472 13.2592 38.4615 13.229C38.5057 13.1337 38.5464 13.0367 38.5875 12.9405C38.6049 12.8989 38.6228 12.8585 38.6398 12.8177C38.6751 12.7304 38.7072 12.6422 38.7403 12.5536C38.7595 12.5022 38.7796 12.4512 38.7975 12.3989C38.8252 12.3192 38.8506 12.2381 38.8761 12.1574C38.8953 12.0967 38.9159 12.0364 38.9342 11.9753C38.9561 11.9008 38.9753 11.825 38.9958 11.7501C39.0142 11.6823 39.0334 11.6145 39.0503 11.5467C39.0678 11.4749 39.0825 11.4022 39.0986 11.33C39.1142 11.2577 39.1312 11.1859 39.1451 11.1133C39.1589 11.0428 39.1696 10.971 39.1817 10.8997C39.1946 10.8248 39.2085 10.7503 39.2192 10.6754C39.2299 10.6014 39.2375 10.5265 39.2465 10.452C39.2554 10.3794 39.2657 10.3067 39.2728 10.2335C39.2818 10.1431 39.2867 10.0523 39.2925 9.96143C39.2965 9.90337 39.3023 9.8462 39.305 9.78815C39.3117 9.63835 39.3153 9.48811 39.3153 9.33743C39.3153 4.18853 35.0925 0 29.902 0C29.7478 0 29.5946 0.00443183 29.4422 0.0110796C29.3779 0.0141819 29.3145 0.0203864 29.2506 0.0243751C29.1648 0.0301365 29.0786 0.0358979 28.9933 0.0443183C28.9102 0.0522956 28.8275 0.062932 28.7453 0.0726821C28.6814 0.0806594 28.618 0.0877503 28.555 0.0970571C28.4598 0.110353 28.3651 0.126307 28.2713 0.143148C28.2235 0.151126 28.1761 0.159103 28.1292 0.16841C28.0233 0.188353 27.9183 0.210955 27.8138 0.234001C27.7812 0.241978 27.7486 0.248626 27.716 0.256603C27.6002 0.284081 27.485 0.313774 27.3711 0.34524C27.3536 0.350558 27.3358 0.35499 27.3179 0.360308C25.8369 0.782219 24.4957 1.5569 23.402 2.59262C23.3971 2.5975 23.3922 2.60193 23.3873 2.60636C23.2952 2.69367 23.2054 2.78319 23.1174 2.87404C23.1049 2.8869 23.0924 2.89975 23.0803 2.9126C22.9981 2.99814 22.9182 3.08544 22.8391 3.17408C22.8212 3.19402 22.8038 3.21441 22.7864 3.23435C22.7126 3.31856 22.6403 3.40409 22.5701 3.49096C22.5491 3.51622 22.529 3.54236 22.5089 3.56807C22.4419 3.65183 22.3758 3.73692 22.3119 3.82334C22.2905 3.85259 22.2699 3.88229 22.2485 3.91154C22.1859 3.99751 22.1247 4.08305 22.0657 4.17036C22.0465 4.19916 22.0282 4.22974 22.009 4.25855C21.95 4.34852 21.8906 4.43892 21.8348 4.53111C21.8325 4.5351 21.8307 4.53864 21.8285 4.54174C21.6306 4.86837 21.4532 5.20918 21.296 5.56106C21.2817 5.59253 21.2665 5.62444 21.2522 5.65635C21.2106 5.75296 21.1713 5.85046 21.1329 5.94885C21.1186 5.98475 21.1039 6.0202 21.09 6.0561C21.052 6.1567 21.0167 6.25819 20.9823 6.36012C20.9707 6.39425 20.9582 6.42837 20.9475 6.4625C20.9126 6.56931 20.88 6.677 20.8487 6.78558C20.8403 6.81439 20.8322 6.84364 20.8237 6.87244C20.792 6.98723 20.7625 7.10334 20.7357 7.21946C20.7304 7.24162 20.7254 7.26377 20.7201 7.28549C20.6924 7.40958 20.6665 7.53456 20.6437 7.66087C20.6415 7.67416 20.6388 7.6879 20.6361 7.7012C20.612 7.83592 20.5905 7.97065 20.5726 8.10715C20.519 8.51001 20.4887 8.91951 20.4887 9.33654C20.4887 12.4348 21.9889 15.2592 24.5314 17.0076L31.0037 10.5872C31.0274 10.5584 31.0497 10.5287 31.0774 10.5026C32.0402 9.59403 32.6156 8.20908 32.5785 6.8884C32.566 6.43325 32.9275 6.05433 33.3858 6.04192C33.8366 6.03483 34.2262 6.38716 34.2391 6.84275C34.2887 8.60618 33.5645 10.382 32.3006 11.6185C32.2819 11.642 32.2649 11.6664 32.243 11.6885L15.3093 28.4861L19.6577 32.8L36.4868 16.1031Z" fill="#FF6B9B"/>
</svg>
