<svg width="210" height="121" viewBox="0 0 210 121" fill="none" xmlns="http://www.w3.org/2000/svg">
<path d="M2.03566 64.9734C1.63176 64.9734 1.22429 64.8542 0.86827 64.6046C-0.0531147 63.9583 -0.276712 62.688 0.369123 61.7671C0.731768 61.2491 9.42202 48.9396 24.6582 35.2731C38.7561 22.6284 61.2931 6.50648 88.5969 1.50941C111.693 -2.71704 136.134 2.20516 149.061 12.8645C150.301 12.4708 151.597 12.0923 152.956 11.7312C172.689 6.47948 186.576 10.2282 194.752 14.2952C203.715 18.7544 207.927 24.4885 208.101 24.7299C208.76 25.6416 208.556 26.9155 207.644 27.5746C206.732 28.2341 205.459 28.0299 204.8 27.1177C204.765 27.0698 200.878 21.8395 192.731 17.8412C181.946 12.5482 168.554 11.7969 154.004 15.6684C153.483 15.8069 152.97 15.9495 152.462 16.0957C153.331 17.0583 154.113 18.0566 154.804 19.0901C158.416 24.4946 161.178 33.3229 153.834 44.6866C148.476 52.9765 141.016 56.6269 133.876 54.4511C127.227 52.4244 122.676 45.8286 122.809 38.4116C122.898 33.4288 125.361 22.0024 144.513 14.473C139.951 11.2178 133.982 8.56266 126.971 6.72396C115.246 3.64963 101.879 3.22128 89.3319 5.51735C62.9626 10.3433 41.0873 26.0119 27.3801 38.3067C12.4887 51.6635 3.79286 63.9817 3.70679 64.1045C3.30951 64.6708 2.67742 64.9734 2.03566 64.9734ZM148.151 17.4836C134.87 22.2428 127.036 29.8686 126.881 38.4845C126.781 44.0917 130.145 49.0547 135.063 50.5536C137.607 51.3273 144.194 52.0928 150.41 42.4756C155.343 34.8448 155.68 27.738 151.415 21.3536C150.515 20.0069 149.423 18.7142 148.151 17.4836Z" fill="#E6E6E6"/>
<path d="M197.959 34.4142C197.026 34.4142 196.185 33.7679 195.973 32.819C195.729 31.7214 196.421 30.6324 197.518 30.3879C201.157 29.5761 204.979 27.9421 205.449 27.0039C205.904 22.4948 200.946 14.0062 198.988 11.1046C198.359 10.172 198.606 8.90577 199.538 8.27624C200.471 7.6467 201.737 7.89373 202.367 8.82632C202.446 8.94346 204.331 11.7494 206.153 15.3758C208.7 20.4468 209.824 24.5286 209.494 27.5071C209.042 31.5721 201.588 33.6568 198.404 34.3643C198.254 34.3984 198.106 34.4142 197.959 34.4142Z" fill="#E6E6E6"/>
<path d="M5.09325 35.0925C4.5717 35.0925 4.05014 34.8933 3.65235 34.4956C2.85677 33.7 2.85677 32.4098 3.65235 31.6148C4.41278 30.8543 22.4213 12.9324 35.5417 7.40869C36.5787 6.97066 37.7731 7.45962 38.2096 8.49612C38.6461 9.53261 38.1597 10.7275 37.1227 11.164C24.7398 16.3775 6.71446 34.3153 6.53416 34.4956C6.13586 34.8933 5.61481 35.0925 5.09325 35.0925Z" fill="#E6E6E6"/>
<path d="M32.937 121C32.7139 121 32.4898 120.963 32.2738 120.889C31.7085 120.694 31.2572 120.261 31.0397 119.704C30.4377 118.164 16.293 81.8179 16.6393 68.6542C16.6556 68.0384 16.9495 67.4628 17.4395 67.089C17.8154 66.8022 55.4032 38.2398 89.226 24.7114C90.2487 24.3024 91.4125 24.7812 91.8516 25.7917C92.4979 27.281 107.659 62.4459 106.274 79.0639C106.218 79.7403 105.829 80.3444 105.235 80.6745C104.614 81.0208 43.0157 115.359 33.9755 120.715C33.6577 120.904 33.2981 121 32.937 121ZM20.7145 69.7238C21.0323 80.9694 30.9771 108.049 33.9831 115.996C46.8917 108.553 94.8088 81.823 102.276 77.6592C102.769 63.7401 91.9158 36.5448 88.8868 29.2491C58.7923 41.7232 26.2031 65.6236 20.7145 69.7238Z" fill="url(#paint0_linear)"/>
<path d="M67.4336 80.9692C50.9327 80.9692 22.435 73.0572 21.1831 72.7073C20.0992 72.4042 19.4666 71.2801 19.7697 70.1963C20.0727 69.1134 21.1958 68.5486 22.2802 68.8486C22.5817 68.9331 51.493 77.0269 67.425 77.0269C67.4672 77.0269 67.5095 77.0269 67.5518 77.0269C68.0723 73.9709 69.3044 68.1304 71.438 61.1342C75.3639 48.2587 80.2556 38.7215 85.9769 32.854C86.7623 32.0472 88.0525 32.0156 88.8577 32.801C89.6635 33.5869 89.6798 34.8684 88.8939 35.6736C76.2619 48.6301 71.3295 78.914 71.2811 79.2181C71.1293 80.1751 70.3241 80.8907 69.3553 80.932C68.737 80.9585 68.0937 80.9692 67.4336 80.9692Z" fill="url(#paint1_linear)"/>
<defs>
<linearGradient id="paint0_linear" x1="61.4984" y1="24.5654" x2="61.4984" y2="121" gradientUnits="userSpaceOnUse">
<stop stop-color="#E5CFFF"/>
<stop offset="1" stop-color="#FFAECA"/>
</linearGradient>
<linearGradient id="paint1_linear" x1="54.5833" y1="32.23" x2="54.5833" y2="80.9692" gradientUnits="userSpaceOnUse">
<stop stop-color="#E5CFFF"/>
<stop offset="1" stop-color="#FFAECA"/>
</linearGradient>
</defs>
</svg>
