<svg width="70" height="70" viewBox="0 0 70 70" fill="none" xmlns="http://www.w3.org/2000/svg">
<mask id="mask0" mask-type="alpha" maskUnits="userSpaceOnUse" x="0" y="0" width="70" height="70">
<rect width="70" height="70" fill="#C4C4C4"/>
</mask>
<g mask="url(#mask0)">
<path d="M38.1238 -14.3262C47.7488 -14.3262 55.9301 -15.0536 77.3462 -5.3565C98.7624 4.34056 112.237 22.5229 111.997 49.675C111.756 76.8269 88.205 126.688 33.7925 128.949C-12.8897 130.889 -43.4497 76.8269 -35.7497 38.2807C-28.0493 -0.26553 15.5076 -14.3262 38.1238 -14.3262Z" fill="#FFF0F6"/>
<path d="M38.1238 -14.3262C47.7489 -14.3262 55.9301 -15.0536 77.3462 -5.3565C98.7624 4.34056 112.237 22.5229 111.997 49.675C111.756 76.8269 88.205 126.688 33.7925 128.949C-12.8897 130.889 -43.4497 76.8269 -35.7497 38.2807C-28.0493 -0.26553 15.5076 -14.3262 38.1238 -14.3262Z" fill="#FFF0F6"/>
<path d="M29.1404 26.1591C29.1404 26.1591 28.7393 14.4014 35.1161 15.9771C41.4929 17.5529 49.5539 20.7045 56.6524 37.6745C63.7509 54.6445 63.39 59.7355 70.609 68.8268C77.8279 77.9179 82.3832 80.3735 88.2872 83.3863C106.944 92.9083 107.786 117.313 83.7234 130.161C59.6605 143.01 19.5176 128.247 23.3208 60.1142C23.8004 51.5136 29.1404 26.1591 29.1404 26.1591Z" fill="#AD2855"/>
<path d="M28.378 60.5842L12.6166 66.5236C12.6166 66.5236 8.64617 84.2211 11.7745 99.6153C14.9025 115.009 17.9104 116.949 15.8651 126.646C15.8651 126.646 21.3995 132.949 32.4685 133.676L32.228 60.4631L28.378 60.5842Z" fill="#6254B6"/>
<path d="M36.3199 60.5842L52.0816 66.5236C52.0816 66.5236 56.0524 84.2211 52.9241 99.6153C49.7958 115.009 46.7873 116.949 48.8326 126.646C48.8326 126.646 43.2973 132.949 32.2284 133.676L31.9878 60.4631L36.3199 60.5842Z" fill="#6254B6"/>
<path d="M52.0816 66.5239C52.0816 66.5239 58.3572 69.4107 61.2241 72.0998C64.7133 75.3726 67.2398 86.282 67.2398 86.282L78.5494 124.101L69.7664 127.374L53.7646 90.5243C53.7646 90.5243 50.519 73.0695 52.0816 66.5239Z" fill="#6254B6"/>
<path d="M29.5812 26.7658C29.5812 26.7658 30.3432 19.2305 27.0546 17.9175C24.929 17.0687 19.8353 16.7863 17.3492 24.3015C14.8625 31.8168 15.0232 45.716 14.7825 48.7865C14.5419 51.8572 15.9336 61.145 16.5471 64.544C17.6702 70.7666 28.8097 88.9213 32.0277 58.241C34.2736 36.8271 29.5812 26.7658 29.5812 26.7658Z" fill="#AD2855"/>
<path d="M12.6166 66.5239C12.6166 66.5239 8.28537 67.3726 6.90175 72.0997C5.51835 76.8271 -2.84375 108.706 -2.84375 108.706L5.93942 112.645L11.7745 99.6151C11.7747 99.6153 14.963 70.4029 12.6166 66.5239Z" fill="#6254B6"/>
<path d="M-9.70166 66.2812L-3.62571 64.7661L6.36023 109.252L-3.02401 111.615L-9.70166 66.2812Z" fill="#6254B6"/>
<path d="M19.5151 63.8169C19.5151 63.8169 15.6651 75.2111 16.6276 84.5045C17.5902 93.7977 20.3169 100.182 20.3973 103.172C20.4776 106.162 19.3546 117.959 19.3546 117.959C19.3546 117.959 27.6966 122.162 32.3486 113.919C32.3486 113.919 34.9153 91.0501 28.258 80.383C21.6005 69.7162 28.0973 60.5847 28.0973 60.5847C28.0973 60.5847 20.1571 62.443 19.5151 63.8169Z" fill="#776ECE"/>
<path d="M38.2842 120.545C38.2842 120.545 33.6319 116.828 32.6693 109.878C32.6693 109.878 32.5091 87.0098 38.6049 75.5347C44.7008 64.0598 38.4444 61.3125 38.4444 61.3125L49.8344 65.8376C49.8344 65.8376 51.5992 68.7471 49.5937 77.0703C47.5883 85.3937 43.6581 93.3917 43.6581 99.2122C43.6581 107.293 46.9469 113.111 46.9469 113.111C46.9469 113.111 43.0967 119.091 38.2842 120.545Z" fill="#776ECE"/>
<path d="M28.2582 60.0184C28.2582 60.0184 22.4025 57.8366 18.9537 61.9579C15.5046 66.0791 16.066 71.9784 18.4722 75.2916C20.8785 78.6046 24.0868 81.1909 29.0598 81.3524C34.0328 81.5139 36.3591 79.5744 39.086 76.5846C41.8132 73.5945 45.6358 72.4176 48.9519 68.3418C52.9624 63.4125 44.7006 55.9778 36.1986 59.9374C36.1988 59.9374 30.905 60.5032 28.2582 60.0184Z" fill="#776ECE"/>
<path d="M37.6421 78.3628C37.6421 78.3628 47.7489 71.8979 49.834 65.8372" stroke="#1E1247" stroke-miterlimit="10" stroke-linecap="round" stroke-linejoin="round"/>
<path d="M36.1937 61.697V52.5295H28.3491V60.9638C28.3491 61.2184 28.4214 61.4817 28.4214 61.7515C28.422 63.9421 30.2426 65.7175 32.4173 65.7169C34.5913 65.7167 36.1937 63.9404 36.1937 61.7498C36.1937 61.7321 36.1937 61.81 36.1937 61.697Z" fill="#FFB5B5"/>
<path d="M28.3491 54.9066C30.2573 56.2617 31.8291 57.0888 33.9902 57.0883C34.7444 57.0883 35.7697 56.9854 36.1937 56.7972V52.5295H28.3491V54.9066Z" fill="#E79090"/>
<path d="M45.6632 36.6563C44.915 36.4758 43.8258 36.7193 43.1898 37.265V25.8557L20.7161 26.4698V36.9186C20.2921 36.1863 19.4606 35.8328 18.5985 36.0406C16.9584 36.436 16.2911 38.712 16.864 41.1238C17.4371 43.5359 19.3291 45.1708 20.9693 44.7754C21.0914 44.7461 21.2565 44.703 21.3698 44.6539C21.6492 50.6118 26.5569 55.3553 32.5394 55.3542C38.2935 55.3527 43.0393 50.9629 43.6395 45.3269C43.7056 45.35 43.7773 45.3748 43.8468 45.3914C45.4863 45.787 47.1511 44.1521 47.7242 41.7401C48.2968 39.3276 47.3035 37.0514 45.6632 36.6563Z" fill="#FFB5B5"/>
<path d="M28.2065 45.4805C28.3147 48.0438 30.2209 49.6726 32.5628 49.6718C34.9041 49.6713 36.8091 48.0438 36.9172 45.4805H28.2065Z" fill="white"/>
<path d="M30.9824 41.8208C30.9824 41.8208 32.4091 40.9338 33.6992 41.8891" stroke="#F86980" stroke-miterlimit="10" stroke-linecap="round" stroke-linejoin="round"/>
<path d="M43.9556 41.8215C43.9556 41.8215 44.7027 37.305 46.4686 39.632" stroke="#E90000" stroke-miterlimit="10"/>
<path d="M21.2022 41.8215C21.2022 41.8215 20.4553 37.305 18.689 39.632" stroke="#E90000" stroke-miterlimit="10"/>
<path d="M29.1401 26.1592C29.1401 26.1592 27.8568 21.3914 24.2474 22.1187C21.4813 22.676 19.5551 24.7451 19.074 30.24C18.7569 33.8625 18.3118 45.0684 15.665 48.7857C15.665 48.7857 22.4027 50.2403 24.8091 33.2702C25.6815 27.1155 27.2152 23.3309 29.1401 26.1592Z" fill="#BB3965"/>
<path d="M29.4094 26.3989C29.4094 26.3989 26.8192 26.4636 26.0171 27.7158C26.0171 27.7158 26.7411 24.5481 27.7838 24.5481C28.8265 24.5481 29.4094 26.3989 29.4094 26.3989Z" fill="#7C2B12"/>
<path d="M29.3916 26.3992C29.3916 26.3992 35.1336 25.2955 36.9006 28.0189C39.0203 31.2861 39.4072 35.9375 40.1293 38.2407C40.851 40.5436 42.9364 31.8565 41.292 25.5535C39.6478 19.2504 31.0763 14.8434 29.3916 26.3992Z" fill="#7C2B12"/>
<path d="M29.3383 26.4699C29.3383 26.4699 31.2657 19.3711 35.7174 21.3913C40.1691 23.4118 39.5274 30.6441 39.9283 35.614C40.3296 40.5839 41.2517 47.7353 50.2755 49.5131C59.2991 51.2911 56.8925 38.0382 55.85 35.2099C54.8073 32.3814 48.1899 14.4014 39.2867 13.3105C28.2827 11.9621 28.7769 19.6819 29.3383 26.4699Z" fill="#BB3965"/>
<path d="M25.6105 62.8474C25.6105 62.8474 23.8461 68.9888 29.4604 69.7966" stroke="#1E1247" stroke-miterlimit="10" stroke-linecap="round" stroke-linejoin="round"/>
<path d="M25.1299 70.1203C25.1299 70.1203 35.557 77.2316 40.5303 62.8474" stroke="#1E1247" stroke-miterlimit="10" stroke-linecap="round" stroke-linejoin="round"/>
<path d="M43.7202 46.2283C43.7202 46.2283 49.1266 50.7137 54.427 47.8302" stroke="#7C2B12" stroke-miterlimit="10" stroke-linecap="round" stroke-linejoin="round"/>
<path d="M21.1405 45.1599C21.1405 45.1599 18.8083 48.3649 17.3242 48.899" stroke="#7C2B12" stroke-miterlimit="10" stroke-linecap="round" stroke-linejoin="round"/>
</g>
</svg>
