<?xml version="1.0" encoding="utf-8"?>
<!-- Generator: Adobe Illustrator 16.0.0, SVG Export Plug-In . SVG Version: 6.00 Build 0)  -->
<!DOCTYPE svg PUBLIC "-//W3C//DTD SVG 1.1//EN" "http://www.w3.org/Graphics/SVG/1.1/DTD/svg11.dtd">
<svg version="1.1" id="Layer_1" xmlns="http://www.w3.org/2000/svg" xmlns:xlink="http://www.w3.org/1999/xlink" x="0px" y="0px"
	 width="195.583px" height="181.845px" viewBox="0 0 195.583 181.845" enable-background="new 0 0 195.583 181.845"
	 xml:space="preserve">
<g>
	<circle fill="#FD98B3" cx="98.455" cy="153.342" r="28.503"/>
	<circle fill="#FFCCE1" cx="110.386" cy="153.342" r="12.594"/>
	<g>
		<path fill="#A54668" d="M191.138,62.049l-3.97,3.195c0,0,5.401,3.141,0.963,8.621c0,0-2.214,3.521-6.194,0.902
			c-4.625-1.147-3.613-5.143-3.613-5.143c1.017-6.979,6.988-5.142,6.988-5.142l-0.346-5.085c0,0-9.02-2.146-10.916,6.221
			s3.469,11.93,3.469,11.93l3.095,0.36l2.241,1.923c0,0,6.257,1.525,11.118-5.543C198.834,67.22,191.138,62.049,191.138,62.049z"/>
		<polygon fill="#E5779A" points="173.208,78.715 174.978,73.578 187.957,79.766 185.802,86.172 		"/>
		<path fill="#FFCCE1" d="M146.031,104.07c0,0,21.984,0.379,26.846-21.465l11.488,4.916c0,0-8.814,42.166-43.295,38.195
			L146.031,104.07z"/>
		
			<rect x="138.985" y="98.196" transform="matrix(0.9919 0.1271 -0.1271 0.9919 15.6748 -17.2909)" fill="#A54668" width="8.627" height="31.918"/>
		<polygon fill="#A54668" points="168.568,82.605 186.796,91.644 189.116,84.674 171.55,75.233 		"/>
		<g>
			<path fill="#FD98B3" d="M151.157,125.506c0.583-0.096,1.173-0.184,1.738-0.308l2.136-22.692
				c-0.635,0.208-1.256,0.393-1.853,0.548L151.157,125.506z"/>
			<path fill="#FD98B3" d="M160.378,100.153c-0.572,0.325-1.145,0.629-1.714,0.901l1.905,21.361
				c0.553-0.285,1.098-0.579,1.627-0.892L160.378,100.153z"/>
			<path fill="#FD98B3" d="M170.875,88.637c-0.277,0.611-0.572,1.197-0.88,1.762l9.14,11.539c0.288-0.586,0.564-1.163,0.826-1.733
				L170.875,88.637z"/>
			<path fill="#FD98B3" d="M170.171,115.103c0.461-0.486,0.916-0.977,1.352-1.479l-5.162-18.169
				c-0.471,0.505-0.955,0.978-1.447,1.424L170.171,115.103z"/>
		</g>
	</g>
	<g>
		<path fill="#A54668" d="M4.445,62.049l3.971,3.195c0,0-5.401,3.141-0.963,8.621c0,0,2.214,3.521,6.193,0.902
			c4.626-1.147,3.613-5.143,3.613-5.143c-1.016-6.979-6.988-5.142-6.988-5.142l0.347-5.085c0,0,9.019-2.146,10.915,6.221
			s-3.469,11.93-3.469,11.93l-3.095,0.36l-2.241,1.923c0,0-6.257,1.525-11.118-5.543C-3.25,67.22,4.445,62.049,4.445,62.049z"/>
		<polygon fill="#E5779A" points="22.376,78.715 20.606,73.578 7.627,79.766 9.782,86.172 		"/>
		<path fill="#FFCCE1" d="M49.552,104.07c0,0-21.984,0.379-26.845-21.465l-11.489,4.916c0,0,8.814,42.166,43.295,38.195
			L49.552,104.07z"/>
		
			<rect x="47.971" y="98.196" transform="matrix(-0.9919 0.1271 -0.1271 -0.9919 118.6573 220.7366)" fill="#A54668" width="8.627" height="31.918"/>
		<polygon fill="#A54668" points="27.016,82.605 8.788,91.644 6.467,84.674 24.033,75.233 		"/>
		<g>
			<path fill="#FD98B3" d="M44.427,125.506c-0.584-0.096-1.174-0.184-1.738-0.308l-2.137-22.692
				c0.635,0.208,1.256,0.393,1.854,0.548L44.427,125.506z"/>
			<path fill="#FD98B3" d="M35.205,100.153c0.572,0.325,1.145,0.629,1.714,0.901l-1.905,21.361
				c-0.552-0.285-1.098-0.579-1.627-0.892L35.205,100.153z"/>
			<path fill="#FD98B3" d="M24.708,88.637c0.277,0.611,0.572,1.197,0.881,1.762l-9.14,11.539c-0.289-0.586-0.565-1.163-0.827-1.733
				L24.708,88.637z"/>
			<path fill="#FD98B3" d="M25.412,115.103c-0.461-0.486-0.916-0.977-1.352-1.479l5.163-18.169c0.471,0.505,0.954,0.978,1.447,1.424
				L25.412,115.103z"/>
		</g>
	</g>
	<polygon fill="#E5779A" points="57.676,151.575 63.504,158.865 132.015,158.865 137.843,151.575 	"/>
	<rect x="77.775" y="79.766" fill="#A54668" width="39.955" height="9.816"/>
	<path fill="#FD98B3" d="M134.628,70.398c0,0,5.867-64.531-36.875-70.398H97.75C55.009,5.867,60.875,70.398,60.875,70.398H134.628z"
		/>
	<path fill="#E5779A" d="M130.227,70.398c0,0,5.065-59.879-31.839-65.323h-0.003C61.48,10.52,66.546,70.398,66.546,70.398H130.227z"
		/>
	<g>
		<g>
			<circle fill="#FFCCE1" cx="68.262" cy="40.035" r="23.069"/>
			<circle fill="#FD98B3" cx="68.262" cy="40.035" r="19.264"/>
			<circle fill="#FCF4FB" cx="68.262" cy="40.035" r="15.935"/>
			<circle fill="#E5779A" cx="68.262" cy="40.035" r="9.513"/>
		</g>
		<g>
			<circle fill="#FFCCE1" cx="127.243" cy="40.035" r="23.069"/>
			<circle fill="#FD98B3" cx="127.243" cy="40.035" r="18.788"/>
			<circle fill="#FCF4FB" cx="127.243" cy="40.035" r="15.935"/>
			<circle fill="#E5779A" cx="127.242" cy="40.035" r="9.512"/>
		</g>
	</g>
	<g>
		<rect x="53.993" y="67.861" fill="#FFCCE1" width="87.519" height="14.744"/>
		<rect x="53.993" y="66.434" fill="#FFCCE1" width="87.519" height="1.428"/>
		<rect x="62.237" y="67.861" fill="#FD98B3" width="72.616" height="14.744"/>
		<rect x="88.556" y="67.861" fill="#E5779A" width="6.659" height="14.744"/>
		<rect x="98.862" y="67.861" fill="#E5779A" width="20.612" height="14.744"/>
	</g>
	<path fill="#FCF4FB" d="M110.277,18.473c-0.562,0-1.126-0.197-1.58-0.601c-3.748-3.333-6.734-4.239-6.764-4.249
		c-1.254-0.369-1.982-1.684-1.621-2.938c0.359-1.257,1.656-1.989,2.916-1.638c0.16,0.045,3.991,1.146,8.63,5.27
		c0.981,0.873,1.07,2.377,0.196,3.358C111.585,18.203,110.933,18.473,110.277,18.473z"/>
	<path fill="#FCF4FB" d="M103.132,61.994h-9.932c-1.053,0-1.914-0.861-1.914-1.913v-1.247c0-1.052,0.861-1.913,1.914-1.913h9.932
		c1.053,0,1.913,0.861,1.913,1.913v1.247C105.045,61.133,104.185,61.994,103.132,61.994z"/>
	<rect x="52.207" y="87.521" fill="#FFCCE1" width="91.092" height="4.122"/>
	<polygon fill="#FD98B3" points="137.829,151.575 57.676,151.575 50.066,94.498 52.207,91.644 143.298,91.644 145.439,94.498 	"/>
	<g>
		<g>
			<circle fill="#E5779A" cx="60.672" cy="100.479" r="2.486"/>
			<circle fill="#E5779A" cx="65.809" cy="143.73" r="2.485"/>
		</g>
		<g>
			<circle fill="#E5779A" cx="134.912" cy="100.479" r="2.486"/>
			<circle fill="#E5779A" cx="129.774" cy="143.73" r="2.486"/>
		</g>
	</g>
	<path fill="#FCF4FB" d="M122.139,130.143H73.444c-1.196,0-2.167-0.971-2.167-2.168v-12.017c0-1.196,0.971-2.167,2.167-2.167h48.695
		c1.196,0,2.167,0.971,2.167,2.167v12.017C124.306,129.172,123.335,130.143,122.139,130.143z"/>
	<path fill="#E5779A" d="M122.139,127.049H73.444c-1.196,0-2.167-0.971-2.167-2.167v-12.017c0-1.197,0.971-2.167,2.167-2.167h48.695
		c1.196,0,2.167,0.97,2.167,2.167v12.017C124.306,126.078,123.335,127.049,122.139,127.049z"/>
</g>
</svg>
