<svg width="22" height="25" viewBox="0 0 22 25" fill="none" xmlns="http://www.w3.org/2000/svg">
<path d="M0.446892 0.893066C0.159816 1.27244 0 1.73913 0 2.23855V22.0061C0 22.47 0.138359 22.9058 0.388256 23.2698L11.144 12.0509L0.446892 0.893066Z" fill="white"/>
<path d="M12.1287 11.0234L15.618 7.3839L3.35267 0.302628C2.82032 -0.00479479 2.20955 -0.0776737 1.63965 0.0825119L12.1287 11.0234Z" fill="white"/>
<path d="M12.1288 13.0776L1.53381 24.129C1.76225 24.2057 1.99865 24.2444 2.23523 24.2444C2.61904 24.2444 3.00304 24.1434 3.35283 23.9414L15.7063 16.8091L12.1288 13.0776Z" fill="white"/>
<path d="M20.4721 10.1861L16.8862 8.11572L13.1139 12.0503L16.9743 16.0771L20.4721 14.0576C21.172 13.6536 21.5898 12.9298 21.5898 12.1218C21.5898 11.3137 21.172 10.5901 20.4721 10.1861Z" fill="white"/>
</svg>
