<svg width="22" height="16" viewBox="0 0 22 16" fill="none" xmlns="http://www.w3.org/2000/svg">
<path d="M21.0444 1.32292C20.2539 0.383284 18.7945 0 16.0074 0H5.89025C3.03936 0 1.55525 0.408008 0.767769 1.40839C0 2.38376 0 3.8209 0 5.80994V9.60103C0 13.4544 0.910953 15.4109 5.89025 15.4109H16.0075C18.4245 15.4109 19.7638 15.0727 20.6302 14.2435C21.5188 13.3931 21.8979 12.0047 21.8979 9.60103V5.80994C21.8979 3.71233 21.8385 2.26672 21.0444 1.32292ZM14.0585 8.22888L9.46435 10.63C9.36164 10.6836 9.24932 10.7103 9.13715 10.7103C9.01014 10.7103 8.88342 10.6761 8.77117 10.6081C8.55982 10.4801 8.43076 10.251 8.43076 10.0039V5.21714C8.43076 4.97047 8.55947 4.7416 8.77039 4.61347C8.98139 4.48533 9.24381 4.47657 9.46272 4.5903L14.0569 6.9759C14.2906 7.09725 14.4374 7.33855 14.4378 7.60182C14.4381 7.8653 14.2919 8.10696 14.0585 8.22888Z" fill="white"/>
</svg>
