<svg width="23" height="23" viewBox="0 0 23 23" fill="none" xmlns="http://www.w3.org/2000/svg">
<path fill-rule="evenodd" clip-rule="evenodd" d="M11.2233 22.2694H11.2278C17.364 22.2694 22.3594 17.276 22.362 11.1387C22.3631 8.16468 21.2061 5.36808 19.1038 3.26411C17.0018 1.16042 14.2061 0.00113544 11.2278 0C5.09075 0 0.0959448 4.99282 0.0933901 11.1299C0.0925385 13.0916 0.60519 15.0066 1.57968 16.6944L0 22.4624L5.90231 20.9145C7.52854 21.8013 9.35973 22.2686 11.2233 22.2694ZM1.97323 11.1307C1.9755 6.02975 6.12695 1.88 11.2316 1.88C13.7032 1.88085 16.0269 2.84456 17.774 4.59314C19.5212 6.34172 20.4829 8.66596 20.4821 11.1381C20.4798 16.2394 16.3283 20.3894 11.2276 20.3894H11.224C9.56337 20.3888 7.93458 19.9429 6.51386 19.0998L6.17578 18.8994L2.67323 19.818L3.60826 16.404L3.38827 16.054C2.46203 14.581 1.97266 12.8787 1.97323 11.1307ZM14.7972 16.4307C15.3317 16.3506 16.443 15.7576 16.6749 15.1082C16.9068 14.4584 16.9068 13.9018 16.837 13.7857C16.7811 13.6923 16.6502 13.629 16.4564 13.5353C16.4093 13.5125 16.3584 13.4879 16.3039 13.4606C16.0257 13.3216 14.6581 12.6485 14.4029 12.556C14.148 12.4632 13.9624 12.4166 13.777 12.6951C13.5916 12.9735 13.0583 13.6 12.8962 13.7857C12.7338 13.971 12.5714 13.9943 12.2935 13.8552C12.2479 13.8324 12.1857 13.8054 12.1089 13.7721C11.717 13.6021 10.9447 13.267 10.0561 12.4748C9.22926 11.7373 8.67063 10.8264 8.50854 10.5482C8.3631 10.2988 8.47708 10.1635 8.59117 10.028C8.60445 10.0122 8.61773 9.99647 8.6306 9.98052C8.92497 9.61548 9.23324 9.21495 9.32606 9.02931C9.4186 8.84366 9.37233 8.68129 9.30278 8.54192C9.25628 8.4489 8.99208 7.80601 8.75278 7.22371C8.63423 6.93523 8.52179 6.66162 8.44496 6.47712C8.24571 5.99817 8.04358 5.99941 7.88137 6.0004C7.85986 6.00053 7.83905 6.00066 7.81905 5.99966C7.65696 5.99172 7.47132 5.99001 7.28596 5.99001C7.1006 5.99001 6.79914 6.05956 6.54395 6.33803C6.52767 6.35579 6.5095 6.37517 6.48974 6.39623C6.20017 6.70501 5.5703 7.37665 5.5703 8.65802C5.5703 10.0194 6.55602 11.3347 6.70388 11.532L6.70631 11.5352C6.71543 11.5474 6.73178 11.5708 6.75516 11.6043C7.0885 12.0822 8.85098 14.6089 11.4587 15.7347C12.1227 16.0211 12.6407 16.1922 13.0449 16.3205C13.7114 16.532 14.3177 16.5022 14.7972 16.4307Z" fill="white"/>
</svg>
