<svg width="25" height="20" viewBox="0 0 25 20" fill="none" xmlns="http://www.w3.org/2000/svg">
<path d="M1.77368 5C1.77368 3.067 3.34068 1.5 5.27368 1.5H19.9781C21.9111 1.5 23.4781 3.067 23.4781 5V15C23.4781 16.933 21.9111 18.5 19.9781 18.5H5.27368C3.34068 18.5 1.77368 16.933 1.77368 15V5Z" stroke="#FFACC8" stroke-width="3"/>
<mask id="mask0" mask-type="alpha" maskUnits="userSpaceOnUse" x="0" y="0" width="25" height="20">
<path d="M0.273682 5C0.273682 2.23858 2.51226 0 5.27368 0H19.9781C22.7395 0 24.9781 2.23858 24.9781 5V15C24.9781 17.7614 22.7395 20 19.9781 20H5.27368C2.51226 20 0.273682 17.7614 0.273682 15V5Z" fill="#C4C4C4"/>
</mask>
<g mask="url(#mask0)">
<path d="M10.4688 -8.12321C11.8979 -9.4248 14.2149 -9.4248 15.644 -8.12321L23.7785 -0.7146C25.2076 0.586988 25.2076 2.69728 23.7785 3.99887L15.644 11.4075C14.2149 12.7091 11.8979 12.7091 10.4688 11.4075L2.33431 3.99887C0.905204 2.69728 0.905203 0.586989 2.33431 -0.714595L10.4688 -8.12321Z" stroke="#FFACC8" stroke-width="3"/>
</g>
</svg>
