<svg width="22" height="22" viewBox="0 0 22 22" fill="none" xmlns="http://www.w3.org/2000/svg">
<path d="M21.9121 6.48773C21.8607 5.32026 21.6719 4.51764 21.4014 3.82215C21.1224 3.08391 20.6932 2.42296 20.1308 1.87352C19.5814 1.31552 18.9161 0.881931 18.1864 0.607291C17.4869 0.336843 16.6885 0.14805 15.521 0.0965757C14.3448 0.0407424 13.9714 0.027832 10.9883 0.027832C8.00512 0.027832 7.63173 0.0407424 6.4599 0.0922164C5.29243 0.14369 4.4898 0.332652 3.79449 0.602932C3.05608 0.881931 2.39513 1.31116 1.84568 1.87352C1.28769 2.42296 0.854266 3.08827 0.579459 3.81796C0.309011 4.51764 0.120218 5.3159 0.0687437 6.48337C0.0129104 7.65956 0 8.03295 0 11.0161C0 13.9992 0.0129104 14.3726 0.0643844 15.5445C0.115858 16.7119 0.30482 17.5146 0.575267 18.21C0.854266 18.9483 1.28769 19.6092 1.84568 20.1587C2.39513 20.7167 3.06044 21.1503 3.79013 21.4249C4.4898 21.6953 5.28807 21.8841 6.45571 21.9356C7.62737 21.9873 8.00093 22 10.9841 22C13.9672 22 14.3406 21.9873 15.5124 21.9356C16.6799 21.8841 17.4825 21.6953 18.1778 21.4249C19.6545 20.854 20.822 19.6865 21.3929 18.21C21.6632 17.5104 21.8521 16.7119 21.9036 15.5445C21.9551 14.3726 21.968 13.9992 21.968 11.0161C21.968 8.03295 21.9636 7.65956 21.9121 6.48773ZM19.9335 15.4586C19.8862 16.5317 19.706 17.1111 19.5557 17.4975C19.1865 18.4547 18.4268 19.2144 17.4696 19.5836C17.0833 19.7338 16.4997 19.914 15.4308 19.9612C14.2719 20.0128 13.9243 20.0255 10.9926 20.0255C8.06095 20.0255 7.70902 20.0128 6.55429 19.9612C5.48122 19.914 4.90176 19.7338 4.51546 19.5836C4.03911 19.4075 3.60552 19.1285 3.25359 18.7637C2.88874 18.4074 2.60975 17.9782 2.4337 17.5018C2.28346 17.1155 2.10322 16.5317 2.05611 15.463C2.00447 14.3041 1.99172 13.9563 1.99172 11.0246C1.99172 8.09298 2.00447 7.74104 2.05611 6.58649C2.10322 5.51341 2.28346 4.93395 2.4337 4.54765C2.60975 4.07114 2.88874 3.63772 3.25795 3.28561C3.61407 2.92077 4.0433 2.64177 4.51982 2.46589C4.90612 2.31566 5.48994 2.13541 6.55865 2.08813C7.71757 2.03666 8.06531 2.02375 10.9968 2.02375C13.9328 2.02375 14.2804 2.03666 15.4351 2.08813C16.5082 2.13541 17.0877 2.31566 17.474 2.46589C17.9503 2.64177 18.3839 2.92077 18.7358 3.28561C19.1007 3.64191 19.3797 4.07114 19.5557 4.54765C19.706 4.93395 19.8862 5.5176 19.9335 6.58649C19.985 7.7454 19.9979 8.09298 19.9979 11.0246C19.9979 13.9563 19.985 14.2997 19.9335 15.4586Z" fill="white"/>
<path d="M10.9884 5.37158C7.87225 5.37158 5.34399 7.89967 5.34399 11.0159C5.34399 14.1322 7.87225 16.6603 10.9884 16.6603C14.1046 16.6603 16.6327 14.1322 16.6327 11.0159C16.6327 7.89967 14.1046 5.37158 10.9884 5.37158ZM10.9884 14.6773C8.96679 14.6773 7.327 13.0377 7.327 11.0159C7.327 8.99421 8.96679 7.35459 10.9884 7.35459C13.0101 7.35459 14.6497 8.99421 14.6497 11.0159C14.6497 13.0377 13.0101 14.6773 10.9884 14.6773V14.6773Z" fill="white"/>
<path d="M18.1737 5.14827C18.1737 5.87594 17.5836 6.46597 16.8558 6.46597C16.1281 6.46597 15.5381 5.87594 15.5381 5.14827C15.5381 4.42042 16.1281 3.83057 16.8558 3.83057C17.5836 3.83057 18.1737 4.42042 18.1737 5.14827V5.14827Z" fill="white"/>
</svg>
