<?xml version="1.0" encoding="utf-8"?>
<!-- Generator: Adobe Illustrator 16.0.0, SVG Export Plug-In . SVG Version: 6.00 Build 0)  -->
<!DOCTYPE svg PUBLIC "-//W3C//DTD SVG 1.1//EN" "http://www.w3.org/Graphics/SVG/1.1/DTD/svg11.dtd">
<svg version="1.1" id="Capa_1" xmlns="http://www.w3.org/2000/svg" xmlns:xlink="http://www.w3.org/1999/xlink" x="0px" y="0px"
	 width="1024px" height="1024px" viewBox="0 0 1024 1024" enable-background="new 0 0 1024 1024" xml:space="preserve">
<rect x="20" y="432" fill="#FFCCE1" width="984" height="320"/>
<g>
	<path fill="#FFF0F6" d="M20,752v120c0,22.1,17.9,40,40,40h904c22.1,0,40-17.9,40-40V752H20z"/>
	<path fill="#FFF0F6" d="M964,272H732l-68.94-137.88C656.28,120.56,642.42,112,627.28,112H396.72c-15.14,0-29,8.56-35.778,22.12
		L292,272h-72v-40c0-22.1-17.9-40-40-40h-40c-22.1,0-40,17.9-40,40v40H60c-22.1,0-40,17.9-40,40v120h984V312
		C1004,289.9,986.1,272,964,272z"/>
</g>
<path fill="#FFCCE1" d="M752,592c0,132.27-107.236,240-240,240c-132.788,0-240-107.756-240-240c0-132.27,107.236-240,240-240
	C644.788,352,752,459.756,752,592z"/>
<path fill="#FFFFFF" d="M512,432c88.22,0,160,71.78,160,160s-71.78,160-160,160s-160-71.78-160-160S423.78,432,512,432z"/>
<path fill="#FD98B3" d="M804,372c11.04,0,20-8.96,20-20s-8.96-20-20-20s-20,8.96-20,20S792.96,372,804,372z"/>
<path fill="#FD98B3" d="M964,252H744.36l-63.412-126.826C670.714,104.712,650.15,92,627.28,92H396.72
	c-22.874,0-43.438,12.712-53.668,33.176L279.64,252H240v-20c0-33.084-26.916-60-60-60h-40c-33.084,0-60,26.916-60,60v20H60
	c-33.084,0-60,26.916-60,60c0,54.35,0,538.858,0,560c0,33.084,26.916,60,60,60h904c33.084,0,60-26.916,60-60
	c0-54.35,0-538.858,0-560C1024,278.916,997.084,252,964,252z M40,451.8h252.902C266.322,493.322,252,541.984,252,592
	c0,50.02,14.324,98.486,40.9,140H40V451.8z M292,592c0-122.41,99.58-220,220-220c120.266,0,220,97.438,220,220
	c0,122.424-99.594,220-220,220C391.486,812,292,714.316,292,592z M772,592c0-50.018-14.322-98.478-40.902-140H984v280H731.098
	C757.678,690.479,772,642.018,772,592z M378.83,143.064C382.242,136.24,389.096,132,396.72,132H627.28
	c7.624,0,14.479,4.24,17.892,11.064L699.64,252H324.36L378.83,143.064z M120,232c0-11.028,8.972-20,20-20h40
	c11.028,0,20,8.972,20,20v20h-80V232z M60,292c18.162,0,875.884,0,904,0c11.028,0,20,8.972,20,20v100H699.548
	C650.68,361.056,582.852,332,512,332c-70.86,0-138.694,29.064-187.55,80H40V312C40,300.972,48.972,292,60,292z M964,892H60
	c-11.028,0-20-8.972-20-20V772h284.452c48.87,50.944,116.698,80,187.548,80c70.862,0,138.696-29.064,187.55-80H984v100
	C984,883.028,975.028,892,964,892z"/>
<path fill="#FD98B3" d="M572,172H452c-11.046,0-20,8.954-20,20s8.954,20,20,20h120c11.044,0,20-8.954,20-20S583.044,172,572,172z"/>
<path fill="#FD98B3" d="M512,772c99.252,0,180-80.748,180-180s-80.748-180-180-180s-180,80.748-180,180S412.748,772,512,772z
	 M512,452c77.196,0,140,62.804,140,140s-62.804,140-140,140s-140-62.804-140-140S434.804,452,512,452z"/>
<path fill="#FD98B3" d="M432,612c11.046,0,20-8.954,20-20c0-33.084,26.916-60,60-60c11.044,0,20-8.954,20-20s-8.956-20-20-20
	c-55.14,0-100,44.86-100,100C412,603.046,420.954,612,432,612z"/>
<path fill="#FD98B3" d="M884,372h40c11.044,0,20-8.954,20-20s-8.956-20-20-20h-40c-11.044,0-20,8.954-20,20S872.956,372,884,372z"/>
</svg>
