<?xml version="1.0" encoding="utf-8"?>
<!-- Generator: Adobe Illustrator 16.0.0, SVG Export Plug-In . SVG Version: 6.00 Build 0)  -->
<!DOCTYPE svg PUBLIC "-//W3C//DTD SVG 1.1//EN" "http://www.w3.org/Graphics/SVG/1.1/DTD/svg11.dtd">
<svg version="1.1" id="Layer_1" xmlns="http://www.w3.org/2000/svg" xmlns:xlink="http://www.w3.org/1999/xlink" x="0px" y="0px"
	 width="482px" height="482px" viewBox="0 0 482 482" enable-background="new 0 0 482 482" xml:space="preserve">
<rect fill="#FFAEC7" width="482" height="482"/>
<path fill="#FFAEC7" d="M417,469c0,6.627-5.373,12-12,12H78c-6.627,0-12-5.373-12-12V12c0-6.627,5.373-12,12-12h327
	c6.627,0,12,5.373,12,12V469z"/>
<g>
	<path fill="#FFE6F0" d="M238.757,233.535c25.249,0,47.114-9.057,64.978-26.926c17.865-17.863,26.921-39.723,26.921-64.975
		c0-25.244-9.056-47.105-26.923-64.977c-17.867-17.861-39.729-26.916-64.976-26.916c-25.253,0-47.111,9.055-64.976,26.92
		c-17.864,17.863-26.923,39.727-26.923,64.973c0,25.252,9.059,47.115,26.926,64.979
		C191.651,224.475,213.513,233.535,238.757,233.535z"/>
	<path fill="#FFE6F0" d="M399.555,343.131c-0.515-7.434-1.558-15.545-3.092-24.107c-1.548-8.629-3.542-16.785-5.93-24.24
		c-2.465-7.705-5.818-15.312-9.964-22.607c-4.302-7.568-9.355-14.156-15.026-19.582c-5.929-5.672-13.189-10.234-21.584-13.561
		c-8.366-3.311-17.638-4.986-27.556-4.986c-3.895,0-7.661,1.598-14.937,6.332c-4.477,2.922-9.713,6.299-15.559,10.033
		c-4.998,3.184-11.77,6.166-20.132,8.869c-8.159,2.641-16.444,3.979-24.621,3.979s-16.459-1.338-24.627-3.979
		c-8.354-2.699-15.125-5.684-20.118-8.867c-5.79-3.699-11.029-7.076-15.573-10.037c-7.267-4.736-11.036-6.334-14.931-6.334
		c-9.921,0-19.189,1.68-27.552,4.994c-8.389,3.32-15.652,7.883-21.587,13.561c-5.668,5.426-10.725,12.014-15.021,19.578
		c-4.142,7.295-7.496,14.9-9.964,22.611c-2.384,7.453-4.378,15.607-5.927,24.236c-1.534,8.553-2.576,16.664-3.091,24.117
		c-0.507,7.299-0.763,14.877-0.763,22.531c0,19.916,6.332,36.041,18.816,47.93c12.331,11.736,28.647,17.688,48.488,17.688h183.716
		c19.842,0,36.152-5.949,48.485-17.688c12.487-11.881,18.819-28.008,18.819-47.932C400.324,357.98,400.064,350.398,399.555,343.131z
		"/>
</g>
</svg>
