<?xml version="1.0" encoding="utf-8"?>
<!-- Generator: Adobe Illustrator 16.0.0, SVG Export Plug-In . SVG Version: 6.00 Build 0)  -->
<!DOCTYPE svg PUBLIC "-//W3C//DTD SVG 1.1//EN" "http://www.w3.org/Graphics/SVG/1.1/DTD/svg11.dtd">
<svg version="1.1" id="Layer_1" xmlns="http://www.w3.org/2000/svg" xmlns:xlink="http://www.w3.org/1999/xlink" x="0px" y="0px"
	 width="745.454px" height="783.507px" viewBox="0 0 745.454 783.507" enable-background="new 0 0 745.454 783.507"
	 xml:space="preserve">
<g>
	<path fill="#FFF0F6" d="M380.007,0.058c45.398,0,83.986-3.405,184.998,41.993s164.569,130.521,163.435,257.637
		c-1.135,127.115-112.218,360.548-368.862,371.132C139.395,679.9-4.745,426.803,31.573,246.344
		C67.893,65.885,273.335,0.058,380.007,0.058z"/>
	<g>
		<defs>
			<path id="SVGID_1_" d="M380.007,0.058c45.398,0,83.986-3.405,184.998,41.993s164.569,130.521,163.435,257.637
				c-1.135,127.115-112.218,360.548-368.862,371.132C139.395,679.9-4.745,426.803,31.573,246.344
				C67.893,65.885,273.335,0.058,380.007,0.058z"/>
		</defs>
		<clipPath id="SVGID_2_">
			<use xlink:href="#SVGID_1_"  overflow="visible"/>
		</clipPath>
		<path clip-path="url(#SVGID_2_)" fill="#651B00" d="M337.635,189.596c0,0-1.892-55.045,28.185-47.668
			s68.098,22.132,101.579,101.579s31.779,103.281,65.828,145.843c34.049,42.561,55.535,54.057,83.382,68.162
			c87.997,44.578,91.97,158.83-21.526,218.982c-113.496,60.153-302.835-8.963-284.897-327.933
			C312.448,308.296,337.635,189.596,337.635,189.596z"/>
		<path clip-path="url(#SVGID_2_)" fill="#6254B6" d="M334.041,350.761L259.7,378.567c0,0-18.727,82.853-3.972,154.923
			c14.754,72.069,28.941,81.149,19.294,126.548c0,0,26.104,29.51,78.312,32.914L352.2,350.194L334.041,350.761z"/>
		<path clip-path="url(#SVGID_2_)" fill="#6254B6" d="M371.499,350.761l74.342,27.806c0,0,18.729,82.853,3.974,154.923
			c-14.755,72.069-28.945,81.149-19.298,126.548c0,0-26.108,29.51-78.316,32.914l-1.135-342.758L371.499,350.761z"/>
		<path opacity="0.5" clip-path="url(#SVGID_2_)" fill="#FD98B3" d="M437.903-80.949c-22.312,4.385-19.046,198.213-6.823,214.932
			c8.823,12.068,112.408,20.575,139.6,14.755c17.224-3.687,17.224-173.687,5.675-192.943
			C557.009-76.462,455.903-84.486,437.903-80.949z"/>
		<path clip-path="url(#SVGID_2_)" fill="#FD98B3" d="M452.237,141.052c0,0-2.998-84.246,20.836-91.623
			c23.834-7.378,10.215-29.509,10.215-29.509s-16.384-67.535,23.267-67.531c40.626,0.004,35.751,50.506,26.104,65.261
			c-9.647,14.755-17.592,22.699-13.62,31.779c4.03,9.212,31.779,11.35,32.914,48.235c0.699,22.717-1.049,52.054-1.049,52.054
			S502.237,152.052,452.237,141.052z"/>
		<path opacity="0.5" clip-path="url(#SVGID_2_)" fill="#FD98B3" d="M184.913-71.445c-12.01,31.496-29.696,194.478-2.209,215.643
			c10.199,7.854,132.466-4.282,144.199-13.619c17-13.527,29-200.527-1-226.527C297.248-120.784,194.013-95.308,184.913-71.445z"/>
		<path clip-path="url(#SVGID_2_)" fill="#FD98B3" d="M196.71,146.09c0,0-4.159-94.036,21.564-108.956
			c28.374-16.457,10.215-38.021,10.215-38.021s-30.076-70.936,15.89-74.34c45.966-3.405,38.589,59.018,32.914,69.8
			s-9.647,19.294-8.513,23.267s26.451,21.379,30.645,37.453c6.81,26.104,8.512,80.583,8.512,80.583S238.904,147.718,196.71,146.09z"
			/>
		<path clip-path="url(#SVGID_2_)" fill="#6254B6" d="M445.841,378.567c0,0,29.6,13.515,43.122,26.104
			c16.457,15.322,28.374,66.396,28.374,66.396l53.343,177.054l-41.426,15.322l-75.475-172.515
			C453.779,490.928,438.471,409.211,445.841,378.567z"/>
	</g>
	<path fill="#FFF0F6" d="M345.577,732.648c0,0,46.533-32.914,76.043-17.024c29.509,15.889,14.754,62.852-27.239,67.392
		C352.387,787.555,319.474,759.887,345.577,732.648z"/>
	<path fill="#FFF0F6" d="M480.752,705.657c0,0,44.208-12.64,87.706-32.139c11.419-5.119,16.499,50.998-59.555,76.533
		C480.311,759.651,462.111,725.108,480.752,705.657z"/>
	<path fill="#FFF0F6" d="M49.733,567.539c26.17,141.513,138.946,181.234,177.17,192.513c69.233,20.43,114.515-34.753,5.559-68.802
		C123.505,657.201,98.357,603.28,66.903,561.051C64.162,557.372,45.739,545.943,49.733,567.539z"/>
	<path fill="#651B00" d="M339.717,192.434c0,0,3.594-35.278-11.917-41.425c-10.026-3.974-34.051-5.296-45.777,29.888
		c-11.729,35.184-10.971,100.256-12.106,114.631c-1.135,14.376,5.429,57.859,8.323,73.772
		c5.297,29.132,57.838,114.127,73.016-29.509C361.849,239.538,339.717,192.434,339.717,192.434z"/>
	<path fill="#6254B6" d="M259.7,378.567c0,0-20.429,3.973-26.955,26.104c-6.525,22.132-45.966,171.38-45.966,171.38l41.427,18.442
		l27.522-61.004C255.729,533.49,270.767,396.727,259.7,378.567z"/>
	<circle fill="#6254B6" cx="208.06" cy="583.996" r="22.699"/>
	<polygon fill="#6254B6" points="154.433,377.432 183.091,370.339 230.191,578.604 185.929,589.67 	"/>
	<path fill="#FFB5B5" d="M183.091,370.339l8.512-29.226c0,0-5.106-33.481-3.972-39.156s2.802-15.709-2.271-15.89
		c-9.79-0.35-11.917,17.593-11.917,17.593s-33.206-59.274-39.873-54.608s8.662,38.151,8.662,38.151s-13.62,10.781-13.052,22.131
		c0.567,11.35,5.106,39.725,10.781,45.967s13.053,16.457,14.471,22.131C155.852,383.108,183.091,370.339,183.091,370.339z"/>
	<path fill="#776ECE" d="M292.236,365.895c0,0-18.159,53.343-13.619,96.851c4.54,43.507,17.401,73.394,17.78,87.392
		s-4.918,69.231-4.918,69.231s39.346,19.675,61.288-18.914c0,0,12.106-107.065-19.294-157.004
		c-31.401-49.938-0.758-92.688-0.758-92.688S295.264,359.463,292.236,365.895z"/>
	<path fill="#776ECE" d="M380.764,631.475c0,0-21.943-17.402-26.483-49.939c0,0-0.756-107.062,27.996-160.784
		c28.752-53.721-0.757-66.583-0.757-66.583l53.722,21.185c0,0,8.324,13.621-1.135,52.587c-9.459,38.967-27.996,76.411-27.996,103.66
		c0,37.832,15.512,65.069,15.512,65.069S403.463,624.666,380.764,631.475z"/>
	<path fill="#776ECE" d="M333.474,348.113c0,0-27.619-10.214-43.886,9.08c-16.268,19.294-13.62,46.912-2.271,62.423
		c11.35,15.51,26.482,27.618,49.938,28.374s34.428-8.324,47.29-22.321c12.863-13.998,30.893-19.508,46.534-38.589
		c18.916-23.077-20.052-57.883-60.153-39.346C370.927,347.734,345.958,350.383,333.474,348.113z"/>
	<path fill="none" stroke="#1E1247" stroke-width="2" stroke-linecap="round" stroke-linejoin="round" stroke-miterlimit="10" d="
		M246.081,437.777c0,0,6.432,87.009,9.647,95.713"/>
	
		<line fill="none" stroke="#1E1247" stroke-width="2" stroke-linecap="round" stroke-linejoin="round" stroke-miterlimit="10" x1="454.157" y1="433.993" x2="454.914" y2="494.524"/>
	
		<line fill="none" stroke="#1E1247" stroke-width="2" stroke-linecap="round" stroke-linejoin="round" stroke-miterlimit="10" x1="209.763" y1="488.471" x2="219.599" y2="545.219"/>
	<path fill="none" stroke="#1E1247" stroke-width="2" stroke-linecap="round" stroke-linejoin="round" stroke-miterlimit="10" d="
		M280.887,406.754c0,0,12.105,24.966,56.369,41.235"/>
	<path fill="none" stroke="#1E1247" stroke-width="2" stroke-linecap="round" stroke-linejoin="round" stroke-miterlimit="10" d="
		M377.736,433.993c0,0,47.67-30.266,57.505-58.64"/>
	<path fill="#FFB5B5" d="M370.903,355.971v-42.92h-37v39.487c0,1.192,0.341,2.425,0.341,3.688
		c0.003,10.256,8.59,18.568,18.847,18.565c10.254-0.001,17.812-8.317,17.812-18.573C370.903,356.135,370.903,356.5,370.903,355.971z
		"/>
	<path fill="#E79090" d="M333.903,324.18c9,6.344,16.414,10.216,26.607,10.214c3.557,0,8.393-0.482,10.393-1.363v-19.979h-37V324.18
		z"/>
	<path fill="#FFB5B5" d="M415.569,238.74c-3.529-0.845-8.666,0.295-11.666,2.85v-53.413l-106,2.875v48.916
		c-2-3.428-5.922-5.083-9.988-4.11c-7.736,1.851-10.883,12.506-8.181,23.797c2.703,11.292,11.627,18.946,19.363,17.095
		c0.576-0.137,1.355-0.339,1.889-0.569c1.318,27.892,24.466,50.099,52.683,50.094c27.14-0.007,49.524-20.558,52.355-46.943
		c0.312,0.108,0.65,0.224,0.978,0.302c7.733,1.852,15.585-5.802,18.288-17.094C427.991,251.246,423.306,240.59,415.569,238.74z"/>
	<path fill="#FFFFFF" d="M333.231,280.051c0.51,12,9.501,19.625,20.547,19.621c11.043-0.002,20.028-7.621,20.538-19.621H333.231z"/>
	<path fill="none" stroke="#F86980" stroke-width="2" stroke-linecap="round" stroke-linejoin="round" stroke-miterlimit="10" d="
		M346.324,262.921c0,0,6.729-4.164,12.814,0.321"/>
	<path fill="none" stroke="#E90000" stroke-miterlimit="10" d="M407.513,262.921c0,0,3.524-21.144,11.853-10.25"/>
	<path fill="none" stroke="#E90000" stroke-miterlimit="10" d="M300.195,262.921c0,0-3.523-21.144-11.854-10.25"/>
	<path fill="#651B00" d="M337.635,189.596c0,0-6.053-22.321-23.077-18.916c-13.047,2.609-22.132,12.296-24.401,38.021
		c-1.496,16.959-3.595,69.421-16.079,86.824c0,0,31.779,6.81,43.129-72.638C321.322,194.073,328.556,176.355,337.635,189.596z"/>
	<path fill="#7C2B12" d="M338.904,190.718c0,0-12.217,0.303-16,6.166c0,0,3.415-14.832,8.333-14.832
		S338.904,190.718,338.904,190.718z"/>
	<path fill="#7C2B12" d="M338.82,190.718c0,0,27.083-5.167,35.417,7.583c9.998,15.296,11.823,37.072,15.229,47.855
		c3.404,10.781,13.24-29.889,5.484-59.397C387.195,157.25,346.766,136.618,338.82,190.718z"/>
	<path fill="#651B00" d="M338.57,191.051c0,0,9.091-33.234,30.088-23.776c20.997,9.459,17.97,43.318,19.861,66.585
		c1.893,23.267,6.242,56.747,48.804,65.07c42.561,8.324,31.21-53.721,26.293-66.962c-4.918-13.242-36.13-97.417-78.123-102.524
		C333.591,123.131,335.922,159.272,338.57,191.051z"/>
	<path fill="none" stroke="#1E1247" stroke-width="2" stroke-linecap="round" stroke-linejoin="round" stroke-miterlimit="10" d="
		M320.988,361.356c0,0-8.322,28.753,18.159,32.535"/>
	<path fill="none" stroke="#1E1247" stroke-width="2" stroke-linecap="round" stroke-linejoin="round" stroke-miterlimit="10" d="
		M318.719,395.405c0,0,49.181,33.292,72.638-34.049"/>
	<path fill="none" stroke="#1E1247" stroke-width="2" stroke-linecap="round" stroke-linejoin="round" stroke-miterlimit="10" d="
		M353.524,585.323c0,0,0.757-38.59,0-60.531"/>
	<path fill="none" stroke="#F86980" stroke-width="2" stroke-linecap="round" stroke-linejoin="round" stroke-miterlimit="10" d="
		M142.232,287.204c0,0,20.429,21.563,22.699,28.941c2.27,7.377-1.135,32.346-5.107,36.318"/>
	<path fill="none" stroke="#F86980" stroke-width="2" stroke-linecap="round" stroke-linejoin="round" stroke-miterlimit="10" d="
		M173.443,303.661c0,0-1.512,7.755,0.001,13.052"/>
	<path opacity="0.5" fill="#FD98B3" d="M22.116,137.388c34.436-19.648,133.541,18.255,155.787,29.663c39,20,28,275-4,289
		c-21.092,9.228-148.222-39.211-161.624-49.678C2.903,399.051-14.097,158.051,22.116,137.388z"/>
	<path opacity="0.5" fill="#FD98B3" d="M579.76,416.588c-24.856-12.537-30.397-211.574-10.215-248.557
		c10.358-18.98,141.358-37.98,156.014-28.371c28.108,18.431,24.345,204.391,1.746,237.99
		C717.485,392.25,604.815,429.226,579.76,416.588z"/>
	<path fill="#FD98B3" d="M45.903,422.718c0,0-12.06-23.154-5.817-56.067c6.242-32.914,14.151-58.933,40.858-68.098
		c10.255-3.52,3.405-21.564,3.405-21.564s-20.43-26.104-15.322-55.613s26.104-36.887,40.291-30.076
		c14.187,6.81,22.132,39.724,13.052,68.098c-9.079,28.374-16.539,24.389-17.024,27.807c-2.108,14.849,12.586,18.74,16.558,23.848
		c3.973,5.107,31.381,30.625,26.004,107.24c-2.271,32.346-5.004,35.76-5.004,35.76S90.903,445.718,45.903,422.718z"/>
	<path fill="#FD98B3" d="M602.903,417.051c0,0-6-82,22.255-110.554c14.214-14.364,20.745-20.446,18.727-35.184
		c-0.833-6.081-24.669-11.908-25.536-42.562c-1.444-51.034,49.938-76.609,64.125-30.076s-9.647,60.152-11.35,68.665
		s2.512,20.85,15.89,27.807c22.89,11.903,28.89,87.403,28.89,87.403S681.903,412.051,602.903,417.051z"/>
	<path fill="none" stroke="#7C2B12" stroke-width="2" stroke-linecap="round" stroke-linejoin="round" stroke-miterlimit="10" d="
		M406.403,283.551c0,0,25.5,21,50.5,7.5"/>
	<path fill="none" stroke="#7C2B12" stroke-width="2" stroke-linecap="round" stroke-linejoin="round" stroke-miterlimit="10" d="
		M299.903,278.551c0,0-11,15-18,17.5"/>
</g>
</svg>
