<?xml version="1.0" encoding="utf-8"?>
<!-- Generator: Adobe Illustrator 16.0.0, SVG Export Plug-In . SVG Version: 6.00 Build 0)  -->
<!DOCTYPE svg PUBLIC "-//W3C//DTD SVG 1.1//EN" "http://www.w3.org/Graphics/SVG/1.1/DTD/svg11.dtd">
<svg version="1.1" id="Layer_1" xmlns="http://www.w3.org/2000/svg" xmlns:xlink="http://www.w3.org/1999/xlink" x="0px" y="0px"
	 width="724.644px" height="749.343px" viewBox="0 0 724.644 749.343" enable-background="new 0 0 724.644 749.343"
	 xml:space="preserve">
<g>
	<path fill="#FFF0F6" d="M387.42,39.295c0,0,58.102-6.338,125.711,19.015c67.608,25.354,152.119,91.906,170.078,210.222
		c17.959,118.316-73.947,347.553-316.917,383.47S-90.068,522.065,38.811,194.584C38.811,194.584,44.093,59.366,387.42,39.295z"/>
	<path fill="#E79090" d="M588.839,217.826c0,0-1.057-10.564,3.169-15.846c4.226-5.282,16.902-22.185,16.902-22.185
		s8.804-9.157,9.155-2.466c0.353,6.691-3.874,17.605-2.817,21.128S594.121,216.77,588.839,217.826z"/>
	<path fill="#6254B6" d="M615.953,195.993l-15.846-17.958c0,0-3.874-4.578,0-8.451c3.873-3.874,37.325-34.156,37.325-34.156
		s6.338-7.395,10.563-2.817s22.889,26.761,22.889,26.761s3.874,2.818-0.352,7.043c-4.226,4.227-40.848,32.748-40.848,32.748
		S625.812,204.797,615.953,195.993z"/>
	<g>
		<defs>
			<path id="SVGID_1_" d="M17.789,256.938c-46.516,166.9,2.613,284.967,96.722,347.691l129.24-25.519l-68.665-330.65L17.789,256.938
				z"/>
		</defs>
		<use xlink:href="#SVGID_1_"  overflow="visible" fill="#FFF0F6"/>
		<clipPath id="SVGID_2_">
			<use xlink:href="#SVGID_1_"  overflow="visible"/>
		</clipPath>
		<g clip-path="url(#SVGID_2_)">
			
				<rect x="-3.734" y="275.59" transform="matrix(0.9926 -0.1214 0.1214 0.9926 -50.9425 14.1289)" fill="#FFAEC7" width="188.369" height="298.872"/>
			<path fill="#FFC2D8" d="M3.599,373.817c0,0,29.579-16.197,46.481-11.972c16.805,4.202,27.466,40.142,26.058,66.199
				c-1.408,26.059-7.747,59.863,13.381,66.201s51.656,10.598,61.271,21.128c14.79,16.198,26.762,49.594,26.762,49.594L15.11,584.793
				L-9.782,381.564L3.599,373.817z"/>
		</g>
	</g>
	
		<rect x="95.743" y="18.606" transform="matrix(0.9926 -0.1214 0.1214 0.9926 -26.5496 33.5666)" fill="#FD98B3" width="332.763" height="432.012"/>
	
		<rect x="111.466" y="36.307" transform="matrix(0.9926 -0.1214 0.1214 0.9926 -26.6129 33.5794)" fill="#FFAEC7" width="301.444" height="397.642"/>
	<polygon fill="#FD98B3" points="409.076,69.402 79.482,113.771 81.066,125.92 409.956,82.255 	"/>
	<path fill="#FFD2E4" d="M234.771,276.982c-8.451-10.035-32.22-21.656-37.502-69.722c-5.799-52.765,23.24-71.835,47.01-73.419
		c29.513-1.967,66.378,12.257,62.326,76.061c-2.112,33.275-33.275,63.911-33.275,63.911s0.527,26.409,20.071,33.276
		c27.317,9.598,82.398-1.585,97.188,28.522c15.03,30.597,48.594,79.229,48.594,79.229l-295.789,34.86l1.057-76.588
		c0,0,4.226-36.445,33.805-42.256c29.579-5.81,47.85-16.247,54.932-25.354C240.582,295.998,239.371,282.445,234.771,276.982z"/>
	<circle fill="#FFAEC7" cx="100.082" cy="183.492" r="70.25"/>
	<circle fill="#FD98B3" cx="100.082" cy="183.492" r="59.686"/>
	<path fill="#FFFFFF" d="M63.825,202.18c0,0-1.761-8.58,4.312-14.654c3.447-3.448,8.447,0.345,8.447,0.345l15,9.311
		c0,0,16.896-25.344,24.481-39.482c2.118-3.948,14.483-9.481,14.828,6.896c0.345,16.379-32.585,55.344-32.585,55.344L63.825,202.18z
		"/>
	<path fill="#FFF0F6" d="M259.597,706.934c1.511-5.129,13.651-12.152,22.103-6.871c8.451,5.282,31.69,21.654,19.014,33.274
		C288.037,744.957,249.729,740.436,259.597,706.934z"/>
	<path fill="#FFF0F6" d="M348.334,712.215c0,0,140.936-15.321,217.615-68.665c60.013-41.748,77.117-72.891,88.737-67.608
		c11.62,5.281,13.733,40.143,0,75.004c-8.597,21.822-92.113,109.681-250.364,97.188
		C324.036,741.795,348.334,712.215,348.334,712.215z"/>
	<path fill="#E79090" d="M403.266,186.661c0,0-4.226,48.048-4.226,55.989c0,12.148,9.508,35.917,32.22,39.086
		c22.713,3.169,89.266,20.6,88.209-73.419s-73.419-83.455-93.49-67.609C405.906,156.555,403.266,186.661,403.266,186.661z"/>
	<path fill="#FFB5B5" d="M406.611,234.2c0,0-1.408-21.481,2.817-23.065c4.226-1.585,7.923,1.233,7.923,5.635
		c0,4.4,2.992,31.339,0.352,36.093C415.062,257.615,405.555,253.039,406.611,234.2z"/>
	<path fill="#6254B6" d="M423.337,311.315l-40.671,31.163c0,0-23.24,20.072-27.466,44.896
		c-4.226,24.826-32.748,179.587-32.748,179.587l37.501,14.261l47.01-116.203C406.963,465.02,440.768,366.248,423.337,311.315z"/>
	<circle fill="#6254B6" cx="341.203" cy="573.564" r="19.807"/>
	<polygon fill="#6254B6" points="323.508,582.279 273.857,416.426 303.965,402.693 357.312,561.151 	"/>
	<polygon fill="#49459B" points="575.457,311.844 595.529,247.404 622.467,254.271 606.093,357.269 	"/>
	<path fill="#FFB5B5" d="M303.965,402.693l-3.521-17.958c0,0-3.521-16.902-9.155-22.889s-9.155-13.382-9.155-13.382
		s-8.451,2.819-3.169,15.143c0,0-41.904-26.762-46.481-21.832s20.776,27.818,20.776,27.818s-28.523-12.324-28.523-7.043
		c0,5.282,22.889,21.832,22.889,21.832s-16.551-4.226-16.902-1.057c-0.353,3.169,7.747,14.086,19.719,19.368
		c8.976,3.959,21.831,11.267,23.416,13.731L303.965,402.693z"/>
	<path fill="#FFB5B5" d="M593.064,252.687c0,0,0-13.733-2.113-20.424c-2.112-6.69-5.281-23.944,14.789-32.044
		c20.072-8.1,60.215-26.762,62.328-23.24c2.112,3.521-19.015,17.959-21.832,20.071s3.873,4.577,1.76,9.859
		c-2.112,5.282-1.057,10.212-3.521,17.255c-2.429,6.939-5.986,16.901-9.155,19.719c-3.17,2.817-11.27,6.689-12.854,10.388
		S593.064,252.687,593.064,252.687z"/>
	<path fill="#6254B6" d="M423.337,311.315c0,0-35.212,79.406-33.451,115.324c1.761,35.917,25.706,80.638,32.044,97.188
		c6.339,16.55,30.635,73.241,9.858,113.385c0,0,171.44-56.077,179.234-112.329c16.198-116.908-33.804-247.9-186.628-213.391"/>
	<path fill="#FFF0F6" d="M678.983,552.7c-9.002-3.157-13.733-13.732-3.169-38.03c10.563-24.297,29.579-47.537,38.03-45.424
		c8.451,2.112,15.846,31.691,6.338,54.932C710.676,547.418,697.037,559.033,678.983,552.7z"/>
	<path fill="#1E1247" d="M402.737,191.415c0,0-9.507-9.508-7.395-19.543c2.112-10.036,0.528-36.446,32.748-53.348
		c23.597-12.379,70.778-10.564,98.244,38.03c27.466,48.594,25.882,120.428,79.229,186.452s92.855,141.562,8.979,217.616
		c-87.775,79.589-206.088-25.35-216.561-131.521c-7.47-75.738,30.636-117.259,31.692-143.669S419.111,205.676,402.737,191.415z"/>
	<path fill="none" stroke="#1E1247" stroke-width="2" stroke-linecap="round" stroke-linejoin="round" stroke-miterlimit="10" d="
		M387.413,414.864c0,0,4.668,45.333,13.334,61.333"/>
	<polygon fill="#49459B" points="354.081,396.864 346.081,530.197 335.414,493.53 	"/>
	<path fill="none" stroke="#40337F" stroke-width="2" stroke-linecap="round" stroke-linejoin="round" stroke-miterlimit="10" d="
		M444.08,156.197c0,0,57.965,96.505,38,190c-26.047,121.979,18,220,42,240"/>
	<path fill="none" stroke="#40337F" stroke-width="2" stroke-linecap="round" stroke-linejoin="round" stroke-miterlimit="10" d="
		M480.031,153.191c0,0,23.948,31.986,40.498,109.494c10.44,48.897,6,229.489,99.551,291.512"/>
	<g>
		<path fill="#FFFFFF" d="M153.507,61.027l-7.815,26.076l-5.671,0.668l-13.629-23.55l6.203-0.73l9.639,16.833l5.567-18.625
			L153.507,61.027z"/>
		<path fill="#FFFFFF" d="M184.247,77.89l0.543,4.607l-19.212,2.264l-2.924-24.812l18.752-2.209l0.543,4.607l-13.045,1.537
			l0.635,5.387l11.52-1.356l0.526,4.467l-11.52,1.356l0.677,5.742L184.247,77.89z"/>
		<path fill="#FFFFFF" d="M212.262,79.261l-5.6-6.349l-0.283,0.033l-4.998,0.589l0.814,6.912l-5.742,0.677l-2.924-24.812
			l10.74-1.266c6.628-0.78,11.18,2.169,11.835,7.733c0.439,3.723-1.117,6.673-4.18,8.436l6.504,7.319L212.262,79.261z
			 M204.502,59.763l-4.679,0.551l1.019,8.649l4.679-0.551c3.509-0.414,5.09-2.253,4.772-4.947
			C209.972,60.735,208.011,59.35,204.502,59.763z"/>
		<path fill="#FFFFFF" d="M226.673,52.406l5.742-0.676l2.924,24.812l-5.742,0.676L226.673,52.406z"/>
		<path fill="#FFFFFF" d="M251.675,54.133l0.772,6.557l11.483-1.353l0.543,4.608l-11.483,1.354l1.065,9.037l-5.742,0.677
			l-2.924-24.812l18.751-2.209l0.543,4.607L251.675,54.133z"/>
		<path fill="#FFFFFF" d="M275.13,46.697l5.742-0.676l2.924,24.811l-5.742,0.677L275.13,46.697z"/>
		<path fill="#FFFFFF" d="M315.438,62.433l0.543,4.607l-19.212,2.264l-2.924-24.812l18.751-2.209l0.543,4.607l-13.044,1.537
			l0.635,5.388l11.52-1.357l0.526,4.467l-11.52,1.357l0.677,5.742L315.438,62.433z"/>
		<path fill="#FFFFFF" d="M324.722,40.854l11.271-1.328c8.117-0.956,14.258,3.28,15.144,10.795s-4.103,13.061-12.22,14.017
			l-11.271,1.328L324.722,40.854z M338.078,59.658c4.927-0.581,7.806-3.903,7.246-8.652c-0.56-4.75-4.132-7.312-9.059-6.73
			l-5.246,0.617l1.812,15.383L338.078,59.658z"/>
	</g>
</g>
</svg>
