<svg width="322" height="279" viewBox="0 0 322 279" fill="none" xmlns="http://www.w3.org/2000/svg">
<path d="M267 108.278C267 78.8523 243.269 55 214.003 55C187.084 55 164.871 75.174 161.468 101.296L160.998 101.067L160.528 101.296C157.125 75.174 134.916 55 108.001 55C78.7309 55 55 78.8523 55 108.278C55 122.673 60.6883 135.724 69.9144 145.313L69.5607 145.481L108.071 184.196L122.315 198.516L135.926 212.199C135.926 212.199 149.537 223.005 160.998 223.005C173.892 223.005 185.883 212.391 185.883 212.391L252.435 145.481L252.09 145.313C261.312 135.724 267 122.673 267 108.278Z" fill="#FD98B3"/>
<path fill-rule="evenodd" clip-rule="evenodd" d="M55.397 114.826C55.135 112.681 55 110.495 55 108.278C55 78.8523 78.7309 55 108.001 55C111.885 55 115.671 55.4201 119.316 56.2174C129.497 58.4444 138.583 63.6144 145.652 70.7964C146.056 71.2069 146.454 71.624 146.844 72.0475C153.76 79.5442 158.557 89.0464 160.277 99.5895C160.363 100.114 160.441 100.642 160.511 101.171C160.517 101.213 160.522 101.254 160.528 101.296L160.998 101.067L161.468 101.296C161.473 101.254 161.479 101.213 161.484 101.171C161.554 100.642 161.632 100.114 161.718 99.5894C163.438 89.0488 168.234 79.5485 175.149 72.0526C175.539 71.629 175.937 71.2118 176.341 70.8013C183.41 63.6182 192.498 58.4469 202.681 56.2188C206.328 55.4205 210.117 55 214.003 55C243.269 55 267 78.8523 267 108.278C267 110.88 266.814 113.438 266.455 115.94C266.394 116.369 266.327 116.796 266.255 117.221C264.508 127.597 259.773 136.949 252.981 144.363C252.716 144.653 252.447 144.94 252.176 145.224C252.147 145.253 252.119 145.283 252.09 145.313L252.435 145.481L185.883 212.391C185.883 212.391 173.892 223.005 160.998 223.005C149.537 223.005 135.926 212.199 135.926 212.199L69.5607 145.481L69.9144 145.313C69.8844 145.282 69.8543 145.25 69.8244 145.219C69.558 144.941 69.2946 144.66 69.0343 144.376C61.9878 136.692 57.1544 126.926 55.5675 116.096C55.5057 115.674 55.4489 115.251 55.397 114.826ZM24.1112 176.456C9.07552 157.867 0 134.094 0 108.278C0 48.7453 48.0872 0 108.001 0C127.31 0 145.377 5.05956 161 13.9061C176.626 5.05927 194.694 0 214.003 0C273.916 0 322 48.7485 322 108.278C322 134.125 312.902 157.923 297.842 176.518C295.962 179.268 293.821 181.864 291.43 184.268L224.878 251.178C224.056 252.004 223.209 252.804 222.336 253.576L185.883 212.391C222.336 253.576 222.325 253.585 222.314 253.595L222.247 253.654L222.153 253.737C222.089 253.793 222.021 253.853 221.949 253.916C221.805 254.04 221.647 254.177 221.475 254.324C221.13 254.619 220.726 254.958 220.267 255.336C219.352 256.088 218.196 257.008 216.825 258.037C214.13 260.06 210.353 262.695 205.714 265.365C197.588 270.042 181.432 278.005 160.998 278.005C140.613 278.005 124.045 269.363 117.34 265.617C112.977 263.18 109.359 260.803 106.808 259.026C105.506 258.12 104.413 257.323 103.566 256.688C103.141 256.37 102.773 256.089 102.467 255.853C102.313 255.734 102.175 255.626 102.052 255.53C101.99 255.482 101.933 255.437 101.879 255.394L101.801 255.333L101.747 255.29C101.738 255.283 101.729 255.276 135.926 212.199L101.729 255.276C100.048 253.941 98.4463 252.509 96.9324 250.987L69.0772 222.984L30.5669 184.269C28.157 181.846 26.0009 179.229 24.1112 176.456Z" fill="#FD98B3" fill-opacity="0.05"/>
<path d="M267 107.278C267 77.8523 243.269 54 214.003 54C187.084 54 164.871 74.174 161.468 100.296L160.998 100.067L160.528 100.296C157.125 74.174 134.916 54 108.001 54C78.7309 54 55 77.8523 55 107.278C55 121.673 60.6883 134.724 69.9144 144.313L69.5607 144.481L108.071 183.196L122.315 197.516L135.926 211.199C135.926 211.199 149.537 222.005 160.998 222.005C173.892 222.005 185.883 211.391 185.883 211.391L252.435 144.481L252.09 144.313C261.312 134.724 267 121.673 267 107.278Z" fill="#FD98B3"/>
<path fill-rule="evenodd" clip-rule="evenodd" d="M57.2627 122.715C55.7914 117.83 55 112.647 55 107.278C55 77.8523 78.7309 54 108.001 54C122.692 54 135.981 60.0103 145.574 69.7175C147.766 71.9354 149.766 74.3464 151.544 76.9227C155.932 83.2768 158.979 90.6371 160.277 98.5895C160.363 99.1142 160.441 99.6415 160.511 100.171C160.517 100.213 160.522 100.254 160.528 100.296L160.998 100.067L161.468 100.296C161.473 100.254 161.479 100.213 161.484 100.171C161.554 99.6415 161.632 99.1142 161.718 98.5894C163.016 90.6372 166.064 83.2772 170.452 76.9231C172.231 74.3471 174.23 71.9364 176.422 69.7186C186.018 60.0107 199.31 54 214.003 54C243.269 54 267 77.8523 267 107.278C267 112.648 266.208 117.831 264.737 122.718C262.393 130.502 258.323 137.532 252.981 143.363C252.716 143.653 252.447 143.94 252.176 144.224C252.147 144.253 252.119 144.283 252.09 144.313L252.435 144.481L185.883 211.391C185.883 211.391 173.892 222.005 160.998 222.005C149.537 222.005 135.926 211.199 135.926 211.199L69.5607 144.481L69.9144 144.313C69.8844 144.282 69.8543 144.25 69.8244 144.219C69.558 143.941 69.2946 143.66 69.0343 143.376C63.6835 137.541 59.6088 130.506 57.2627 122.715ZM48.3118 157.653C49.3029 159.252 50.4813 160.75 51.8362 162.112L118.202 228.83C118.89 229.522 119.618 230.173 120.382 230.779L135.926 211.199C120.382 230.779 120.386 230.783 120.39 230.786L120.416 230.806L120.456 230.838L120.55 230.912C120.62 230.967 120.705 231.032 120.802 231.108C120.997 231.259 121.248 231.45 121.548 231.675C122.149 232.124 122.96 232.717 123.948 233.405C125.902 234.765 128.67 236.582 131.971 238.427C137.656 241.603 148.607 247.005 160.998 247.005C173.803 247.005 184.54 241.938 190.748 238.365C194.113 236.427 196.868 234.506 198.815 233.044C199.8 232.305 200.609 231.66 201.217 231.16C201.522 230.909 201.78 230.693 201.986 230.517C202.089 230.429 202.18 230.35 202.258 230.283C202.297 230.249 202.332 230.217 202.365 230.189L202.411 230.148L202.432 230.129L202.443 230.12C202.448 230.116 202.453 230.111 185.883 211.391L202.453 230.111C202.849 229.76 203.235 229.397 203.608 229.021L270.16 162.111C271.504 160.76 272.674 159.276 273.66 157.691C285.079 144.086 292 126.476 292 107.278C292 64.1687 257.2 29 214.003 29C193.491 29 174.888 36.925 160.999 49.8585C147.113 36.9255 128.512 29 108.001 29C64.8019 29 30 64.1673 30 107.278C30 126.457 36.9077 144.052 48.3118 157.653Z" fill="#FD98B3" fill-opacity="0.15"/>
<path d="M267 107.278C267 77.8523 243.269 54 214.003 54C187.084 54 164.871 74.174 161.468 100.296L160.998 100.067L160.528 100.296C157.125 74.174 134.916 54 108.001 54C78.7309 54 55 77.8523 55 107.278C55 121.673 60.6883 134.724 69.9144 144.313L69.5607 144.481L108.071 183.196L122.315 197.516L135.926 211.199C135.926 211.199 149.537 222.005 160.998 222.005C173.892 222.005 185.883 211.391 185.883 211.391L252.435 144.481L252.09 144.313C261.312 134.724 267 121.673 267 107.278Z" fill="#FD98B3"/>
</svg>
