<svg width="200" height="33" viewBox="0 0 200 33" fill="none" xmlns="http://www.w3.org/2000/svg">
<g clip-path="url(#clip0)">
<path d="M23.3434 18.186C21.6774 16.9752 20.4167 15.3603 19.6554 13.5189C18.8128 15.5548 17.3603 17.3214 15.4308 18.5623C15.2914 18.6518 15.1346 18.6948 14.98 18.6948C14.7079 18.6948 14.4412 18.5623 14.2821 18.319C14.0324 17.9374 14.1423 17.4273 14.5274 17.1796C17.2196 15.448 18.8271 12.5164 18.8271 9.33787C18.8271 9.03651 18.8427 8.73869 18.8668 8.44308C18.8025 8.34425 18.7596 8.23213 18.7435 8.11247C18.1328 3.48697 14.1213 0 9.41376 0C4.22326 0 0 4.18853 0 9.33743C0 11.7714 0.940437 14.0759 2.64886 15.8278C2.72705 15.9085 2.78691 16.002 2.82623 16.1031L14.1343 27.3209L23.3434 18.186Z" fill="#6A6A6A"/>
<path d="M36.4867 16.1031C36.526 16.0016 36.6064 15.9085 36.6851 15.8278C37.1122 15.39 37.2842 14.9176 37.8382 14.4172C37.8382 14.4168 37.8382 14.4168 37.8382 14.4168C37.8382 14.2984 37.9713 14.1792 38.0428 14.0578C38.0481 14.0485 38.0472 14.0392 38.0526 14.0299C38.1178 13.9186 38.1746 13.8056 38.2349 13.6921C38.2456 13.6726 38.2536 13.6531 38.2639 13.6336C38.3184 13.5304 38.3676 13.4249 38.4181 13.3194C38.4323 13.2897 38.4471 13.2592 38.4614 13.229C38.5056 13.1337 38.5463 13.0367 38.5874 12.9405C38.6048 12.8989 38.6227 12.8585 38.6396 12.8177C38.6749 12.7304 38.7071 12.6422 38.7402 12.5536C38.7594 12.5022 38.7795 12.4512 38.7974 12.3989C38.8251 12.3192 38.8505 12.2381 38.876 12.1574C38.8952 12.0967 38.9158 12.0364 38.9341 11.9753C38.956 11.9008 38.9752 11.825 38.9957 11.7501C39.014 11.6823 39.0332 11.6145 39.0502 11.5467C39.0676 11.4749 39.0824 11.4022 39.0985 11.33C39.1141 11.2577 39.1311 11.1859 39.1449 11.1133C39.1588 11.0428 39.1695 10.971 39.1816 10.8997C39.1945 10.8248 39.2084 10.7503 39.2191 10.6754C39.2298 10.6014 39.2374 10.5265 39.2464 10.452C39.2553 10.3794 39.2656 10.3067 39.2727 10.2335C39.2816 10.1431 39.2866 10.0523 39.2924 9.96143C39.2964 9.90337 39.3022 9.8462 39.3049 9.78815C39.3116 9.63835 39.3152 9.48811 39.3152 9.33743C39.3152 4.18853 35.0923 0 29.9018 0C29.7477 0 29.5945 0.00443183 29.4421 0.0110796C29.3778 0.0141819 29.3144 0.0203864 29.2505 0.0243751C29.1647 0.0301365 29.0785 0.0358979 28.9931 0.0443183C28.91 0.0522956 28.8274 0.062932 28.7452 0.0726821C28.6813 0.0806594 28.6178 0.0877503 28.5549 0.0970571C28.4597 0.110353 28.365 0.126307 28.2712 0.143148C28.2234 0.151126 28.176 0.159103 28.1291 0.16841C28.0232 0.188353 27.9182 0.210955 27.8137 0.234001C27.7811 0.241978 27.7484 0.248626 27.7158 0.256603C27.6001 0.284081 27.4849 0.313774 27.3709 0.34524C27.3535 0.350558 27.3356 0.35499 27.3178 0.360308C25.8367 0.782219 24.4956 1.5569 23.4019 2.59262C23.397 2.5975 23.3921 2.60193 23.3871 2.60636C23.2951 2.69367 23.2053 2.78319 23.1173 2.87404C23.1048 2.8869 23.0923 2.89975 23.0802 2.9126C22.998 2.99814 22.918 3.08544 22.839 3.17408C22.8211 3.19402 22.8037 3.21441 22.7862 3.23435C22.7125 3.31856 22.6401 3.40409 22.57 3.49096C22.549 3.51622 22.5289 3.54236 22.5088 3.56807C22.4418 3.65183 22.3757 3.73692 22.3118 3.82334C22.2903 3.85259 22.2698 3.88229 22.2483 3.91154C22.1858 3.99751 22.1246 4.08305 22.0656 4.17036C22.0464 4.19916 22.0281 4.22974 22.0089 4.25855C21.9499 4.34852 21.8905 4.43892 21.8346 4.53111C21.8324 4.5351 21.8306 4.53864 21.8284 4.54174C21.6305 4.86837 21.4531 5.20918 21.2958 5.56106C21.2815 5.59253 21.2664 5.62444 21.2521 5.65635C21.2105 5.75296 21.1712 5.85046 21.1328 5.94885C21.1185 5.98475 21.1037 6.0202 21.0899 6.0561C21.0519 6.1567 21.0166 6.25819 20.9822 6.36012C20.9706 6.39425 20.9581 6.42837 20.9474 6.4625C20.9125 6.56931 20.8799 6.677 20.8486 6.78558C20.8401 6.81439 20.8321 6.84364 20.8236 6.87244C20.7919 6.98723 20.7624 7.10334 20.7356 7.21946C20.7302 7.24162 20.7253 7.26377 20.72 7.28549C20.6923 7.40958 20.6663 7.53456 20.6436 7.66087C20.6413 7.67416 20.6386 7.6879 20.636 7.7012C20.6118 7.83592 20.5904 7.97065 20.5725 8.10715C20.5189 8.51001 20.4885 8.91951 20.4885 9.33654C20.4885 12.4348 21.9888 15.2592 24.5313 17.0076L31.0036 10.5872C31.0272 10.5584 31.0496 10.5287 31.0773 10.5026C32.0401 9.59403 32.6155 8.20908 32.5784 6.8884C32.5659 6.43325 32.9273 6.05433 33.3857 6.04192C33.8365 6.03483 34.2261 6.38716 34.239 6.84275C34.2886 8.60618 33.5644 10.382 32.3005 11.6185C32.2818 11.642 32.2648 11.6664 32.2429 11.6885L15.3092 28.4861L19.6576 32.8L36.4867 16.1031Z" fill="#6A6A6A"/>
<path d="M67.1687 28.4081C66.2953 28.6572 65.3262 28.7781 64.3465 28.7781C59.5804 28.7781 56.8033 26.3579 56.8033 21.5928V13.3656H55.1266C55.1266 13.3656 53.6885 13.2898 53.6885 11.0739C53.6885 9.07954 54.8751 8.89872 54.8751 8.89872H56.8033V6.44836C56.8033 6.44836 56.9418 4.02148 59.7341 4.02148C62.5451 4.02148 62.6577 6.44836 62.6577 6.44836V8.89872H66.1572C66.1572 8.89872 67.6865 9.07954 67.6865 11.1018C67.6865 13.0686 66.1559 13.3656 66.1559 13.3656H62.6577V21.5184C62.6577 23.2313 63.5959 24.162 65.1721 24.162C65.6037 24.162 66.0352 24.0968 66.4382 23.9709C66.8417 23.8455 67.9152 24.0924 68.3522 25.538C68.8543 27.1982 67.9 28.1998 67.1687 28.4081Z" fill="#6A6A6A"/>
<path d="M85.1366 10.6309C85.3712 12.6678 84.2735 13.4402 83.8232 13.4402C80.5957 13.4402 78.4566 15.1899 78.4566 19.0248V26.4162C78.4566 26.4162 78.1627 28.4806 75.5379 28.4806C72.7734 28.4806 72.6023 26.4162 72.6023 26.4162V11.4047C72.6023 11.4047 72.5223 8.45177 75.5379 8.45177C78.3861 8.45177 78.1939 11.0949 78.1939 11.0949C79.2635 9.64349 80.8821 8.71502 82.9386 8.34142C83.6244 8.21688 84.92 8.74737 85.1366 10.6309Z" fill="#6A6A6A"/>
<path d="M107.742 19.6978C107.037 20.1548 105.955 20.1038 105.955 20.1038H93.018C93.5809 22.598 95.72 24.1244 98.7974 24.1244C100.172 24.1239 101.297 23.8629 102.296 23.3306C102.851 23.0346 104.279 22.7275 105.38 23.8199C106.4 24.8326 106.039 26.4865 105.491 26.8743C103.725 28.1272 101.427 28.7782 98.6472 28.7782C91.667 28.7782 87.1261 24.4226 87.1261 18.4662C87.1261 12.4726 91.7421 8.15381 97.8967 8.15381C103.826 8.15381 108.405 12.0995 108.405 18.5407C108.405 18.9874 108.226 19.3836 107.742 19.6978ZM92.943 16.7161H102.888C102.475 14.1851 100.561 12.5471 97.9342 12.5471C95.2697 12.5471 93.3558 14.1479 92.943 16.7161Z" fill="#6A6A6A"/>
<path d="M111.957 24.553C112.656 22.95 114.14 23.1246 114.837 23.3976C116.405 24.0105 118.245 24.3854 119.96 24.3854C122.662 24.3854 123.675 23.6781 123.675 22.5613C123.675 19.2853 111.478 22.6358 111.478 14.6319C111.478 10.8347 114.931 8.1543 120.822 8.1543C122.679 8.1543 124.671 8.43749 126.359 8.95867C127.195 9.21705 128.256 10.3538 127.613 11.9754C127.051 13.3923 125.362 13.3958 124.729 13.1787C123.389 12.7191 122.071 12.5471 120.823 12.5471C118.196 12.5471 117.07 13.3661 117.07 14.4085C117.07 17.8334 129.267 14.5202 129.267 22.4124C129.267 26.1347 125.777 28.7783 119.735 28.7783C117.389 28.7783 115.026 28.3391 113.168 27.6659C112.32 27.3588 111.167 26.3638 111.957 24.553Z" fill="#6A6A6A"/>
<path d="M143.944 8.15918C143.269 8.15918 142.538 8.15918 141.862 8.15918C137.096 8.15918 132.539 11.7951 132.539 17.8999V26.3359C132.539 26.3359 132.566 28.3027 135.554 28.3027C138.291 28.3027 138.347 26.4467 138.347 26.4467V18.578C138.347 15.0595 138.942 13.1942 142.851 13.1942C146.704 13.1942 147.337 15.0595 147.337 18.578L147.38 26.6102C147.38 26.6102 147.51 28.3027 150.33 28.3027C152.843 28.3027 153.09 26.6133 153.09 26.6133V17.9003C153.09 11.7951 148.71 8.15918 143.944 8.15918Z" fill="#6A6A6A"/>
<path d="M190.854 8.15918C190.179 8.15918 189.448 8.15918 188.772 8.15918C184.006 8.15918 179.449 11.7951 179.449 17.8999V26.3359C179.449 26.3359 179.477 28.3027 182.465 28.3027C185.201 28.3027 185.257 26.4467 185.257 26.4467V18.578C185.257 15.0595 185.852 13.1942 189.761 13.1942C193.614 13.1942 194.247 15.0595 194.247 18.578L194.29 26.6102C194.29 26.6102 194.42 28.3027 197.24 28.3027C199.753 28.3027 200 26.6133 200 26.6133V17.9003C200 11.7951 195.62 8.15918 190.854 8.15918Z" fill="#6A6A6A"/>
<path d="M175.699 17.0513V25.9766C175.699 25.9766 175.669 28.4805 172.989 28.4805C170.252 28.4805 170.22 25.9859 170.22 25.9859C169.132 27.81 167.031 28.7784 164.066 28.7784C159.337 28.7784 156.523 26.172 156.523 22.7103C156.523 19.1741 159.037 16.7167 165.191 16.7167H169.845C169.845 14.2229 168.344 12.771 165.191 12.771C163.943 12.771 162.67 13.0121 161.534 13.442C160.757 13.7367 159.137 13.9827 158.352 12.6571C157.464 11.1583 158.796 9.64747 159.683 9.29736C161.571 8.55148 163.784 8.15527 165.979 8.15527C172.134 8.15394 175.699 10.9832 175.699 17.0513ZM169.844 22.1514V20.1039H165.829C163.09 20.1039 162.227 21.1091 162.227 22.4493C162.227 23.9011 163.465 24.869 165.529 24.869C167.48 24.869 169.169 23.976 169.844 22.1514Z" fill="#6A6A6A"/>
</g>
<defs>
<clipPath id="clip0">
<rect width="200" height="32.8" fill="white"/>
</clipPath>
</defs>
</svg>
