<svg width="70" height="70" viewBox="0 0 70 70" fill="none" xmlns="http://www.w3.org/2000/svg">
<mask id="mask0" mask-type="alpha" maskUnits="userSpaceOnUse" x="0" y="0" width="70" height="70">
<rect width="70" height="70" fill="#C4C4C4"/>
</mask>
<g mask="url(#mask0)">
<path d="M-6.65637 -2.08382C-6.65637 -2.08382 13.2284 -16.7306 40.9701 -14.8298C68.1854 -12.9651 81.6848 -2.39492 83.5208 -0.529562C85.5105 1.49186 101.576 7.78059 95.7245 63.1999C91.8727 99.6813 65.9175 121.023 34.8144 122.889C3.71122 124.754 -44.8875 103.304 -42.9434 50.4545C-42.9434 50.4545 -34.8435 12.8382 -6.65637 -2.08382Z" fill="#FFF0F6"/>
<path d="M4.7263 78.3162L-2.4502 102.015L6.9857 106.969L15.3583 91.7054C15.3583 91.7054 12.9661 70.9521 11.2384 68.676C11.2384 68.676 7.78289 70.4165 4.7263 78.3162Z" fill="#FFB5B5"/>
<path d="M63.7078 72.9969L77.3743 93.5968L69.761 101.086L57.3688 88.9094C57.3688 88.9094 53.7081 68.3444 54.7097 65.6626C54.7095 65.6626 58.5166 66.3234 63.7078 72.9969Z" fill="#FFB5B5"/>
<path d="M62.138 70.7763C59.266 66.8333 55.0448 65.1278 55.0448 65.1278L38.5154 58.9018H33.8307V58.7009H28.3487L12.6002 65.0273C12.6002 65.0273 8.41395 66.9353 6.81917 71.5546C5.22439 76.1739 2.5332 85.5128 2.5332 85.5128L15.0257 93.5128C15.0257 93.5128 17.1523 100.542 17.551 104.559C17.935 108.427 16.5541 120.492 16.5541 120.492C16.5541 120.492 23.4326 123.271 33.6979 123.572C47.3865 123.974 51.7722 121.296 51.7722 121.296C51.7722 121.296 50.3081 108.431 50.6921 104.563C51.0908 100.546 51.8912 96.0834 53.0181 93.5209C53.6709 92.0361 56.3569 88.2276 56.3569 88.2276L58.6494 90.1388L70.1783 82.3458C70.1783 82.3456 65.3443 75.1781 62.138 70.7763Z" fill="#6254B6"/>
<path d="M38.6154 58.1266V50.2654H28.4486V57.1703C28.4486 57.5023 28.397 57.846 28.397 58.1979C28.3976 61.0552 30.722 63.3712 33.5581 63.3704C36.3942 63.3697 38.616 61.053 38.6154 58.1956C38.6154 58.1728 38.6154 58.1673 38.6154 58.1266Z" fill="#FFB5B5"/>
<path d="M26.8027 59.322C27.1424 62.7796 30.0373 65.4799 33.5584 65.4789C37.0109 65.4781 39.7442 62.88 40.155 59.519" stroke="#1E1247" stroke-miterlimit="10" stroke-linecap="round" stroke-linejoin="round"/>
<path d="M28.4487 53.6961C30.3866 55.4637 32.9548 56.5424 35.7742 56.5416C36.7576 56.5414 37.7092 56.4074 38.6155 56.1616V50.2654H28.4487V53.6961Z" fill="#E79090"/>
<path d="M46.5081 36.6431C45.7761 36.4665 44.9942 36.7047 44.1968 37.2386V27.1692H22.468V36.8996C21.87 36.1834 21.0018 35.8373 20.1584 36.0406C18.5538 36.4274 17.7826 38.6541 18.3429 41.0137C18.9035 43.3733 20.6954 44.9728 22.3 44.586C22.4194 44.5573 22.5515 44.5153 22.662 44.4669C22.9357 50.2956 27.722 54.9363 33.5748 54.9349C39.2038 54.9337 43.8398 50.639 44.4269 45.1252C44.4917 45.1479 44.5583 45.172 44.6258 45.1883C46.2304 45.5751 47.9111 43.9756 48.4718 41.616C49.0324 39.2566 48.1126 37.0299 46.5081 36.6431Z" fill="#FFB5B5"/>
<path d="M29.3208 45.2449C29.4267 47.4541 31.2917 49.346 33.5828 49.3454C35.8735 49.3448 37.737 47.4541 37.8429 45.2449H29.3208Z" fill="white"/>
<path d="M44.1806 37.2696C44.1806 37.2696 48.1342 32.6922 48.0345 29.8303C47.9349 26.9685 44.6456 27.0689 44.3466 27.2697C44.0476 27.4705 44.0448 31.8853 44.1473 33.596C44.2469 35.2613 44.1806 37.2696 44.1806 37.2696Z" fill="#352373"/>
<path d="M22.7176 37.0104C22.7176 37.0104 19.8769 33.8974 19.1294 31.8388C18.434 29.924 18.332 26.4162 21.6212 25.663C21.6212 25.663 20.5746 18.1817 27.2029 14.5666C33.8312 10.9515 39.3631 13.1106 40.2602 13.5624C41.1573 14.0143 44.3468 15.9725 45.9914 15.0687C47.6361 14.165 48.2341 12.5582 46.9383 11.9055C46.9383 11.9055 48.204 12.0085 48.7325 12.257C49.48 12.6085 52.7693 14.3156 52.6198 19.6378C52.4702 24.9601 48.583 28.525 44.7954 29.1777C41.0078 29.8304 36.6484 29.1944 35.725 28.9267C31.9576 27.8345 27.6559 26.5929 25.0101 27.3199C23.9137 27.6212 23.216 28.525 22.917 32.4413C22.8245 33.6524 22.7176 37.0104 22.7176 37.0104Z" fill="#352373"/>
<path d="M32.0371 41.6965C32.0371 41.6965 33.4325 40.8263 34.695 41.7636" stroke="#F86980" stroke-miterlimit="10" stroke-linecap="round" stroke-linejoin="round"/>
<path d="M44.7285 41.6963C44.7285 41.6963 45.4593 37.2784 47.1871 39.5543" stroke="#1E1247" stroke-miterlimit="10" stroke-linecap="round" stroke-linejoin="round"/>
<path d="M22.4683 41.6963C22.4683 41.6963 21.7375 37.2784 20.0098 39.5543" stroke="#1E1247" stroke-miterlimit="10" stroke-linecap="round" stroke-linejoin="round"/>
<path d="M0.806107 75.7051C0.806107 75.7051 0.473794 73.0274 0.208064 71.8892C-0.0576667 70.7511 -0.722292 64.927 -1.78541 64.6591C-2.84853 64.3912 -4.04462 70.3494 -4.04462 70.3494C-4.04462 70.3494 -13.7423 62.5312 -14.4855 63.1526C-15.6068 64.0901 -10.4237 69.4792 -10.4237 69.4792C-10.4237 69.4792 -19.198 66.7193 -19.5937 67.5377C-20.2251 68.8433 -11.5535 72.023 -11.5535 72.023C-11.5535 72.023 -20.5905 70.6509 -20.7898 71.6882C-20.9872 72.7157 -11.8192 74.6339 -11.8192 74.6339C-11.8192 74.6339 -20.6902 74.8684 -20.0588 75.5712C-19.207 76.5195 -12.3361 77.6488 -9.62616 78.2491C-8.25146 78.5538 -6.37021 79.3202 -4.70905 80.8598C-1.52108 83.8145 1.13842 77.3789 0.806107 75.7051Z" fill="#FFB5B5"/>
<path d="M26.7876 22.5496C26.7876 22.5496 30.7745 17.9976 40.0775 20.2736C49.3804 22.5496 52.0383 16.7256 52.0383 16.7256" stroke="#40337F" stroke-miterlimit="10" stroke-linecap="round" stroke-linejoin="round"/>
<path d="M31.04 23.8888C31.04 23.8888 34.2296 21.7464 40.6751 23.8888C47.5994 26.1905 52.0379 21.9473 52.0379 21.9473" stroke="#40337F" stroke-miterlimit="10" stroke-linecap="round" stroke-linejoin="round"/>
<path d="M54.1645 80.9941C54.1645 80.9941 52.0923 79.7448 51.7059 78.1156C51.1741 75.8729 49.5793 72.4252 49.0478 71.2201C48.5164 70.0151 47.4168 69.6894 47.2537 71.9566C47.0875 74.2662 47.1873 74.9022 47.1873 74.9022C47.1873 74.9022 44.6622 74.2329 42.0707 72.2914C39.4792 70.3499 36.2601 68.4621 36.0903 68.8772C35.6252 70.0151 39.9444 74.7683 39.9444 74.7683C39.9444 74.7683 33.6983 71.6889 32.9673 71.8897C32.2363 72.0906 35.8245 75.7056 37.22 76.5758C38.6154 77.446 32.2363 75.3037 33.0337 76.4418C33.3652 76.915 34.1335 77.7585 35.0848 78.6596C35.3369 78.8984 35.5102 79.6086 36.356 80.2577C37.3517 81.0221 39.0462 81.732 39.4792 81.9314C41.805 83.0025 45.9578 84.9775 47.8849 85.7137C49.8119 86.45 54.3638 83.4041 54.1645 80.9941Z" fill="#FFB5B5"/>
</g>
</svg>
